<svg xmlns="http://www.w3.org/2000/svg" xmlns:xlink="http://www.w3.org/1999/xlink" xmlns:lucid="lucid" width="2039.17" height="1575.72"><g transform="translate(0 0)" lucid:page-tab-id="0_0"><path d="M0 0h2039.17v1575.72H0z" fill="#fff"/><path d="M60.67 17.82H1122v86.5H60.67z" fill="none"/><use xlink:href="#a" transform="matrix(1,0,0,1,60.66666666666674,17.820710426078485) translate(0 50.7091711695751)"/><use xlink:href="#b" transform="matrix(1,0,0,1,60.66666666666674,17.820710426078485) translate(255.92557651991612 50.7091711695751)"/><use xlink:href="#c" transform="matrix(1,0,0,1,60.66666666666674,17.820710426078485) translate(438.2575306837531 50.7091711695751)"/><use xlink:href="#d" transform="matrix(1,0,0,1,60.66666666666674,17.820710426078485) translate(534.1795581900441 50.7091711695751)"/><use xlink:href="#e" transform="matrix(1,0,0,1,60.66666666666674,17.820710426078485) translate(729.2276892779927 50.7091711695751)"/><use xlink:href="#f" transform="matrix(1,0,0,1,60.66666666666674,17.820710426078485) translate(751.1555849187836 50.7091711695751)"/><path d="M60 85.08L1040 80" stroke="#999" stroke-width="2" fill="none"/><path d="M1279 37.08h688v48h-688z" fill="none"/><use xlink:href="#g" transform="matrix(1,0,0,1,1279,37.0757374435291) translate(413.15034915994914 29.14940797826793)"/><use xlink:href="#h" transform="matrix(1,0,0,1,1279,37.0757374435291) translate(521.216397148322 29.14940797826793)"/><use xlink:href="#i" transform="matrix(1,0,0,1,1279,37.0757374435291) translate(549.3235823630345 29.14940797826793)"/><use xlink:href="#j" transform="matrix(1,0,0,1,1279,37.0757374435291) translate(602.1765336955345 29.14940797826793)"/><use xlink:href="#k" transform="matrix(1,0,0,1,1279,37.0757374435291) translate(630.784355797023 29.14940797826793)"/><path d="M1041.92 145c0-2.76 2.24-5 5-5h350c2.76 0 5 2.24 5 5v150c0 2.76-2.24 5-5 5h-350c-2.76 0-5-2.24-5-5z" stroke="#999" stroke-width="2" fill="#fff"/><use xlink:href="#l" transform="matrix(1,0,0,1,1046.917729,145) translate(29.901126301250315 54.40236808692828)"/><use xlink:href="#m" transform="matrix(1,0,0,1,1046.917729,145) translate(124.65023310138025 54.40236808692828)"/><use xlink:href="#n" transform="matrix(1,0,0,1,1046.917729,145) translate(203.49339081308256 54.40236808692828)"/><use xlink:href="#o" transform="matrix(1,0,0,1,1046.917729,145) translate(32.304183357775344 79.11952638261434)"/><use xlink:href="#p" transform="matrix(1,0,0,1,1046.917729,145) translate(121.38894138181054 79.11952638261434)"/><use xlink:href="#q" transform="matrix(1,0,0,1,1046.917729,145) translate(154.45958373113126 79.11952638261434)"/><use xlink:href="#r" transform="matrix(1,0,0,1,1046.917729,145) translate(232.10121291457108 79.11952638261434)"/><use xlink:href="#s" transform="matrix(1,0,0,1,1046.917729,145) translate(280.1051384008688 79.11952638261434)"/><use xlink:href="#t" transform="matrix(1,0,0,1,1046.917729,145) translate(66.46192294695261 103.83668467830041)"/><use xlink:href="#u" transform="matrix(1,0,0,1,1046.917729,145) translate(155.6038966151908 103.83668467830041)"/><use xlink:href="#v" transform="matrix(1,0,0,1,1046.917729,145) translate(229.81258714645196 103.83668467830041)"/><path d="M409.92 150c39.76 0 72 31.34 72 70s-32.24 70-72 70h-216c-39.77 0-72-31.34-72-70s32.23-70 72-70z" stroke="#000" stroke-width="2" fill="#fff"/><use xlink:href="#w" transform="matrix(1,0,0,1,126.91772900000001,155) translate(1.6652058870811572 56.76094723477131)"/><use xlink:href="#x" transform="matrix(1,0,0,1,126.91772900000001,155) translate(99.38952618576589 56.76094723477131)"/><use xlink:href="#y" transform="matrix(1,0,0,1,126.91772900000001,155) translate(194.1386329858958 56.76094723477131)"/><use xlink:href="#z" transform="matrix(1,0,0,1,126.91772900000001,155) translate(228.46801950768202 56.76094723477131)"/><use xlink:href="#A" transform="matrix(1,0,0,1,126.91772900000001,155) translate(276.4719449939797 56.76094723477131)"/><use xlink:href="#B" transform="matrix(1,0,0,1,126.91772900000001,155) translate(123.10541070789986 81.47810553045738)"/><use xlink:href="#C" transform="matrix(1,0,0,1,126.91772900000001,155) translate(159.6089917093992 81.47810553045738)"/><path d="M561.92 145c0-2.76 2.24-5 5-5h350c2.76 0 5 2.24 5 5v150c0 2.76-2.24 5-5 5h-350c-2.76 0-5-2.24-5-5z" stroke="#999" stroke-width="2" fill="#fff"/><use xlink:href="#D" transform="matrix(1,0,0,1,566.917729,145) translate(46.55087876431662 66.76094723477131)"/><use xlink:href="#E" transform="matrix(1,0,0,1,566.917729,145) translate(96.78621437453043 66.76094723477131)"/><use xlink:href="#F" transform="matrix(1,0,0,1,566.917729,145) translate(133.28979537602976 66.76094723477131)"/><use xlink:href="#u" transform="matrix(1,0,0,1,566.917729,145) translate(175.5149407978268 66.76094723477131)"/><use xlink:href="#G" transform="matrix(1,0,0,1,566.917729,145) translate(249.72363132908797 66.76094723477131)"/><use xlink:href="#H" transform="matrix(1,0,0,1,566.917729,145) translate(36.28067062988225 91.47810553045738)"/><use xlink:href="#I" transform="matrix(1,0,0,1,566.917729,145) translate(133.37561884233423 91.47810553045738)"/><use xlink:href="#J" transform="matrix(1,0,0,1,566.917729,145) translate(184.75526733660757 91.47810553045738)"/><use xlink:href="#K" transform="matrix(1,0,0,1,566.917729,145) translate(264.68552228816645 91.47810553045738)"/><path d="M482.92 220h59.76" stroke="#000" stroke-width="2" fill="none"/><path d="M482.92 221h-1.04l.04-1-.02-1h1.02zM557.68 220l-14.26 4.64v-9.28z"/><path d="M560.92 220l-18.5 6v-12zm-16.5 3.26l10.03-3.26-10.03-3.26z"/><path d="M922.92 220h99.76" stroke="#000" stroke-width="2" fill="none"/><path d="M922.92 221h-1v-2h1zM1037.68 220l-14.26 4.64v-9.28z"/><path d="M1040.92 220l-18.5 6v-12zm-16.5 3.26l10.03-3.26-10.03-3.26z"/><path d="M738 380l180 110-180 110-180-110z" stroke="#000" stroke-width="2" fill="#fff"/><use xlink:href="#L" transform="matrix(1,0,0,1,563,385) translate(87.03094703792286 109.11952638261435)"/><use xlink:href="#M" transform="matrix(1,0,0,1,563,385) translate(163.58547898150607 109.11952638261435)"/><use xlink:href="#N" transform="matrix(1,0,0,1,563,385) translate(208.0992501714222 109.11952638261435)"/><path d="M1200 380l180 110-180 110-180-110z" stroke="#000" stroke-width="2" fill="#fff"/><use xlink:href="#O" transform="matrix(1,0,0,1,1025,385) translate(17.599762797610254 109.11952638261435)"/><use xlink:href="#P" transform="matrix(1,0,0,1,1025,385) translate(64.45937539984843 109.11952638261435)"/><use xlink:href="#Q" transform="matrix(1,0,0,1,1025,385) translate(136.4366558071935 109.11952638261435)"/><use xlink:href="#R" transform="matrix(1,0,0,1,1025,385) translate(154.17350551011637 109.11952638261435)"/><use xlink:href="#S" transform="matrix(1,0,0,1,1025,385) translate(188.4456763876996 109.11952638261435)"/><use xlink:href="#M" transform="matrix(1,0,0,1,1025,385) translate(221.63075002542627 109.11952638261435)"/><use xlink:href="#T" transform="matrix(1,0,0,1,1025,385) translate(266.14452121534237 109.11952638261435)"/><path d="M390 820c39.76 0 72 31.34 72 70s-32.24 70-72 70H174c-39.76 0-72-31.34-72-70s32.24-70 72-70z" stroke="#000" stroke-width="2" fill="#fff"/><use xlink:href="#U" transform="matrix(1,0,0,1,107,825) translate(63.05759211687547 69.11952638261435)"/><use xlink:href="#V" transform="matrix(1,0,0,1,107,825) translate(132.74624675610147 69.11952638261435)"/><use xlink:href="#q" transform="matrix(1,0,0,1,107,825) translate(167.0184176336847 69.11952638261435)"/><use xlink:href="#W" transform="matrix(1,0,0,1,107,825) translate(244.6600468171245 69.11952638261435)"/><path d="M1788 420c39.76 0 72 31.34 72 70s-32.24 70-72 70h-216c-39.76 0-72-31.34-72-70s32.24-70 72-70z" stroke="#000" stroke-width="2" fill="#fff"/><use xlink:href="#X" transform="matrix(1,0,0,1,1505,425) translate(153.3152708470717 69.11952638261435)"/><path d="M1426.98 491h-45.06v-2h45.06zm53.78 0h-26.83v-2h26.83zM1381.92 491h-3v-.34l1.08-.66-1.08-.66V489h3zM1495.76 490l-14.26 4.64v-9.28z"/><path d="M1499 490l-18.5 6v-12zm-16.5 3.26l10.03-3.26-10.03-3.26z"/><use xlink:href="#Y" transform="matrix(1,0,0,1,1426.983749321705,479.2) translate(0 14.4)"/><path d="M951 491h-31.08v-2H951zm48.85 0H987v-2h12.85zM919.92 491h-3v-.34L918 490l-1.08-.66V489h3zM1014.85 490l-14.27 4.64v-9.28z"/><path d="M1018.08 490l-18.5 6v-12zm-16.5 3.26l10.03-3.26-10.02-3.26z"/><use xlink:href="#Z" transform="matrix(1,0,0,1,951,479.2) translate(0 14.4)"/><path d="M1443.92 341H517.08v148h20.77v2h-22.77V339h926.84V221h-39v-2h41z"/><path d="M1402.92 221h-1v-2h1zM552.85 490l-14.27 4.64v-9.28z"/><path d="M556.08 490l-18.5 6v-12zm-16.5 3.26L549.6 490l-10.02-3.26z"/><path d="M564 825c0-2.76 2.24-5 5-5h350c2.76 0 5 2.24 5 5v150c0 2.76-2.24 5-5 5H569c-2.76 0-5-2.24-5-5z" stroke="#999" stroke-width="2" fill="#fff"/><use xlink:href="#aa" transform="matrix(1,0,0,1,569,825) translate(11.191610646876825 66.76094723477131)"/><use xlink:href="#ab" transform="matrix(1,0,0,1,569,825) translate(41.973627228078456 66.76094723477131)"/><use xlink:href="#ac" transform="matrix(1,0,0,1,569,825) translate(101.36346591076858 66.76094723477131)"/><use xlink:href="#ad" transform="matrix(1,0,0,1,569,825) translate(174.4850592021732 66.76094723477131)"/><use xlink:href="#ae" transform="matrix(1,0,0,1,569,825) translate(224.720394812387 66.76094723477131)"/><use xlink:href="#af" transform="matrix(1,0,0,1,569,825) translate(249.78084697329095 66.76094723477131)"/><use xlink:href="#ag" transform="matrix(1,0,0,1,569,825) translate(133.31840319813125 91.47810553045738)"/><path d="M463 890h81.76" stroke="#000" stroke-width="2" fill="none"/><path d="M463 891h-1.03l.03-1-.02-1H463zM559.76 890l-14.26 4.64v-9.28z"/><path d="M563 890l-18.5 6v-12zm-16.5 3.26l10.03-3.26-10.03-3.26z"/><path d="M1026 825c0-2.76 2.24-5 5-5h350c2.76 0 5 2.24 5 5v150c0 2.76-2.24 5-5 5h-350c-2.76 0-5-2.24-5-5z" stroke="#999" stroke-width="2" fill="#fff"/><use xlink:href="#ah" transform="matrix(1,0,0,1,1030.9999999999998,825) translate(13.451628592894394 66.76094723477131)"/><use xlink:href="#ai" transform="matrix(1,0,0,1,1030.9999999999998,825) translate(77.47593445602566 66.76094723477131)"/><use xlink:href="#aj" transform="matrix(1,0,0,1,1030.9999999999998,825) translate(110.54657680534638 66.76094723477131)"/><use xlink:href="#F" transform="matrix(1,0,0,1,1030.9999999999998,825) translate(177.9466056764533 66.76094723477131)"/><use xlink:href="#ak" transform="matrix(1,0,0,1,1030.9999999999998,825) translate(220.17175109825033 66.76094723477131)"/><use xlink:href="#al" transform="matrix(1,0,0,1,1030.9999999999998,825) translate(293.236128745452 66.76094723477131)"/><use xlink:href="#am" transform="matrix(1,0,0,1,1030.9999999999998,825) translate(23.12107246319755 91.47810553045738)"/><use xlink:href="#aj" transform="matrix(1,0,0,1,1030.9999999999998,825) translate(103.05132741475641 91.47810553045738)"/><use xlink:href="#an" transform="matrix(1,0,0,1,1030.9999999999998,825) translate(170.4513562858633 91.47810553045738)"/><use xlink:href="#ao" transform="matrix(1,0,0,1,1030.9999999999998,825) translate(217.2537532438985 91.47810553045738)"/><path d="M925 900h81.76" stroke="#000" stroke-width="2" fill="none"/><path d="M925 901h-1v-2h1zM1021.76 900l-14.26 4.64v-9.28z"/><path d="M1025 900l-18.5 6v-12zm-16.5 3.26l10.03-3.26-10.03-3.26z"/><path d="M1500 825c0-2.76 2.24-5 5-5h350c2.76 0 5 2.24 5 5v150c0 2.76-2.24 5-5 5h-350c-2.76 0-5-2.24-5-5z" stroke="#999" stroke-width="2" fill="#fff"/><g><use xlink:href="#ap" transform="matrix(1,0,0,1,1505,825) translate(13.308589482386992 66.76094723477131)"/><use xlink:href="#V" transform="matrix(1,0,0,1,1505,825) translate(70.46701804116103 66.76094723477131)"/><use xlink:href="#aq" transform="matrix(1,0,0,1,1505,825) translate(104.73918891874425 66.76094723477131)"/><use xlink:href="#ar" transform="matrix(1,0,0,1,1505,825) translate(144.73292421662518 66.76094723477131)"/><use xlink:href="#ae" transform="matrix(1,0,0,1,1505,825) translate(184.7838751587091 66.76094723477131)"/><use xlink:href="#as" transform="matrix(1,0,0,1,1505,825) translate(209.84432731961303 66.76094723477131)"/><use xlink:href="#at" transform="matrix(1,0,0,1,1505,825) translate(276.15725895086337 66.76094723477131)"/><use xlink:href="#q" transform="matrix(1,0,0,1,1505,825) translate(115.0380048752801 91.47810553045738)"/><use xlink:href="#W" transform="matrix(1,0,0,1,1505,825) translate(192.6796340587199 91.47810553045738)"/></g><path d="M102 1145c0-2.76 2.24-5 5-5h350c2.76 0 5 2.24 5 5v150c0 2.76-2.24 5-5 5H107c-2.76 0-5-2.24-5-5z" stroke="#999" stroke-width="2" fill="#fff"/><g><use xlink:href="#au" transform="matrix(1,0,0,1,107,1145) translate(1.9798919301975388 66.76094723477131)"/><use xlink:href="#av" transform="matrix(1,0,0,1,107,1145) translate(81.9101468817564 66.76094723477131)"/><use xlink:href="#aw" transform="matrix(1,0,0,1,107,1145) translate(149.3101757528633 66.76094723477131)"/><use xlink:href="#ax" transform="matrix(1,0,0,1,107,1145) translate(197.25688559495802 66.76094723477131)"/><use xlink:href="#ay" transform="matrix(1,0,0,1,107,1145) translate(233.76046659645735 66.76094723477131)"/><use xlink:href="#az" transform="matrix(1,0,0,1,107,1145) translate(328.6812203291962 66.76094723477131)"/><use xlink:href="#aA" transform="matrix(1,0,0,1,107,1145) translate(94.46898078430986 91.47810553045738)"/><use xlink:href="#aB" transform="matrix(1,0,0,1,107,1145) translate(128.7411516618931 91.47810553045738)"/><use xlink:href="#aw" transform="matrix(1,0,0,1,107,1145) translate(165.3591639517984 91.47810553045738)"/><use xlink:href="#aC" transform="matrix(1,0,0,1,107,1145) translate(213.3058737938931 91.47810553045738)"/></g><path d="M1861 900h40v160H61v160h21.76" stroke="#000" stroke-width="2" fill="none"/><path d="M1861 901h-1v-2h1zM97.76 1220l-14.26 4.64v-9.28z"/><path d="M101 1220l-18.5 6v-12zm-16.5 3.26l10.03-3.26-10.03-3.26z"/><path d="M564 1145c0-2.76 2.24-5 5-5h350c2.76 0 5 2.24 5 5v150c0 2.76-2.24 5-5 5H569c-2.76 0-5-2.24-5-5z" stroke="#999" stroke-width="2" fill="#fff"/><g><use xlink:href="#ap" transform="matrix(1,0,0,1,569,1145) translate(7.615632884190745 66.76094723477131)"/><use xlink:href="#V" transform="matrix(1,0,0,1,569,1145) translate(64.77406144296478 66.76094723477131)"/><use xlink:href="#aq" transform="matrix(1,0,0,1,569,1145) translate(99.046232320548 66.76094723477131)"/><use xlink:href="#ar" transform="matrix(1,0,0,1,569,1145) translate(139.03996761842893 66.76094723477131)"/><use xlink:href="#ae" transform="matrix(1,0,0,1,569,1145) translate(179.09091856051285 66.76094723477131)"/><use xlink:href="#as" transform="matrix(1,0,0,1,569,1145) translate(204.15137072141678 66.76094723477131)"/><use xlink:href="#aD" transform="matrix(1,0,0,1,569,1145) translate(270.4643023526671 66.76094723477131)"/><use xlink:href="#r" transform="matrix(1,0,0,1,569,1145) translate(129.82824890174965 91.47810553045738)"/><use xlink:href="#aE" transform="matrix(1,0,0,1,569,1145) translate(177.83217438804735 91.47810553045738)"/></g><path d="M463 1220h81.76" stroke="#000" stroke-width="2" fill="none"/><path d="M463 1221h-1v-2h1zM559.76 1220l-14.26 4.64v-9.28z"/><path d="M563 1220l-18.5 6v-12zm-16.5 3.26l10.03-3.26-10.03-3.26z"/><path d="M1022 1145c0-2.76 2.24-5 5-5h350c2.76 0 5 2.24 5 5v150c0 2.76-2.24 5-5 5h-350c-2.76 0-5-2.24-5-5z" stroke="#999" stroke-width="2" fill="#fff"/><g><use xlink:href="#ap" transform="matrix(1,0,0,1,1027,1145) translate(33.96343703966167 66.76094723477131)"/><use xlink:href="#V" transform="matrix(1,0,0,1,1027,1145) translate(91.1218655984357 66.76094723477131)"/><use xlink:href="#aq" transform="matrix(1,0,0,1,1027,1145) translate(125.39403647601893 66.76094723477131)"/><use xlink:href="#ar" transform="matrix(1,0,0,1,1027,1145) translate(165.38777177389986 66.76094723477131)"/><use xlink:href="#ae" transform="matrix(1,0,0,1,1027,1145) translate(205.43872271598377 66.76094723477131)"/><use xlink:href="#aF" transform="matrix(1,0,0,1,1027,1145) translate(230.4991748768877 66.76094723477131)"/><use xlink:href="#q" transform="matrix(1,0,0,1,1027,1145) translate(25.38109040921512 91.47810553045738)"/><use xlink:href="#r" transform="matrix(1,0,0,1,1027,1145) translate(103.02271959265492 91.47810553045738)"/><use xlink:href="#an" transform="matrix(1,0,0,1,1027,1145) translate(151.02664507895264 91.47810553045738)"/><use xlink:href="#aG" transform="matrix(1,0,0,1,1027,1145) translate(197.82904203698783 91.47810553045738)"/><use xlink:href="#aH" transform="matrix(1,0,0,1,1027,1145) translate(257.21888071967794 91.47810553045738)"/></g><path d="M925 1220h77.76" stroke="#000" stroke-width="2" fill="none"/><path d="M925 1221h-1v-2h1zM1017.76 1220l-14.26 4.64v-9.28z"/><path d="M1021 1220l-18.5 6v-12zm-16.5 3.26l10.03-3.26-10.03-3.26z"/><path d="M1790 1160c39.76 0 72 31.34 72 70s-32.24 70-72 70h-216c-39.76 0-72-31.34-72-70s32.24-70 72-70z" stroke="#000" stroke-width="2" fill="#fff"/><g><use xlink:href="#X" transform="matrix(1,0,0,1,1507,1165) translate(153.3152708470717 69.11952638261435)"/></g><path d="M436.44 651H283v149.76h-2V649h155.44zM739 651H463.4v-2H737v-47.83h2zM739 601.17h-2v-1.78l1 .6 1-.6zM282 815.76l-4.64-14.26h9.28z"/><path d="M282 819l-6-18.5h12zm-3.26-16.5l3.26 10.03 3.26-10.03z"/><g><use xlink:href="#Y" transform="matrix(1,0,0,1,436.439027,639.2) translate(0 14.4)"/></g><path d="M860 605c0-2.76 2.24-5 5-5h252c2.76 0 5 2.24 5 5v90c0 2.76-2.24 5-5 5H865c-2.76 0-5-2.24-5-5z" stroke="#999" stroke-width="2" fill="#fff"/><g><use xlink:href="#l" transform="matrix(1,0,0,1,865,605) translate(11.7975741708579 24.402368086928274)"/><use xlink:href="#aI" transform="matrix(1,0,0,1,865,605) translate(106.54668097098784 24.402368086928274)"/><use xlink:href="#aA" transform="matrix(1,0,0,1,865,605) translate(171.65808407397566 24.402368086928274)"/><use xlink:href="#aJ" transform="matrix(1,0,0,1,865,605) translate(205.93025495155888 24.402368086928274)"/><use xlink:href="#ar" transform="matrix(1,0,0,1,865,605) translate(2.0709146563518033 49.11952638261434)"/><use xlink:href="#ae" transform="matrix(1,0,0,1,865,605) translate(42.12186559843571 49.11952638261434)"/><use xlink:href="#aK" transform="matrix(1,0,0,1,865,605) translate(67.18231775933964 49.11952638261434)"/><use xlink:href="#aL" transform="matrix(1,0,0,1,865,605) translate(102.5988015209824 49.11952638261434)"/><use xlink:href="#aA" transform="matrix(1,0,0,1,865,605) translate(185.96199512471992 49.11952638261434)"/><use xlink:href="#aM" transform="matrix(1,0,0,1,865,605) translate(220.23416600230314 49.11952638261434)"/><use xlink:href="#r" transform="matrix(1,0,0,1,865,605) translate(47.78621437453043 73.83668467830041)"/><use xlink:href="#ae" transform="matrix(1,0,0,1,865,605) translate(95.79013986082813 73.83668467830041)"/><use xlink:href="#aN" transform="matrix(1,0,0,1,865,605) translate(120.85059202173207 73.83668467830041)"/></g><path d="M1167.9 651h-26.66v-2h26.67zm33.1-11.8h-2v-38.03h2zM1201 601.17h-2v-1.78l1 .6 1-.6zM1140.5 654.64l-14.26-4.64 14.26-4.64z"/><path d="M1141.5 656l-18.5-6 18.5-6zm-12.03-6l10.03 3.26v-6.52z"/><g><use xlink:href="#Z" transform="matrix(1,0,0,1,1167.914027,639.2) translate(0 14.4)"/></g><path d="M1387 900h93.76" stroke="#000" stroke-width="2" fill="none"/><path d="M1387 901h-1v-2h1zM1495.76 900l-14.26 4.64v-9.28z"/><path d="M1499 900l-18.5 6v-12zm-16.5 3.26l10.03-3.26-10.03-3.26z"/><path d="M1383 1220h100.5" stroke="#000" stroke-width="2" fill="none"/><path d="M1383 1221h-1v-2h1zM1498.5 1220l-14.27 4.64v-9.28z"/><path d="M1501.73 1220l-18.5 6v-12zm-16.5 3.26l10.03-3.26-10.03-3.26zM436.44 651H283v149.76h-2V649h155.44zM859 651H463.4v-2H859zM860 651h-1v-2h1zM282 815.76l-4.64-14.26h9.28z"/><path d="M282 819l-6-18.5h12zm-3.26-16.5l3.26 10.03 3.26-10.03z"/><defs><path fill="#999" d="M169-182c-1-43-94-46-97-3 18 66 151 10 154 114 3 95-165 93-204 36-6-8-10-19-12-30l50-8c3 46 112 56 116 5-17-69-150-10-154-114-4-87 153-88 188-35 5 8 8 18 10 28" id="aO"/><path fill="#999" d="M24 0v-248h195v40H76v63h132v40H76v65h150V0H24" id="aP"/><path fill="#999" d="M240-174c0 40-23 61-54 70L253 0h-59l-57-94H76V0H24v-248c93 4 217-23 216 74zM76-134c48-2 112 12 112-38 0-48-66-32-112-35v73" id="aQ"/><path fill="#999" d="M24 0v-248h52V0H24" id="aR"/><path fill="#999" d="M147 0H94L2-248h55l64 206c17-72 42-137 63-206h54" id="aS"/><path fill="#999" d="M67-125c0 53 21 87 73 88 37 1 54-22 65-47l45 17C233-25 199 4 140 4 58 4 20-42 15-125 8-235 124-281 211-232c18 10 29 29 36 50l-46 12c-8-25-30-41-62-41-52 0-71 34-72 86" id="aT"/><path fill="#999" d="M175 0L67-191c6 58 2 128 3 191H24v-248h59L193-55c-6-58-2-129-3-193h46V0h-61" id="aU"/><path fill="#999" d="M140-251c80 0 125 45 125 126S219 4 139 4C58 4 15-44 15-125s44-126 125-126zm-1 214c52 0 73-35 73-88 0-50-21-86-72-86-52 0-73 35-73 86s22 88 72 88" id="aV"/><path fill="#999" d="M275 0h-61l-44-196L126 0H64L0-248h53L97-49l45-199h58l43 199 44-199h52" id="aW"/><g id="a"><use transform="matrix(0.10012737735520977,0,0,0.10012737735520977,0,0)" xlink:href="#aO"/><use transform="matrix(0.10012737735520977,0,0,0.10012737735520977,24.030570565250343,0)" xlink:href="#aP"/><use transform="matrix(0.10012737735520977,0,0,0.10012737735520977,48.06114113050069,0)" xlink:href="#aQ"/><use transform="matrix(0.10012737735520977,0,0,0.10012737735520977,73.99413186550001,0)" xlink:href="#aR"/><use transform="matrix(0.10012737735520977,0,0,0.10012737735520977,84.00686960102098,0)" xlink:href="#aS"/><use transform="matrix(0.10012737735520977,0,0,0.10012737735520977,108.03744016627131,0)" xlink:href="#aT"/><use transform="matrix(0.10012737735520977,0,0,0.10012737735520977,133.97043090127065,0)" xlink:href="#aP"/><use transform="matrix(0.10012737735520977,0,0,0.10012737735520977,158.001001466521,0)" xlink:href="#aU"/><use transform="matrix(0.10012737735520977,0,0,0.10012737735520977,183.9339922015203,0)" xlink:href="#aV"/><use transform="matrix(0.10012737735520977,0,0,0.10012737735520977,211.96965786097903,0)" xlink:href="#aW"/></g><path fill="#999" d="M199 0l-22-63H83L61 0H9l90-248h61L250 0h-51zm-33-102l-36-108c-10 38-24 72-36 108h72" id="aX"/><path fill="#999" d="M136-208V0H84v-208H4v-40h212v40h-80" id="aY"/><path fill="#999" d="M24 0v-248h52v208h133V0H24" id="aZ"/><path fill="#999" d="M67-125c0 54 23 88 75 88 28 0 53-7 68-21v-34h-60v-39h108v91C232-14 192 4 140 4 58 4 20-42 15-125 8-236 126-280 215-234c19 10 29 26 37 47l-47 15c-11-23-29-39-63-39-53 1-75 33-75 86" id="ba"/><g id="b"><use transform="matrix(0.10012737735520977,0,0,0.10012737735520977,0,0)" xlink:href="#aT"/><use transform="matrix(0.10012737735520977,0,0,0.10012737735520977,25.93299073499933,0)" xlink:href="#aX"/><use transform="matrix(0.10012737735520977,0,0,0.10012737735520977,49.162542281407994,0)" xlink:href="#aY"/><use transform="matrix(0.10012737735520977,0,0,0.10012737735520977,68.38699873360827,0)" xlink:href="#aX"/><use transform="matrix(0.10012737735520977,0,0,0.10012737735520977,94.31998946860759,0)" xlink:href="#aZ"/><use transform="matrix(0.10012737735520977,0,0,0.10012737735520977,116.24788510939852,0)" xlink:href="#aV"/><use transform="matrix(0.10012737735520977,0,0,0.10012737735520977,144.28355076885725,0)" xlink:href="#ba"/></g><path fill="#999" d="M230 0l2-204L168 0h-37L68-204 70 0H24v-248h70l56 185 57-185h69V0h-46" id="bb"/><g id="c"><use transform="matrix(0.10012737735520977,0,0,0.10012737735520977,0,0)" xlink:href="#aR"/><use transform="matrix(0.10012737735520977,0,0,0.10012737735520977,10.012737735520977,0)" xlink:href="#aY"/><use transform="matrix(0.10012737735520977,0,0,0.10012737735520977,31.940633376311915,0)" xlink:href="#aP"/><use transform="matrix(0.10012737735520977,0,0,0.10012737735520977,55.97120394156226,0)" xlink:href="#bb"/></g><g id="d"><use transform="matrix(0.10012737735520977,0,0,0.10012737735520977,0,0)" xlink:href="#aT"/><use transform="matrix(0.10012737735520977,0,0,0.10012737735520977,25.93299073499933,0)" xlink:href="#aQ"/><use transform="matrix(0.10012737735520977,0,0,0.10012737735520977,51.86598146999866,0)" xlink:href="#aP"/><use transform="matrix(0.10012737735520977,0,0,0.10012737735520977,75.896552035249,0)" xlink:href="#aX"/><use transform="matrix(0.10012737735520977,0,0,0.10012737735520977,99.12610358165767,0)" xlink:href="#aY"/><use transform="matrix(0.10012737735520977,0,0,0.10012737735520977,121.05399922244861,0)" xlink:href="#aR"/><use transform="matrix(0.10012737735520977,0,0,0.10012737735520977,131.0667369579696,0)" xlink:href="#aV"/><use transform="matrix(0.10012737735520977,0,0,0.10012737735520977,159.10240261742834,0)" xlink:href="#aU"/></g><path fill="#999" d="M14-72v-43h91v43H14" id="bc"/><use transform="matrix(0.10012737735520977,0,0,0.10012737735520977,0,0)" xlink:href="#bc" id="e"/><path fill="#999" d="M24-248c120-7 223 5 221 122C244-46 201 0 124 0H24v-248zM76-40c74 7 117-18 117-86 0-67-45-88-117-82v168" id="bd"/><g id="f"><use transform="matrix(0.10012737735520977,0,0,0.10012737735520977,0,0)" xlink:href="#bd"/><use transform="matrix(0.10012737735520977,0,0,0.10012737735520977,25.93299073499933,0)" xlink:href="#aP"/><use transform="matrix(0.10012737735520977,0,0,0.10012737735520977,49.96356130024967,0)" xlink:href="#aY"/><use transform="matrix(0.10012737735520977,0,0,0.10012737735520977,69.18801775244995,0)" xlink:href="#aX"/><use transform="matrix(0.10012737735520977,0,0,0.10012737735520977,95.12100848744927,0)" xlink:href="#aR"/><use transform="matrix(0.10012737735520977,0,0,0.10012737735520977,105.13374622297026,0)" xlink:href="#aZ"/><use transform="matrix(0.10012737735520977,0,0,0.10012737735520977,127.06164186376117,0)" xlink:href="#aP"/><use transform="matrix(0.10012737735520977,0,0,0.10012737735520977,151.0922124290115,0)" xlink:href="#bd"/></g><path fill="#999" d="M30-248c87 1 191-15 191 75 0 78-77 80-158 76V0H30v-248zm33 125c57 0 124 11 124-50 0-59-68-47-124-48v98" id="be"/><path fill="#999" d="M24 0v-261h32V0H24" id="bf"/><path fill="#999" d="M84 4C-5 8 30-112 23-190h32v120c0 31 7 50 39 49 72-2 45-101 50-169h31l1 190h-30c-1-10 1-25-2-33-11 22-28 36-60 37" id="bg"/><path fill="#999" d="M135-143c-3-34-86-38-87 0 15 53 115 12 119 90S17 21 10-45l28-5c4 36 97 45 98 0-10-56-113-15-118-90-4-57 82-63 122-42 12 7 21 19 24 35" id="bh"/><path fill="#999" d="M126-127c33 6 58 20 58 59 0 88-139 92-164 29-3-8-5-16-6-25l32-3c6 27 21 44 54 44 32 0 52-15 52-46 0-38-36-46-79-43v-28c39 1 72-4 72-42 0-27-17-43-46-43-28 0-47 15-49 41l-32-3c6-42 35-63 81-64 48-1 79 21 79 65 0 36-21 52-52 59" id="bi"/><path fill="#999" d="M33 0v-248h34V0H33" id="bj"/><path fill="#999" d="M127-220V0H93v-220H8v-28h204v28h-85" id="bk"/><g id="g"><use transform="matrix(0.07151955525372126,0,0,0.07151955525372126,0,0)" xlink:href="#be"/><use transform="matrix(0.07151955525372126,0,0,0.07151955525372126,17.164693260893102,0)" xlink:href="#bf"/><use transform="matrix(0.07151955525372126,0,0,0.07151955525372126,22.814738125937083,0)" xlink:href="#bg"/><use transform="matrix(0.07151955525372126,0,0,0.07151955525372126,37.11864917668134,0)" xlink:href="#bh"/><use transform="matrix(0.07151955525372126,0,0,0.07151955525372126,49.992169122351164,0)" xlink:href="#bi"/><use transform="matrix(0.07151955525372126,0,0,0.07151955525372126,64.29608017309542,0)" xlink:href="#bj"/><use transform="matrix(0.07151955525372126,0,0,0.07151955525372126,71.44803569846755,0)" xlink:href="#bk"/></g><path fill="#999" d="M32 76v-337h29V76H32" id="bl"/><use transform="matrix(0.07151955525372126,0,0,0.07151955525372126,0,0)" xlink:href="#bl" id="h"/><path fill="#999" d="M153-248C145-148 188 4 80 4 36 3 13-21 6-62l32-5c4 25 16 42 43 43 27 0 39-20 39-49v-147H72v-28h81" id="bm"/><path fill="#999" d="M179-190L93 31C79 59 56 82 12 73V49c39 6 53-20 64-50L1-190h34L92-34l54-156h33" id="bn"/><g id="i"><use transform="matrix(0.07151955525372126,0,0,0.07151955525372126,0,0)" xlink:href="#bm"/><use transform="matrix(0.07151955525372126,0,0,0.07151955525372126,12.873519945669827,0)" xlink:href="#bg"/><use transform="matrix(0.07151955525372126,0,0,0.07151955525372126,27.17743099641408,0)" xlink:href="#bf"/><use transform="matrix(0.07151955525372126,0,0,0.07151955525372126,32.82747586145806,0)" xlink:href="#bn"/></g><path fill="#999" d="M68-38c1 34 0 65-14 84H32c9-13 17-26 17-46H33v-38h35" id="bo"/><g id="j"><use transform="matrix(0.07151955525372126,0,0,0.07151955525372126,0,0)" xlink:href="#bi"/><use transform="matrix(0.07151955525372126,0,0,0.07151955525372126,14.303911050744253,0)" xlink:href="#bo"/></g><path fill="#999" d="M101-251c82-7 93 87 43 132L82-64C71-53 59-42 53-27h129V0H18c2-99 128-94 128-182 0-28-16-43-45-43s-46 15-49 41l-32-3c6-41 34-60 81-64" id="bp"/><path fill="#999" d="M101-251c68 0 85 55 85 127S166 4 100 4C33 4 14-52 14-124c0-73 17-127 87-127zm-1 229c47 0 54-49 54-102s-4-102-53-102c-51 0-55 48-55 102 0 53 5 102 54 102" id="bq"/><path fill="#999" d="M27 0v-27h64v-190l-56 39v-29l58-41h29v221h61V0H27" id="br"/><path fill="#999" d="M134-131c28 9 52 24 51 62-1 50-34 73-85 73S17-19 16-69c0-36 21-54 49-61-75-25-45-126 34-121 46 3 78 18 79 63 0 33-17 51-44 57zm-34-11c31 1 46-15 46-44 0-28-17-43-47-42-29 0-46 13-45 42 1 28 16 44 46 44zm1 122c35 0 51-18 51-52 0-30-18-46-53-46-33 0-51 17-51 47 0 34 19 51 53 51" id="bs"/><g id="k"><use transform="matrix(0.07151955525372126,0,0,0.07151955525372126,0,0)" xlink:href="#bp"/><use transform="matrix(0.07151955525372126,0,0,0.07151955525372126,14.303911050744253,0)" xlink:href="#bq"/><use transform="matrix(0.07151955525372126,0,0,0.07151955525372126,28.607822101488505,0)" xlink:href="#br"/><use transform="matrix(0.07151955525372126,0,0,0.07151955525372126,42.911733152232756,0)" xlink:href="#bs"/></g><path fill="#333" d="M231 0h-52l-39-155L100 0H48L-1-190h46L77-45c9-52 24-97 36-145h53l37 145 32-145h46" id="bt"/><path fill="#333" d="M185-48c-13 30-37 53-82 52C43 2 14-33 14-96s30-98 90-98c62 0 83 45 84 108H66c0 31 8 55 39 56 18 0 30-7 34-22zm-45-69c5-46-57-63-70-21-2 6-4 13-4 21h74" id="bu"/><path fill="#333" d="M135-194c52 0 70 43 70 98 0 56-19 99-73 100-30 1-46-15-58-35L72 0H24l1-261h50v104c11-23 29-37 60-37zM114-30c31 0 40-27 40-66 0-37-7-63-39-63s-41 28-41 65c0 36 8 64 40 64" id="bv"/><path fill="#333" d="M114-157C55-157 80-60 75 0H25v-261h50l-1 109c12-26 28-41 61-42 86-1 58 113 63 194h-50c-7-57 23-157-34-157" id="bw"/><path fill="#333" d="M110-194c64 0 96 36 96 99 0 64-35 99-97 99-61 0-95-36-95-99 0-62 34-99 96-99zm-1 164c35 0 45-28 45-65 0-40-10-65-43-65-34 0-45 26-45 65 0 36 10 65 43 65" id="bx"/><path fill="#333" d="M147 0L96-86 75-71V0H25v-261h50v150l67-79h53l-66 74L201 0h-54" id="by"/><g id="l"><use transform="matrix(0.057215644202977006,0,0,0.057215644202977006,0,0)" xlink:href="#bt"/><use transform="matrix(0.057215644202977006,0,0,0.057215644202977006,16.02038037683356,0)" xlink:href="#bu"/><use transform="matrix(0.057215644202977006,0,0,0.057215644202977006,27.463509217428964,0)" xlink:href="#bv"/><use transform="matrix(0.057215644202977006,0,0,0.057215644202977006,39.99373529788093,0)" xlink:href="#bw"/><use transform="matrix(0.057215644202977006,0,0,0.057215644202977006,52.5239613783329,0)" xlink:href="#bx"/><use transform="matrix(0.057215644202977006,0,0,0.057215644202977006,65.05418745878487,0)" xlink:href="#bx"/><use transform="matrix(0.057215644202977006,0,0,0.057215644202977006,77.58441353923683,0)" xlink:href="#by"/></g><path fill="#333" d="M84 4C32 4 15-41 15-95c0-55 18-99 73-99 29 0 47 12 58 34l2-30h48l-1 265h-49V-32C136-9 114 4 84 4zm21-34c32 0 41-29 41-66 0-36-9-64-40-64-33 0-39 30-40 65 0 43 13 65 39 65" id="bz"/><path fill="#333" d="M85 4C-2 5 27-109 22-190h50c7 57-23 150 33 157 60-5 35-97 40-157h50l1 190h-47c-2-12 1-28-3-38-12 25-28 42-61 42" id="bA"/><path fill="#333" d="M135-150c-39-12-60 13-60 57V0H25l-1-190h47c2 13-1 29 3 40 6-28 27-53 61-41v41" id="bB"/><path fill="#333" d="M25-224v-37h50v37H25zM25 0v-190h50V0H25" id="bC"/><path fill="#333" d="M137-138c1-29-70-34-71-4 15 46 118 7 119 86 1 83-164 76-172 9l43-7c4 19 20 25 44 25 33 8 57-30 24-41C81-84 22-81 20-136c-2-80 154-74 161-7" id="bD"/><g id="m"><use transform="matrix(0.057215644202977006,0,0,0.057215644202977006,0,0)" xlink:href="#bz"/><use transform="matrix(0.057215644202977006,0,0,0.057215644202977006,12.530226080451964,0)" xlink:href="#bA"/><use transform="matrix(0.057215644202977006,0,0,0.057215644202977006,25.060452160903928,0)" xlink:href="#bu"/><use transform="matrix(0.057215644202977006,0,0,0.057215644202977006,36.50358100149933,0)" xlink:href="#bB"/><use transform="matrix(0.057215644202977006,0,0,0.057215644202977006,44.513771189916106,0)" xlink:href="#bC"/><use transform="matrix(0.057215644202977006,0,0,0.057215644202977006,50.23533561021381,0)" xlink:href="#bu"/><use transform="matrix(0.057215644202977006,0,0,0.057215644202977006,61.678464450809216,0)" xlink:href="#bD"/></g><path fill="#333" d="M169-182c-1-43-94-46-97-3 18 66 151 10 154 114 3 95-165 93-204 36-6-8-10-19-12-30l50-8c3 46 112 56 116 5-17-69-150-10-154-114-4-87 153-88 188-35 5 8 8 18 10 28" id="bE"/><path fill="#333" d="M128 0H69L1-190h53L99-40l48-150h52" id="bF"/><path fill="#333" d="M190-63c-7 42-38 67-86 67-59 0-84-38-90-98-12-110 154-137 174-36l-49 2c-2-19-15-32-35-32-30 0-35 28-38 64-6 74 65 87 74 30" id="bG"/><path fill="#333" d="M175 0L67-191c6 58 2 128 3 191H24v-248h59L193-55c-6-58-2-129-3-193h46V0h-61" id="bH"/><g id="n"><use transform="matrix(0.057215644202977006,0,0,0.057215644202977006,0,0)" xlink:href="#bE"/><use transform="matrix(0.057215644202977006,0,0,0.057215644202977006,13.731754608714482,0)" xlink:href="#bu"/><use transform="matrix(0.057215644202977006,0,0,0.057215644202977006,25.17488344930988,0)" xlink:href="#bB"/><use transform="matrix(0.057215644202977006,0,0,0.057215644202977006,33.18507363772666,0)" xlink:href="#bF"/><use transform="matrix(0.057215644202977006,0,0,0.057215644202977006,44.62820247832206,0)" xlink:href="#bC"/><use transform="matrix(0.057215644202977006,0,0,0.057215644202977006,50.34976689861976,0)" xlink:href="#bG"/><use transform="matrix(0.057215644202977006,0,0,0.057215644202977006,61.79289573921517,0)" xlink:href="#bu"/><use transform="matrix(0.057215644202977006,0,0,0.057215644202977006,73.23602457981056,0)" xlink:href="#bH"/><use transform="matrix(0.057215644202977006,0,0,0.057215644202977006,88.0548764283816,0)" xlink:href="#bx"/><use transform="matrix(0.057215644202977006,0,0,0.057215644202977006,100.58510250883357,0)" xlink:href="#bt"/></g><path fill="#333" d="M135-194c87-1 58 113 63 194h-50c-7-57 23-157-34-157-59 0-34 97-39 157H25l-1-190h47c2 12-1 28 3 38 12-26 28-41 61-42" id="bI"/><path fill="#333" d="M115-3C79 11 28 4 28-45v-112H4v-33h27l15-45h31v45h36v33H77v99c-1 23 16 31 38 25v30" id="bJ"/><path fill="#333" d="M133-34C117-15 103 5 69 4 32 3 11-16 11-54c-1-60 55-63 116-61 1-26-3-47-28-47-18 1-26 9-28 27l-52-2c7-38 36-58 82-57s74 22 75 68l1 82c-1 14 12 18 25 15v27c-30 8-71 5-69-32zm-48 3c29 0 43-24 42-57-32 0-66-3-65 30 0 17 8 27 23 27" id="bK"/><g id="o"><use transform="matrix(0.057215644202977006,0,0,0.057215644202977006,0,0)" xlink:href="#bC"/><use transform="matrix(0.057215644202977006,0,0,0.057215644202977006,5.7215644202977005,0)" xlink:href="#bI"/><use transform="matrix(0.057215644202977006,0,0,0.057215644202977006,18.251790500749664,0)" xlink:href="#bD"/><use transform="matrix(0.057215644202977006,0,0,0.057215644202977006,29.69491934134506,0)" xlink:href="#bJ"/><use transform="matrix(0.057215644202977006,0,0,0.057215644202977006,36.50358100149933,0)" xlink:href="#bK"/><use transform="matrix(0.057215644202977006,0,0,0.057215644202977006,47.94670984209473,0)" xlink:href="#bI"/><use transform="matrix(0.057215644202977006,0,0,0.057215644202977006,60.47693592254668,0)" xlink:href="#bG"/><use transform="matrix(0.057215644202977006,0,0,0.057215644202977006,71.9200647631421,0)" xlink:href="#bu"/></g><path fill="#333" d="M121-226c-27-7-43 5-38 36h38v33H83V0H34v-157H6v-33h28c-9-59 32-81 87-68v32" id="bL"/><g id="p"><use transform="matrix(0.057215644202977006,0,0,0.057215644202977006,0,0)" xlink:href="#bL"/><use transform="matrix(0.057215644202977006,0,0,0.057215644202977006,6.8086616601542636,0)" xlink:href="#bx"/><use transform="matrix(0.057215644202977006,0,0,0.057215644202977006,19.33888774060623,0)" xlink:href="#bB"/></g><path fill="#333" d="M25 0v-261h50V0H25" id="bM"/><path fill="#333" d="M195-6C206 82 75 100 31 46c-4-6-6-13-8-21l49-6c3 16 16 24 34 25 40 0 42-37 40-79-11 22-30 35-61 35-53 0-70-43-70-97 0-56 18-96 73-97 30 0 46 14 59 34l2-30h47zm-90-29c32 0 41-27 41-63 0-35-9-62-40-62-32 0-39 29-40 63 0 36 9 62 39 62" id="bN"/><g id="q"><use transform="matrix(0.057215644202977006,0,0,0.057215644202977006,0,0)" xlink:href="#bG"/><use transform="matrix(0.057215644202977006,0,0,0.057215644202977006,11.443128840595401,0)" xlink:href="#bK"/><use transform="matrix(0.057215644202977006,0,0,0.057215644202977006,22.886257681190802,0)" xlink:href="#bJ"/><use transform="matrix(0.057215644202977006,0,0,0.057215644202977006,29.694919341345066,0)" xlink:href="#bK"/><use transform="matrix(0.057215644202977006,0,0,0.057215644202977006,41.13804818194047,0)" xlink:href="#bM"/><use transform="matrix(0.057215644202977006,0,0,0.057215644202977006,46.85961260223817,0)" xlink:href="#bx"/><use transform="matrix(0.057215644202977006,0,0,0.057215644202977006,59.38983868269015,0)" xlink:href="#bN"/></g><path fill="#333" d="M220-157c-53 9-28 100-34 157h-49v-107c1-27-5-49-29-50C55-147 81-57 75 0H25l-1-190h47c2 12-1 28 3 38 10-53 101-56 108 0 13-22 24-43 59-42 82 1 51 116 57 194h-49v-107c-1-25-5-48-29-50" id="bO"/><g id="r"><use transform="matrix(0.057215644202977006,0,0,0.057215644202977006,0,0)" xlink:href="#bC"/><use transform="matrix(0.057215644202977006,0,0,0.057215644202977006,5.7215644202977005,0)" xlink:href="#bJ"/><use transform="matrix(0.057215644202977006,0,0,0.057215644202977006,12.530226080451964,0)" xlink:href="#bu"/><use transform="matrix(0.057215644202977006,0,0,0.057215644202977006,23.973354921047367,0)" xlink:href="#bO"/></g><g id="s"><use transform="matrix(0.057215644202977006,0,0,0.057215644202977006,0,0)" xlink:href="#bJ"/><use transform="matrix(0.057215644202977006,0,0,0.057215644202977006,6.8086616601542636,0)" xlink:href="#bw"/><use transform="matrix(0.057215644202977006,0,0,0.057215644202977006,19.33888774060623,0)" xlink:href="#bK"/><use transform="matrix(0.057215644202977006,0,0,0.057215644202977006,30.782016581201628,0)" xlink:href="#bJ"/></g><g id="t"><use transform="matrix(0.057215644202977006,0,0,0.057215644202977006,0,0)" xlink:href="#bO"/><use transform="matrix(0.057215644202977006,0,0,0.057215644202977006,18.30900614495264,0)" xlink:href="#bK"/><use transform="matrix(0.057215644202977006,0,0,0.057215644202977006,29.752134985548036,0)" xlink:href="#bJ"/><use transform="matrix(0.057215644202977006,0,0,0.057215644202977006,36.560796645702304,0)" xlink:href="#bG"/><use transform="matrix(0.057215644202977006,0,0,0.057215644202977006,48.0039254862977,0)" xlink:href="#bw"/><use transform="matrix(0.057215644202977006,0,0,0.057215644202977006,60.53415156674967,0)" xlink:href="#bu"/><use transform="matrix(0.057215644202977006,0,0,0.057215644202977006,71.97728040734508,0)" xlink:href="#bD"/></g><path fill="#333" d="M135-194c53 0 70 44 70 98 0 56-19 98-73 100-31 1-45-17-59-34 3 33 2 69 2 105H25l-1-265h48c2 10 0 23 3 31 11-24 29-35 60-35zM114-30c33 0 39-31 40-66 0-38-9-64-40-64-56 0-55 130 0 130" id="bP"/><path fill="#333" d="M25-224v-37h50v37H25zM75 22c2 45-34 59-81 51V38c22 5 31-5 31-27v-201h50V22" id="bQ"/><g id="u"><use transform="matrix(0.057215644202977006,0,0,0.057215644202977006,0,0)" xlink:href="#bP"/><use transform="matrix(0.057215644202977006,0,0,0.057215644202977006,12.530226080451964,0)" xlink:href="#bB"/><use transform="matrix(0.057215644202977006,0,0,0.057215644202977006,20.540416268868746,0)" xlink:href="#bx"/><use transform="matrix(0.057215644202977006,0,0,0.057215644202977006,33.07064234932071,0)" xlink:href="#bQ"/><use transform="matrix(0.057215644202977006,0,0,0.057215644202977006,38.79220676961841,0)" xlink:href="#bu"/><use transform="matrix(0.057215644202977006,0,0,0.057215644202977006,50.23533561021381,0)" xlink:href="#bG"/><use transform="matrix(0.057215644202977006,0,0,0.057215644202977006,61.678464450809216,0)" xlink:href="#bJ"/></g><g id="v"><use transform="matrix(0.057215644202977006,0,0,0.057215644202977006,0,0)" xlink:href="#bI"/><use transform="matrix(0.057215644202977006,0,0,0.057215644202977006,12.530226080451964,0)" xlink:href="#bK"/><use transform="matrix(0.057215644202977006,0,0,0.057215644202977006,23.973354921047367,0)" xlink:href="#bO"/><use transform="matrix(0.057215644202977006,0,0,0.057215644202977006,42.28236106600001,0)" xlink:href="#bu"/></g><path fill="#333" d="M275 0h-61l-44-196L126 0H64L0-248h53L97-49l45-199h58l43 199 44-199h52" id="bR"/><g id="w"><use transform="matrix(0.057215644202977006,0,0,0.057215644202977006,0,0)" xlink:href="#bR"/><use transform="matrix(0.057215644202977006,0,0,0.057215644202977006,18.995593875388366,0)" xlink:href="#bu"/><use transform="matrix(0.057215644202977006,0,0,0.057215644202977006,30.43872271598377,0)" xlink:href="#bv"/><use transform="matrix(0.057215644202977006,0,0,0.057215644202977006,42.968948796435726,0)" xlink:href="#bw"/><use transform="matrix(0.057215644202977006,0,0,0.057215644202977006,55.49917487688769,0)" xlink:href="#bx"/><use transform="matrix(0.057215644202977006,0,0,0.057215644202977006,68.02940095733966,0)" xlink:href="#bx"/><use transform="matrix(0.057215644202977006,0,0,0.057215644202977006,80.55962703779163,0)" xlink:href="#by"/></g><path fill="#333" d="M88-194c31-1 46 15 58 34l-1-101h50l1 261h-48c-2-10 0-23-3-31C134-8 116 4 84 4 32 4 16-41 15-95c0-56 19-97 73-99zm17 164c33 0 40-30 41-66 1-37-9-64-41-64s-38 30-39 65c0 43 13 65 39 65" id="bS"/><g id="x"><use transform="matrix(0.057215644202977006,0,0,0.057215644202977006,0,0)" xlink:href="#bJ"/><use transform="matrix(0.057215644202977006,0,0,0.057215644202977006,6.8086616601542636,0)" xlink:href="#bB"/><use transform="matrix(0.057215644202977006,0,0,0.057215644202977006,14.818851848571045,0)" xlink:href="#bC"/><use transform="matrix(0.057215644202977006,0,0,0.057215644202977006,20.540416268868743,0)" xlink:href="#bN"/><use transform="matrix(0.057215644202977006,0,0,0.057215644202977006,33.07064234932071,0)" xlink:href="#bN"/><use transform="matrix(0.057215644202977006,0,0,0.057215644202977006,45.600868429772675,0)" xlink:href="#bu"/><use transform="matrix(0.057215644202977006,0,0,0.057215644202977006,57.043997270368074,0)" xlink:href="#bB"/><use transform="matrix(0.057215644202977006,0,0,0.057215644202977006,65.05418745878485,0)" xlink:href="#bu"/><use transform="matrix(0.057215644202977006,0,0,0.057215644202977006,76.49731629938026,0)" xlink:href="#bS"/></g><g id="y"><use transform="matrix(0.057215644202977006,0,0,0.057215644202977006,0,0)" xlink:href="#bF"/><use transform="matrix(0.057215644202977006,0,0,0.057215644202977006,11.443128840595401,0)" xlink:href="#bC"/><use transform="matrix(0.057215644202977006,0,0,0.057215644202977006,17.164693260893102,0)" xlink:href="#bK"/></g><path fill="#333" d="M147 0H94L2-248h55l64 206c17-72 42-137 63-206h54" id="bT"/><path fill="#333" d="M67-125c0 53 21 87 73 88 37 1 54-22 65-47l45 17C233-25 199 4 140 4 58 4 20-42 15-125 8-235 124-281 211-232c18 10 29 29 36 50l-46 12c-8-25-30-41-62-41-52 0-71 34-72 86" id="bU"/><g id="z"><use transform="matrix(0.057215644202977006,0,0,0.057215644202977006,0,0)" xlink:href="#bE"/><use transform="matrix(0.057215644202977006,0,0,0.057215644202977006,13.731754608714482,0)" xlink:href="#bT"/><use transform="matrix(0.057215644202977006,0,0,0.057215644202977006,27.463509217428964,0)" xlink:href="#bU"/></g><path fill="#333" d="M67-93c0 74 22 123 53 168H70C40 30 18-18 18-93s22-123 52-168h50c-32 44-53 94-53 168" id="bV"/><path fill="#333" d="M67-125c0 54 23 88 75 88 28 0 53-7 68-21v-34h-60v-39h108v91C232-14 192 4 140 4 58 4 20-42 15-125 8-236 126-280 215-234c19 10 29 26 37 47l-47 15c-11-23-29-39-63-39-53 1-75 33-75 86" id="bW"/><path fill="#333" d="M102-93c0 74-22 123-52 168H0C30 29 54-18 53-93c0-74-22-123-53-168h50c30 45 52 94 52 168" id="bX"/><g id="A"><use transform="matrix(0.057215644202977006,0,0,0.057215644202977006,0,0)" xlink:href="#bV"/><use transform="matrix(0.057215644202977006,0,0,0.057215644202977006,6.8086616601542636,0)" xlink:href="#bW"/><use transform="matrix(0.057215644202977006,0,0,0.057215644202977006,22.829042036987826,0)" xlink:href="#bC"/><use transform="matrix(0.057215644202977006,0,0,0.057215644202977006,28.550606457285525,0)" xlink:href="#bJ"/><use transform="matrix(0.057215644202977006,0,0,0.057215644202977006,35.35926811743979,0)" xlink:href="#bM"/><use transform="matrix(0.057215644202977006,0,0,0.057215644202977006,41.08083253773749,0)" xlink:href="#bK"/><use transform="matrix(0.057215644202977006,0,0,0.057215644202977006,52.52396137833289,0)" xlink:href="#bv"/><use transform="matrix(0.057215644202977006,0,0,0.057215644202977006,65.05418745878485,0)" xlink:href="#bX"/></g><g id="B"><use transform="matrix(0.057215644202977006,0,0,0.057215644202977006,0,0)" xlink:href="#bJ"/><use transform="matrix(0.057215644202977006,0,0,0.057215644202977006,6.8086616601542636,0)" xlink:href="#bK"/><use transform="matrix(0.057215644202977006,0,0,0.057215644202977006,18.251790500749664,0)" xlink:href="#bN"/></g><g id="C"><use transform="matrix(0.057215644202977006,0,0,0.057215644202977006,0,0)" xlink:href="#bA"/><use transform="matrix(0.057215644202977006,0,0,0.057215644202977006,12.530226080451964,0)" xlink:href="#bP"/><use transform="matrix(0.057215644202977006,0,0,0.057215644202977006,25.060452160903928,0)" xlink:href="#bS"/><use transform="matrix(0.057215644202977006,0,0,0.057215644202977006,37.59067824135589,0)" xlink:href="#bK"/><use transform="matrix(0.057215644202977006,0,0,0.057215644202977006,49.03380708195129,0)" xlink:href="#bJ"/><use transform="matrix(0.057215644202977006,0,0,0.057215644202977006,55.84246874210555,0)" xlink:href="#bu"/></g><g id="D"><use transform="matrix(0.057215644202977006,0,0,0.057215644202977006,0,0)" xlink:href="#bB"/><use transform="matrix(0.057215644202977006,0,0,0.057215644202977006,8.01019018841678,0)" xlink:href="#bu"/><use transform="matrix(0.057215644202977006,0,0,0.057215644202977006,19.45331902901218,0)" xlink:href="#bP"/><use transform="matrix(0.057215644202977006,0,0,0.057215644202977006,31.983545109464146,0)" xlink:href="#bx"/></g><g id="E"><use transform="matrix(0.057215644202977006,0,0,0.057215644202977006,0,0)" xlink:href="#bJ"/><use transform="matrix(0.057215644202977006,0,0,0.057215644202977006,6.8086616601542636,0)" xlink:href="#bK"/><use transform="matrix(0.057215644202977006,0,0,0.057215644202977006,18.251790500749664,0)" xlink:href="#bN"/></g><g id="F"><use transform="matrix(0.057215644202977006,0,0,0.057215644202977006,0,0)" xlink:href="#bK"/><use transform="matrix(0.057215644202977006,0,0,0.057215644202977006,11.443128840595401,0)" xlink:href="#bI"/><use transform="matrix(0.057215644202977006,0,0,0.057215644202977006,23.973354921047367,0)" xlink:href="#bS"/></g><g id="G"><use transform="matrix(0.057215644202977006,0,0,0.057215644202977006,0,0)" xlink:href="#bI"/><use transform="matrix(0.057215644202977006,0,0,0.057215644202977006,12.530226080451964,0)" xlink:href="#bK"/><use transform="matrix(0.057215644202977006,0,0,0.057215644202977006,23.973354921047367,0)" xlink:href="#bO"/><use transform="matrix(0.057215644202977006,0,0,0.057215644202977006,42.28236106600001,0)" xlink:href="#bu"/></g><path fill="#333" d="M144 0l-44-69L55 0H2l70-98-66-92h53l41 62 40-62h54l-67 91 71 99h-54" id="bY"/><g id="H"><use transform="matrix(0.057215644202977006,0,0,0.057215644202977006,0,0)" xlink:href="#bu"/><use transform="matrix(0.057215644202977006,0,0,0.057215644202977006,11.443128840595401,0)" xlink:href="#bY"/><use transform="matrix(0.057215644202977006,0,0,0.057215644202977006,22.886257681190802,0)" xlink:href="#bJ"/><use transform="matrix(0.057215644202977006,0,0,0.057215644202977006,29.694919341345066,0)" xlink:href="#bB"/><use transform="matrix(0.057215644202977006,0,0,0.057215644202977006,37.70510952976185,0)" xlink:href="#bK"/><use transform="matrix(0.057215644202977006,0,0,0.057215644202977006,49.14823837035725,0)" xlink:href="#bG"/><use transform="matrix(0.057215644202977006,0,0,0.057215644202977006,60.59136721095265,0)" xlink:href="#bJ"/><use transform="matrix(0.057215644202977006,0,0,0.057215644202977006,67.40002887110691,0)" xlink:href="#bu"/><use transform="matrix(0.057215644202977006,0,0,0.057215644202977006,78.84315771170232,0)" xlink:href="#bS"/></g><g id="I"><use transform="matrix(0.057215644202977006,0,0,0.057215644202977006,0,0)" xlink:href="#bL"/><use transform="matrix(0.057215644202977006,0,0,0.057215644202977006,6.8086616601542636,0)" xlink:href="#bB"/><use transform="matrix(0.057215644202977006,0,0,0.057215644202977006,14.818851848571045,0)" xlink:href="#bx"/><use transform="matrix(0.057215644202977006,0,0,0.057215644202977006,27.349077929023007,0)" xlink:href="#bO"/></g><g id="J"><use transform="matrix(0.057215644202977006,0,0,0.057215644202977006,0,0)" xlink:href="#bB"/><use transform="matrix(0.057215644202977006,0,0,0.057215644202977006,8.01019018841678,0)" xlink:href="#bu"/><use transform="matrix(0.057215644202977006,0,0,0.057215644202977006,19.45331902901218,0)" xlink:href="#bz"/><use transform="matrix(0.057215644202977006,0,0,0.057215644202977006,31.983545109464146,0)" xlink:href="#bA"/><use transform="matrix(0.057215644202977006,0,0,0.057215644202977006,44.51377118991611,0)" xlink:href="#bu"/><use transform="matrix(0.057215644202977006,0,0,0.057215644202977006,55.95690003051151,0)" xlink:href="#bD"/><use transform="matrix(0.057215644202977006,0,0,0.057215644202977006,67.40002887110691,0)" xlink:href="#bJ"/></g><path fill="#333" d="M123 10C108 53 80 86 19 72V37c35 8 53-11 59-39L3-190h52l48 148c12-52 28-100 44-148h51" id="bZ"/><g id="K"><use transform="matrix(0.057215644202977006,0,0,0.057215644202977006,0,0)" xlink:href="#bv"/><use transform="matrix(0.057215644202977006,0,0,0.057215644202977006,12.530226080451964,0)" xlink:href="#bx"/><use transform="matrix(0.057215644202977006,0,0,0.057215644202977006,25.060452160903928,0)" xlink:href="#bS"/><use transform="matrix(0.057215644202977006,0,0,0.057215644202977006,37.59067824135589,0)" xlink:href="#bZ"/></g><path d="M212-179c-10-28-35-45-73-45-59 0-87 40-87 99 0 60 29 101 89 101 43 0 62-24 78-52l27 14C228-24 195 4 139 4 59 4 22-46 18-125c-6-104 99-153 187-111 19 9 31 26 39 46" id="ca"/><path d="M141-36C126-15 110 5 73 4 37 3 15-17 15-53c-1-64 63-63 125-63 3-35-9-54-41-54-24 1-41 7-42 31l-33-3c5-37 33-52 76-52 45 0 72 20 72 64v82c-1 20 7 32 28 27v20c-31 9-61-2-59-35zM48-53c0 20 12 33 32 33 41-3 63-29 60-74-43 2-92-5-92 41" id="cb"/><path d="M59-47c-2 24 18 29 38 22v24C64 9 27 4 27-40v-127H5v-23h24l9-43h21v43h35v23H59v120" id="cc"/><path d="M24 0v-261h32V0H24" id="cd"/><path d="M100-194c62-1 85 37 85 99 1 63-27 99-86 99S16-35 15-95c0-66 28-99 85-99zM99-20c44 1 53-31 53-75 0-43-8-75-51-75s-53 32-53 75 10 74 51 75" id="ce"/><path d="M177-190C167-65 218 103 67 71c-23-6-38-20-44-43l32-5c15 47 100 32 89-28v-30C133-14 115 1 83 1 29 1 15-40 15-95c0-56 16-97 71-98 29-1 48 16 59 35 1-10 0-23 2-32h30zM94-22c36 0 50-32 50-73 0-42-14-75-50-75-39 0-46 34-46 75s6 73 46 73" id="cf"/><g id="L"><use transform="matrix(0.057215644202977006,0,0,0.057215644202977006,0,0)" xlink:href="#ca"/><use transform="matrix(0.057215644202977006,0,0,0.057215644202977006,14.818851848571045,0)" xlink:href="#cb"/><use transform="matrix(0.057215644202977006,0,0,0.057215644202977006,26.261980689166446,0)" xlink:href="#cc"/><use transform="matrix(0.057215644202977006,0,0,0.057215644202977006,31.983545109464146,0)" xlink:href="#cb"/><use transform="matrix(0.057215644202977006,0,0,0.057215644202977006,43.426673950059545,0)" xlink:href="#cd"/><use transform="matrix(0.057215644202977006,0,0,0.057215644202977006,47.94670984209473,0)" xlink:href="#ce"/><use transform="matrix(0.057215644202977006,0,0,0.057215644202977006,59.38983868269012,0)" xlink:href="#cf"/></g><path d="M24-231v-30h32v30H24zM24 0v-190h32V0H24" id="cg"/><path d="M100-194c63 0 86 42 84 106H49c0 40 14 67 53 68 26 1 43-12 49-29l28 8c-11 28-37 45-77 45C44 4 14-33 15-96c1-61 26-98 85-98zm52 81c6-60-76-77-97-28-3 7-6 17-6 28h103" id="ch"/><path d="M210-169c-67 3-38 105-44 169h-31v-121c0-29-5-50-35-48C34-165 62-65 56 0H25l-1-190h30c1 10-1 24 2 32 10-44 99-50 107 0 11-21 27-35 58-36 85-2 47 119 55 194h-31v-121c0-29-5-49-35-48" id="ci"/><g id="M"><use transform="matrix(0.057215644202977006,0,0,0.057215644202977006,0,0)" xlink:href="#cg"/><use transform="matrix(0.057215644202977006,0,0,0.057215644202977006,4.5200358920351835,0)" xlink:href="#cc"/><use transform="matrix(0.057215644202977006,0,0,0.057215644202977006,10.241600312332885,0)" xlink:href="#ch"/><use transform="matrix(0.057215644202977006,0,0,0.057215644202977006,21.684729152928284,0)" xlink:href="#ci"/></g><path d="M30 0v-248h187v28H63v79h144v27H63v87h162V0H30" id="cj"/><path d="M141 0L90-78 38 0H4l68-98-65-92h35l48 74 47-74h35l-64 92 68 98h-35" id="ck"/><path d="M135-143c-3-34-86-38-87 0 15 53 115 12 119 90S17 21 10-45l28-5c4 36 97 45 98 0-10-56-113-15-118-90-4-57 82-63 122-42 12 7 21 19 24 35" id="cl"/><g id="N"><use transform="matrix(0.057215644202977006,0,0,0.057215644202977006,0,0)" xlink:href="#cj"/><use transform="matrix(0.057215644202977006,0,0,0.057215644202977006,13.731754608714482,0)" xlink:href="#ck"/><use transform="matrix(0.057215644202977006,0,0,0.057215644202977006,24.030570565250343,0)" xlink:href="#cg"/><use transform="matrix(0.057215644202977006,0,0,0.057215644202977006,28.550606457285525,0)" xlink:href="#cl"/><use transform="matrix(0.057215644202977006,0,0,0.057215644202977006,38.84942241382139,0)" xlink:href="#cc"/><use transform="matrix(0.057215644202977006,0,0,0.057215644202977006,44.57098683411909,0)" xlink:href="#cl"/></g><path d="M114-163C36-179 61-72 57 0H25l-1-190h30c1 12-1 29 2 39 6-27 23-49 58-41v29" id="cm"/><path d="M115-194c55 1 70 41 70 98S169 2 115 4C84 4 66-9 55-30l1 105H24l-1-265h31l2 30c10-21 28-34 59-34zm-8 174c40 0 45-34 45-75s-6-73-45-74c-42 0-51 32-51 76 0 43 10 73 51 73" id="cn"/><g id="O"><use transform="matrix(0.057215644202977006,0,0,0.057215644202977006,0,0)" xlink:href="#cm"/><use transform="matrix(0.057215644202977006,0,0,0.057215644202977006,6.8086616601542636,0)" xlink:href="#ch"/><use transform="matrix(0.057215644202977006,0,0,0.057215644202977006,18.251790500749664,0)" xlink:href="#cn"/><use transform="matrix(0.057215644202977006,0,0,0.057215644202977006,29.69491934134506,0)" xlink:href="#ce"/></g><path d="M108 0H70L1-190h34L89-25l56-165h34" id="co"/><path d="M117-194c89-4 53 116 60 194h-32v-121c0-31-8-49-39-48C34-167 62-67 57 0H25l-1-190h30c1 10-1 24 2 32 11-22 29-35 61-36" id="cp"/><g id="P"><use transform="matrix(0.057215644202977006,0,0,0.057215644202977006,0,0)" xlink:href="#co"/><use transform="matrix(0.057215644202977006,0,0,0.057215644202977006,10.298815956535861,0)" xlink:href="#ch"/><use transform="matrix(0.057215644202977006,0,0,0.057215644202977006,21.74194479713126,0)" xlink:href="#cm"/><use transform="matrix(0.057215644202977006,0,0,0.057215644202977006,28.550606457285525,0)" xlink:href="#cl"/><use transform="matrix(0.057215644202977006,0,0,0.057215644202977006,38.84942241382139,0)" xlink:href="#cg"/><use transform="matrix(0.057215644202977006,0,0,0.057215644202977006,43.36945830585657,0)" xlink:href="#ce"/><use transform="matrix(0.057215644202977006,0,0,0.057215644202977006,54.81258714645197,0)" xlink:href="#cp"/></g><path d="M18-27v-27l151-64-151-65v-27l175 74v36" id="cq"/><use transform="matrix(0.057215644202977006,0,0,0.057215644202977006,0,0)" xlink:href="#cq" id="Q"/><path d="M185-189c-5-48-123-54-124 2 14 75 158 14 163 119 3 78-121 87-175 55-17-10-28-26-33-46l33-7c5 56 141 63 141-1 0-78-155-14-162-118-5-82 145-84 179-34 5 7 8 16 11 25" id="cr"/><path d="M190 0L58-211 59 0H30v-248h39L202-35l-2-213h31V0h-41" id="cs"/><g id="R"><use transform="matrix(0.057215644202977006,0,0,0.057215644202977006,0,0)" xlink:href="#cr"/><use transform="matrix(0.057215644202977006,0,0,0.057215644202977006,13.731754608714482,0)" xlink:href="#cs"/></g><path d="M96-169c-40 0-48 33-48 73s9 75 48 75c24 0 41-14 43-38l32 2c-6 37-31 61-74 61-59 0-76-41-82-99-10-93 101-131 147-64 4 7 5 14 7 22l-32 3c-4-21-16-35-41-35" id="ct"/><g id="S"><use transform="matrix(0.057215644202977006,0,0,0.057215644202977006,0,0)" xlink:href="#ct"/><use transform="matrix(0.057215644202977006,0,0,0.057215644202977006,10.298815956535861,0)" xlink:href="#cb"/><use transform="matrix(0.057215644202977006,0,0,0.057215644202977006,21.74194479713126,0)" xlink:href="#cc"/></g><g id="T"><use transform="matrix(0.057215644202977006,0,0,0.057215644202977006,0,0)" xlink:href="#co"/><use transform="matrix(0.057215644202977006,0,0,0.057215644202977006,10.298815956535861,0)" xlink:href="#ch"/><use transform="matrix(0.057215644202977006,0,0,0.057215644202977006,21.74194479713126,0)" xlink:href="#cm"/><use transform="matrix(0.057215644202977006,0,0,0.057215644202977006,28.550606457285525,0)" xlink:href="#cl"/><use transform="matrix(0.057215644202977006,0,0,0.057215644202977006,38.84942241382139,0)" xlink:href="#cg"/><use transform="matrix(0.057215644202977006,0,0,0.057215644202977006,43.36945830585657,0)" xlink:href="#ce"/><use transform="matrix(0.057215644202977006,0,0,0.057215644202977006,54.81258714645197,0)" xlink:href="#cp"/></g><g id="U"><use transform="matrix(0.057215644202977006,0,0,0.057215644202977006,0,0)" xlink:href="#bU"/><use transform="matrix(0.057215644202977006,0,0,0.057215644202977006,14.818851848571045,0)" xlink:href="#bB"/><use transform="matrix(0.057215644202977006,0,0,0.057215644202977006,22.829042036987826,0)" xlink:href="#bu"/><use transform="matrix(0.057215644202977006,0,0,0.057215644202977006,34.27217087758323,0)" xlink:href="#bK"/><use transform="matrix(0.057215644202977006,0,0,0.057215644202977006,45.71529971817863,0)" xlink:href="#bJ"/><use transform="matrix(0.057215644202977006,0,0,0.057215644202977006,52.52396137833289,0)" xlink:href="#bu"/></g><g id="V"><use transform="matrix(0.057215644202977006,0,0,0.057215644202977006,0,0)" xlink:href="#bE"/><use transform="matrix(0.057215644202977006,0,0,0.057215644202977006,13.731754608714482,0)" xlink:href="#bH"/></g><g id="W"><use transform="matrix(0.057215644202977006,0,0,0.057215644202977006,0,0)" xlink:href="#bC"/><use transform="matrix(0.057215644202977006,0,0,0.057215644202977006,5.7215644202977005,0)" xlink:href="#bJ"/><use transform="matrix(0.057215644202977006,0,0,0.057215644202977006,12.530226080451964,0)" xlink:href="#bu"/><use transform="matrix(0.057215644202977006,0,0,0.057215644202977006,23.973354921047367,0)" xlink:href="#bO"/></g><path fill="#333" d="M24 0v-248h195v40H76v63h132v40H76v65h150V0H24" id="cu"/><path fill="#333" d="M24-248c120-7 223 5 221 122C244-46 201 0 124 0H24v-248zM76-40c74 7 117-18 117-86 0-67-45-88-117-82v168" id="cv"/><g id="X"><use transform="matrix(0.057215644202977006,0,0,0.057215644202977006,0,0)" xlink:href="#cu"/><use transform="matrix(0.057215644202977006,0,0,0.057215644202977006,13.731754608714482,0)" xlink:href="#bH"/><use transform="matrix(0.057215644202977006,0,0,0.057215644202977006,28.550606457285525,0)" xlink:href="#cv"/></g><path d="M140-251c81 0 123 46 123 126C263-46 219 4 140 4 59 4 17-45 17-125s42-126 123-126zm0 227c63 0 89-41 89-101s-29-99-89-99c-61 0-89 39-89 99S79-25 140-24" id="cw"/><g id="Y"><use transform="matrix(0.05,0,0,0.05,0,0)" xlink:href="#cs"/><use transform="matrix(0.05,0,0,0.05,12.950000000000001,0)" xlink:href="#cw"/></g><path d="M137-103V0h-34v-103L8-248h37l75 118 75-118h37" id="cx"/><g id="Z"><use transform="matrix(0.05,0,0,0.05,0,0)" xlink:href="#cx"/><use transform="matrix(0.05,0,0,0.05,12,0)" xlink:href="#cj"/><use transform="matrix(0.05,0,0,0.05,24,0)" xlink:href="#cr"/></g><g id="aa"><use transform="matrix(0.057215644202977006,0,0,0.057215644202977006,0,0)" xlink:href="#bN"/><use transform="matrix(0.057215644202977006,0,0,0.057215644202977006,12.530226080451964,0)" xlink:href="#bC"/><use transform="matrix(0.057215644202977006,0,0,0.057215644202977006,18.251790500749664,0)" xlink:href="#bJ"/></g><g id="ab"><use transform="matrix(0.057215644202977006,0,0,0.057215644202977006,0,0)" xlink:href="#bG"/><use transform="matrix(0.057215644202977006,0,0,0.057215644202977006,11.443128840595401,0)" xlink:href="#bM"/><use transform="matrix(0.057215644202977006,0,0,0.057215644202977006,17.164693260893102,0)" xlink:href="#bx"/><use transform="matrix(0.057215644202977006,0,0,0.057215644202977006,29.694919341345066,0)" xlink:href="#bI"/><use transform="matrix(0.057215644202977006,0,0,0.057215644202977006,42.22514542179703,0)" xlink:href="#bu"/></g><g id="ac"><use transform="matrix(0.057215644202977006,0,0,0.057215644202977006,0,0)" xlink:href="#bD"/><use transform="matrix(0.057215644202977006,0,0,0.057215644202977006,11.443128840595401,0)" xlink:href="#bx"/><use transform="matrix(0.057215644202977006,0,0,0.057215644202977006,23.973354921047367,0)" xlink:href="#bA"/><use transform="matrix(0.057215644202977006,0,0,0.057215644202977006,36.50358100149933,0)" xlink:href="#bB"/><use transform="matrix(0.057215644202977006,0,0,0.057215644202977006,44.513771189916106,0)" xlink:href="#bG"/><use transform="matrix(0.057215644202977006,0,0,0.057215644202977006,55.956900030511505,0)" xlink:href="#bu"/></g><g id="ad"><use transform="matrix(0.057215644202977006,0,0,0.057215644202977006,0,0)" xlink:href="#bB"/><use transform="matrix(0.057215644202977006,0,0,0.057215644202977006,8.01019018841678,0)" xlink:href="#bu"/><use transform="matrix(0.057215644202977006,0,0,0.057215644202977006,19.45331902901218,0)" xlink:href="#bP"/><use transform="matrix(0.057215644202977006,0,0,0.057215644202977006,31.983545109464146,0)" xlink:href="#bx"/></g><g id="ae"><use transform="matrix(0.057215644202977006,0,0,0.057215644202977006,0,0)" xlink:href="#bJ"/><use transform="matrix(0.057215644202977006,0,0,0.057215644202977006,6.8086616601542636,0)" xlink:href="#bx"/></g><g id="af"><use transform="matrix(0.057215644202977006,0,0,0.057215644202977006,0,0)" xlink:href="#bt"/><use transform="matrix(0.057215644202977006,0,0,0.057215644202977006,16.02038037683356,0)" xlink:href="#bu"/><use transform="matrix(0.057215644202977006,0,0,0.057215644202977006,27.463509217428964,0)" xlink:href="#bv"/><use transform="matrix(0.057215644202977006,0,0,0.057215644202977006,39.99373529788093,0)" xlink:href="#bw"/><use transform="matrix(0.057215644202977006,0,0,0.057215644202977006,52.5239613783329,0)" xlink:href="#bx"/><use transform="matrix(0.057215644202977006,0,0,0.057215644202977006,65.05418745878487,0)" xlink:href="#bx"/><use transform="matrix(0.057215644202977006,0,0,0.057215644202977006,77.58441353923683,0)" xlink:href="#by"/></g><g id="ag"><use transform="matrix(0.057215644202977006,0,0,0.057215644202977006,0,0)" xlink:href="#bC"/><use transform="matrix(0.057215644202977006,0,0,0.057215644202977006,5.7215644202977005,0)" xlink:href="#bI"/><use transform="matrix(0.057215644202977006,0,0,0.057215644202977006,18.251790500749664,0)" xlink:href="#bD"/><use transform="matrix(0.057215644202977006,0,0,0.057215644202977006,29.69491934134506,0)" xlink:href="#bJ"/><use transform="matrix(0.057215644202977006,0,0,0.057215644202977006,36.50358100149933,0)" xlink:href="#bK"/><use transform="matrix(0.057215644202977006,0,0,0.057215644202977006,47.94670984209473,0)" xlink:href="#bI"/><use transform="matrix(0.057215644202977006,0,0,0.057215644202977006,60.47693592254668,0)" xlink:href="#bG"/><use transform="matrix(0.057215644202977006,0,0,0.057215644202977006,71.9200647631421,0)" xlink:href="#bu"/></g><g id="ah"><use transform="matrix(0.057215644202977006,0,0,0.057215644202977006,0,0)" xlink:href="#bG"/><use transform="matrix(0.057215644202977006,0,0,0.057215644202977006,11.443128840595401,0)" xlink:href="#bw"/><use transform="matrix(0.057215644202977006,0,0,0.057215644202977006,23.973354921047367,0)" xlink:href="#bu"/><use transform="matrix(0.057215644202977006,0,0,0.057215644202977006,35.416483761642766,0)" xlink:href="#bG"/><use transform="matrix(0.057215644202977006,0,0,0.057215644202977006,46.859612602238165,0)" xlink:href="#by"/></g><g id="ai"><use transform="matrix(0.057215644202977006,0,0,0.057215644202977006,0,0)" xlink:href="#bL"/><use transform="matrix(0.057215644202977006,0,0,0.057215644202977006,6.8086616601542636,0)" xlink:href="#bx"/><use transform="matrix(0.057215644202977006,0,0,0.057215644202977006,19.33888774060623,0)" xlink:href="#bB"/></g><path fill="#333" d="M24 0v-54h51V0H24" id="cy"/><g id="aj"><use transform="matrix(0.057215644202977006,0,0,0.057215644202977006,0,0)" xlink:href="#bJ"/><use transform="matrix(0.057215644202977006,0,0,0.057215644202977006,6.8086616601542636,0)" xlink:href="#bL"/><use transform="matrix(0.057215644202977006,0,0,0.057215644202977006,13.617323320308527,0)" xlink:href="#cy"/><use transform="matrix(0.057215644202977006,0,0,0.057215644202977006,19.33888774060623,0)" xlink:href="#bF"/><use transform="matrix(0.057215644202977006,0,0,0.057215644202977006,30.782016581201628,0)" xlink:href="#bK"/><use transform="matrix(0.057215644202977006,0,0,0.057215644202977006,42.22514542179703,0)" xlink:href="#bB"/><use transform="matrix(0.057215644202977006,0,0,0.057215644202977006,50.23533561021381,0)" xlink:href="#bD"/></g><g id="ak"><use transform="matrix(0.057215644202977006,0,0,0.057215644202977006,0,0)" xlink:href="#bJ"/><use transform="matrix(0.057215644202977006,0,0,0.057215644202977006,6.8086616601542636,0)" xlink:href="#bL"/><use transform="matrix(0.057215644202977006,0,0,0.057215644202977006,13.617323320308527,0)" xlink:href="#cy"/><use transform="matrix(0.057215644202977006,0,0,0.057215644202977006,19.33888774060623,0)" xlink:href="#bO"/><use transform="matrix(0.057215644202977006,0,0,0.057215644202977006,37.64789388555887,0)" xlink:href="#bK"/><use transform="matrix(0.057215644202977006,0,0,0.057215644202977006,49.09102272615427,0)" xlink:href="#bC"/><use transform="matrix(0.057215644202977006,0,0,0.057215644202977006,54.812587146451975,0)" xlink:href="#bI"/></g><g id="al"><use transform="matrix(0.057215644202977006,0,0,0.057215644202977006,0,0)" xlink:href="#bJ"/><use transform="matrix(0.057215644202977006,0,0,0.057215644202977006,6.8086616601542636,0)" xlink:href="#bw"/><use transform="matrix(0.057215644202977006,0,0,0.057215644202977006,19.33888774060623,0)" xlink:href="#bu"/><use transform="matrix(0.057215644202977006,0,0,0.057215644202977006,30.782016581201628,0)" xlink:href="#bI"/></g><g id="am"><use transform="matrix(0.057215644202977006,0,0,0.057215644202977006,0,0)" xlink:href="#bG"/><use transform="matrix(0.057215644202977006,0,0,0.057215644202977006,11.443128840595401,0)" xlink:href="#bx"/><use transform="matrix(0.057215644202977006,0,0,0.057215644202977006,23.973354921047367,0)" xlink:href="#bI"/><use transform="matrix(0.057215644202977006,0,0,0.057215644202977006,36.50358100149933,0)" xlink:href="#bF"/><use transform="matrix(0.057215644202977006,0,0,0.057215644202977006,47.94670984209473,0)" xlink:href="#bu"/><use transform="matrix(0.057215644202977006,0,0,0.057215644202977006,59.38983868269012,0)" xlink:href="#bB"/><use transform="matrix(0.057215644202977006,0,0,0.057215644202977006,67.40002887110691,0)" xlink:href="#bJ"/></g><g id="an"><use transform="matrix(0.057215644202977006,0,0,0.057215644202977006,0,0)" xlink:href="#bt"/><use transform="matrix(0.057215644202977006,0,0,0.057215644202977006,16.02038037683356,0)" xlink:href="#bC"/><use transform="matrix(0.057215644202977006,0,0,0.057215644202977006,21.74194479713126,0)" xlink:href="#bJ"/><use transform="matrix(0.057215644202977006,0,0,0.057215644202977006,28.550606457285525,0)" xlink:href="#bw"/></g><path fill="#333" d="M186 0v-106H76V0H24v-248h52v99h110v-99h50V0h-50" id="cz"/><path fill="#333" d="M24 0v-248h52v208h133V0H24" id="cA"/><path fill="#333" d="M182-182c0 78-84 86-111 141h115V0H12c-6-101 99-100 120-180 1-22-12-31-33-32-23 0-32 14-35 34l-49-3c5-45 32-70 84-70 51 0 83 22 83 69" id="cB"/><path fill="#333" d="M176-78C186 10 51 31 16-35c-5-9-9-19-11-32l52-8c4 21 12 37 35 38 23 0 32-16 32-40v-130H75v-41h101v170" id="cC"/><path fill="#333" d="M140-251c80 0 125 45 125 126S219 4 139 4C58 4 15-44 15-125s44-126 125-126zm-1 214c52 0 73-35 73-88 0-50-21-86-72-86-52 0-73 35-73 86s22 88 72 88" id="cD"/><g id="ao"><use transform="matrix(0.057215644202977006,0,0,0.057215644202977006,0,0)" xlink:href="#cz"/><use transform="matrix(0.057215644202977006,0,0,0.057215644202977006,14.818851848571045,0)" xlink:href="#bU"/><use transform="matrix(0.057215644202977006,0,0,0.057215644202977006,29.63770369714209,0)" xlink:href="#cA"/><use transform="matrix(0.057215644202977006,0,0,0.057215644202977006,42.167929777594054,0)" xlink:href="#cB"/><use transform="matrix(0.057215644202977006,0,0,0.057215644202977006,53.61105861818945,0)" xlink:href="#cC"/><use transform="matrix(0.057215644202977006,0,0,0.057215644202977006,65.05418745878485,0)" xlink:href="#bE"/><use transform="matrix(0.057215644202977006,0,0,0.057215644202977006,78.78594206749933,0)" xlink:href="#cD"/><use transform="matrix(0.057215644202977006,0,0,0.057215644202977006,94.80632244433289,0)" xlink:href="#bH"/></g><path fill="#333" d="M230 0l2-204L168 0h-37L68-204 70 0H24v-248h70l56 185 57-185h69V0h-46" id="cE"/><g id="ap"><use transform="matrix(0.057215644202977006,0,0,0.057215644202977006,0,0)" xlink:href="#cE"/><use transform="matrix(0.057215644202977006,0,0,0.057215644202977006,17.107477616690126,0)" xlink:href="#bK"/><use transform="matrix(0.057215644202977006,0,0,0.057215644202977006,28.550606457285525,0)" xlink:href="#by"/><use transform="matrix(0.057215644202977006,0,0,0.057215644202977006,39.993735297880924,0)" xlink:href="#bu"/></g><path fill="#333" d="M199 0l-22-63H83L61 0H9l90-248h61L250 0h-51zm-33-102l-36-108c-10 38-24 72-36 108h72" id="cF"/><path fill="#333" d="M24-248c93 1 206-16 204 79-1 75-69 88-152 82V0H24v-248zm52 121c47 0 100 7 100-41 0-47-54-39-100-39v80" id="cG"/><path fill="#333" d="M24 0v-248h52V0H24" id="cH"/><g id="aq"><use transform="matrix(0.057215644202977006,0,0,0.057215644202977006,0,0)" xlink:href="#cF"/><use transform="matrix(0.057215644202977006,0,0,0.057215644202977006,14.818851848571045,0)" xlink:href="#cG"/><use transform="matrix(0.057215644202977006,0,0,0.057215644202977006,28.550606457285525,0)" xlink:href="#cH"/></g><g id="ar"><use transform="matrix(0.057215644202977006,0,0,0.057215644202977006,0,0)" xlink:href="#bG"/><use transform="matrix(0.057215644202977006,0,0,0.057215644202977006,11.443128840595401,0)" xlink:href="#bK"/><use transform="matrix(0.057215644202977006,0,0,0.057215644202977006,22.886257681190802,0)" xlink:href="#bM"/><use transform="matrix(0.057215644202977006,0,0,0.057215644202977006,28.6078221014885,0)" xlink:href="#bM"/></g><g id="as"><use transform="matrix(0.057215644202977006,0,0,0.057215644202977006,0,0)" xlink:href="#bG"/><use transform="matrix(0.057215644202977006,0,0,0.057215644202977006,11.443128840595401,0)" xlink:href="#bB"/><use transform="matrix(0.057215644202977006,0,0,0.057215644202977006,19.45331902901218,0)" xlink:href="#bu"/><use transform="matrix(0.057215644202977006,0,0,0.057215644202977006,30.896447869607584,0)" xlink:href="#bK"/><use transform="matrix(0.057215644202977006,0,0,0.057215644202977006,42.339576710202984,0)" xlink:href="#bJ"/><use transform="matrix(0.057215644202977006,0,0,0.057215644202977006,49.14823837035725,0)" xlink:href="#bu"/></g><g id="at"><use transform="matrix(0.057215644202977006,0,0,0.057215644202977006,0,0)" xlink:href="#bu"/><use transform="matrix(0.057215644202977006,0,0,0.057215644202977006,11.443128840595401,0)" xlink:href="#bO"/><use transform="matrix(0.057215644202977006,0,0,0.057215644202977006,29.752134985548036,0)" xlink:href="#bP"/><use transform="matrix(0.057215644202977006,0,0,0.057215644202977006,42.28236106600001,0)" xlink:href="#bJ"/><use transform="matrix(0.057215644202977006,0,0,0.057215644202977006,49.09102272615427,0)" xlink:href="#bZ"/></g><g id="au"><use transform="matrix(0.057215644202977006,0,0,0.057215644202977006,0,0)" xlink:href="#bG"/><use transform="matrix(0.057215644202977006,0,0,0.057215644202977006,11.443128840595401,0)" xlink:href="#bx"/><use transform="matrix(0.057215644202977006,0,0,0.057215644202977006,23.973354921047367,0)" xlink:href="#bI"/><use transform="matrix(0.057215644202977006,0,0,0.057215644202977006,36.50358100149933,0)" xlink:href="#bF"/><use transform="matrix(0.057215644202977006,0,0,0.057215644202977006,47.94670984209473,0)" xlink:href="#bu"/><use transform="matrix(0.057215644202977006,0,0,0.057215644202977006,59.38983868269012,0)" xlink:href="#bB"/><use transform="matrix(0.057215644202977006,0,0,0.057215644202977006,67.40002887110691,0)" xlink:href="#bJ"/></g><g id="av"><use transform="matrix(0.057215644202977006,0,0,0.057215644202977006,0,0)" xlink:href="#bJ"/><use transform="matrix(0.057215644202977006,0,0,0.057215644202977006,6.8086616601542636,0)" xlink:href="#bL"/><use transform="matrix(0.057215644202977006,0,0,0.057215644202977006,13.617323320308527,0)" xlink:href="#cy"/><use transform="matrix(0.057215644202977006,0,0,0.057215644202977006,19.33888774060623,0)" xlink:href="#bF"/><use transform="matrix(0.057215644202977006,0,0,0.057215644202977006,30.782016581201628,0)" xlink:href="#bK"/><use transform="matrix(0.057215644202977006,0,0,0.057215644202977006,42.22514542179703,0)" xlink:href="#bB"/><use transform="matrix(0.057215644202977006,0,0,0.057215644202977006,50.23533561021381,0)" xlink:href="#bD"/></g><g id="aw"><use transform="matrix(0.057215644202977006,0,0,0.057215644202977006,0,0)" xlink:href="#bQ"/><use transform="matrix(0.057215644202977006,0,0,0.057215644202977006,5.7215644202977005,0)" xlink:href="#bD"/><use transform="matrix(0.057215644202977006,0,0,0.057215644202977006,17.164693260893102,0)" xlink:href="#bx"/><use transform="matrix(0.057215644202977006,0,0,0.057215644202977006,29.694919341345066,0)" xlink:href="#bI"/></g><g id="ax"><use transform="matrix(0.057215644202977006,0,0,0.057215644202977006,0,0)" xlink:href="#bx"/><use transform="matrix(0.057215644202977006,0,0,0.057215644202977006,12.530226080451964,0)" xlink:href="#bv"/><use transform="matrix(0.057215644202977006,0,0,0.057215644202977006,25.060452160903928,0)" xlink:href="#bQ"/></g><g id="ay"><use transform="matrix(0.057215644202977006,0,0,0.057215644202977006,0,0)" xlink:href="#bF"/><use transform="matrix(0.057215644202977006,0,0,0.057215644202977006,11.443128840595401,0)" xlink:href="#bK"/><use transform="matrix(0.057215644202977006,0,0,0.057215644202977006,22.886257681190802,0)" xlink:href="#bB"/><use transform="matrix(0.057215644202977006,0,0,0.057215644202977006,30.896447869607584,0)" xlink:href="#bC"/><use transform="matrix(0.057215644202977006,0,0,0.057215644202977006,36.61801228990529,0)" xlink:href="#bK"/><use transform="matrix(0.057215644202977006,0,0,0.057215644202977006,48.06114113050069,0)" xlink:href="#bv"/><use transform="matrix(0.057215644202977006,0,0,0.057215644202977006,60.59136721095265,0)" xlink:href="#bM"/><use transform="matrix(0.057215644202977006,0,0,0.057215644202977006,66.31293163125035,0)" xlink:href="#bu"/><use transform="matrix(0.057215644202977006,0,0,0.057215644202977006,77.75606047184576,0)" xlink:href="#bD"/></g><g id="az"><use transform="matrix(0.057215644202977006,0,0,0.057215644202977006,0,0)" xlink:href="#bJ"/><use transform="matrix(0.057215644202977006,0,0,0.057215644202977006,6.8086616601542636,0)" xlink:href="#bx"/></g><g id="aA"><use transform="matrix(0.057215644202977006,0,0,0.057215644202977006,0,0)" xlink:href="#bE"/><use transform="matrix(0.057215644202977006,0,0,0.057215644202977006,13.731754608714482,0)" xlink:href="#bH"/></g><g id="aB"><use transform="matrix(0.057215644202977006,0,0,0.057215644202977006,0,0)" xlink:href="#bF"/><use transform="matrix(0.057215644202977006,0,0,0.057215644202977006,11.443128840595401,0)" xlink:href="#bK"/><use transform="matrix(0.057215644202977006,0,0,0.057215644202977006,22.886257681190802,0)" xlink:href="#bB"/></g><g id="aC"><use transform="matrix(0.057215644202977006,0,0,0.057215644202977006,0,0)" xlink:href="#bx"/><use transform="matrix(0.057215644202977006,0,0,0.057215644202977006,12.530226080451964,0)" xlink:href="#bv"/><use transform="matrix(0.057215644202977006,0,0,0.057215644202977006,25.060452160903928,0)" xlink:href="#bQ"/><use transform="matrix(0.057215644202977006,0,0,0.057215644202977006,30.782016581201628,0)" xlink:href="#bD"/></g><g id="aD"><use transform="matrix(0.057215644202977006,0,0,0.057215644202977006,0,0)" xlink:href="#bG"/><use transform="matrix(0.057215644202977006,0,0,0.057215644202977006,11.443128840595401,0)" xlink:href="#bK"/><use transform="matrix(0.057215644202977006,0,0,0.057215644202977006,22.886257681190802,0)" xlink:href="#bJ"/><use transform="matrix(0.057215644202977006,0,0,0.057215644202977006,29.694919341345066,0)" xlink:href="#bK"/><use transform="matrix(0.057215644202977006,0,0,0.057215644202977006,41.13804818194047,0)" xlink:href="#bM"/><use transform="matrix(0.057215644202977006,0,0,0.057215644202977006,46.85961260223817,0)" xlink:href="#bx"/><use transform="matrix(0.057215644202977006,0,0,0.057215644202977006,59.38983868269015,0)" xlink:href="#bN"/></g><g id="aE"><use transform="matrix(0.057215644202977006,0,0,0.057215644202977006,0,0)" xlink:href="#bF"/><use transform="matrix(0.057215644202977006,0,0,0.057215644202977006,11.443128840595401,0)" xlink:href="#bK"/><use transform="matrix(0.057215644202977006,0,0,0.057215644202977006,22.886257681190802,0)" xlink:href="#bB"/><use transform="matrix(0.057215644202977006,0,0,0.057215644202977006,30.896447869607584,0)" xlink:href="#bD"/></g><g id="aF"><use transform="matrix(0.057215644202977006,0,0,0.057215644202977006,0,0)" xlink:href="#bP"/><use transform="matrix(0.057215644202977006,0,0,0.057215644202977006,12.530226080451964,0)" xlink:href="#bx"/><use transform="matrix(0.057215644202977006,0,0,0.057215644202977006,25.060452160903928,0)" xlink:href="#bP"/><use transform="matrix(0.057215644202977006,0,0,0.057215644202977006,37.59067824135589,0)" xlink:href="#bA"/><use transform="matrix(0.057215644202977006,0,0,0.057215644202977006,50.120904321807856,0)" xlink:href="#bM"/><use transform="matrix(0.057215644202977006,0,0,0.057215644202977006,55.84246874210556,0)" xlink:href="#bK"/><use transform="matrix(0.057215644202977006,0,0,0.057215644202977006,67.28559758270096,0)" xlink:href="#bJ"/><use transform="matrix(0.057215644202977006,0,0,0.057215644202977006,74.09425924285522,0)" xlink:href="#bu"/></g><g id="aG"><use transform="matrix(0.057215644202977006,0,0,0.057215644202977006,0,0)" xlink:href="#bG"/><use transform="matrix(0.057215644202977006,0,0,0.057215644202977006,11.443128840595401,0)" xlink:href="#bM"/><use transform="matrix(0.057215644202977006,0,0,0.057215644202977006,17.164693260893102,0)" xlink:href="#bC"/><use transform="matrix(0.057215644202977006,0,0,0.057215644202977006,22.886257681190802,0)" xlink:href="#bu"/><use transform="matrix(0.057215644202977006,0,0,0.057215644202977006,34.329386521786205,0)" xlink:href="#bI"/><use transform="matrix(0.057215644202977006,0,0,0.057215644202977006,46.85961260223817,0)" xlink:href="#bJ"/></g><g id="aH"><use transform="matrix(0.057215644202977006,0,0,0.057215644202977006,0,0)" xlink:href="#bD"/><use transform="matrix(0.057215644202977006,0,0,0.057215644202977006,11.443128840595401,0)" xlink:href="#bG"/><use transform="matrix(0.057215644202977006,0,0,0.057215644202977006,22.886257681190802,0)" xlink:href="#bB"/><use transform="matrix(0.057215644202977006,0,0,0.057215644202977006,30.896447869607584,0)" xlink:href="#bC"/><use transform="matrix(0.057215644202977006,0,0,0.057215644202977006,36.61801228990529,0)" xlink:href="#bP"/><use transform="matrix(0.057215644202977006,0,0,0.057215644202977006,49.14823837035725,0)" xlink:href="#bJ"/><use transform="matrix(0.057215644202977006,0,0,0.057215644202977006,55.95690003051151,0)" xlink:href="#bD"/></g><g id="aI"><use transform="matrix(0.057215644202977006,0,0,0.057215644202977006,0,0)" xlink:href="#bD"/><use transform="matrix(0.057215644202977006,0,0,0.057215644202977006,11.443128840595401,0)" xlink:href="#bu"/><use transform="matrix(0.057215644202977006,0,0,0.057215644202977006,22.886257681190802,0)" xlink:href="#bI"/><use transform="matrix(0.057215644202977006,0,0,0.057215644202977006,35.416483761642766,0)" xlink:href="#bS"/><use transform="matrix(0.057215644202977006,0,0,0.057215644202977006,47.946709842094734,0)" xlink:href="#bD"/></g><g id="aJ"><use transform="matrix(0.057215644202977006,0,0,0.057215644202977006,0,0)" xlink:href="#cF"/><use transform="matrix(0.057215644202977006,0,0,0.057215644202977006,14.818851848571045,0)" xlink:href="#cG"/><use transform="matrix(0.057215644202977006,0,0,0.057215644202977006,28.550606457285525,0)" xlink:href="#cH"/></g><g id="aK"><use transform="matrix(0.057215644202977006,0,0,0.057215644202977006,0,0)" xlink:href="#bD"/><use transform="matrix(0.057215644202977006,0,0,0.057215644202977006,11.443128840595401,0)" xlink:href="#bu"/><use transform="matrix(0.057215644202977006,0,0,0.057215644202977006,22.886257681190802,0)" xlink:href="#bJ"/></g><g id="aL"><use transform="matrix(0.057215644202977006,0,0,0.057215644202977006,0,0)" xlink:href="#bu"/><use transform="matrix(0.057215644202977006,0,0,0.057215644202977006,11.443128840595401,0)" xlink:href="#bY"/><use transform="matrix(0.057215644202977006,0,0,0.057215644202977006,22.886257681190802,0)" xlink:href="#bC"/><use transform="matrix(0.057215644202977006,0,0,0.057215644202977006,28.6078221014885,0)" xlink:href="#bD"/><use transform="matrix(0.057215644202977006,0,0,0.057215644202977006,40.0509509420839,0)" xlink:href="#bJ"/><use transform="matrix(0.057215644202977006,0,0,0.057215644202977006,46.859612602238165,0)" xlink:href="#bC"/><use transform="matrix(0.057215644202977006,0,0,0.057215644202977006,52.58117702253587,0)" xlink:href="#bI"/><use transform="matrix(0.057215644202977006,0,0,0.057215644202977006,65.11140310298784,0)" xlink:href="#bN"/></g><g id="aM"><use transform="matrix(0.057215644202977006,0,0,0.057215644202977006,0,0)" xlink:href="#bG"/><use transform="matrix(0.057215644202977006,0,0,0.057215644202977006,11.443128840595401,0)" xlink:href="#bK"/><use transform="matrix(0.057215644202977006,0,0,0.057215644202977006,22.886257681190802,0)" xlink:href="#bJ"/></g><g id="aN"><use transform="matrix(0.057215644202977006,0,0,0.057215644202977006,0,0)" xlink:href="#bS"/><use transform="matrix(0.057215644202977006,0,0,0.057215644202977006,12.530226080451964,0)" xlink:href="#bC"/><use transform="matrix(0.057215644202977006,0,0,0.057215644202977006,18.251790500749664,0)" xlink:href="#bD"/><use transform="matrix(0.057215644202977006,0,0,0.057215644202977006,29.69491934134506,0)" xlink:href="#bK"/><use transform="matrix(0.057215644202977006,0,0,0.057215644202977006,41.13804818194046,0)" xlink:href="#bv"/><use transform="matrix(0.057215644202977006,0,0,0.057215644202977006,53.66827426239243,0)" xlink:href="#bM"/><use transform="matrix(0.057215644202977006,0,0,0.057215644202977006,59.38983868269013,0)" xlink:href="#bu"/><use transform="matrix(0.057215644202977006,0,0,0.057215644202977006,70.83296752328553,0)" xlink:href="#bS"/></g></defs></g></svg>
