<svg xmlns="http://www.w3.org/2000/svg" xmlns:xlink="http://www.w3.org/1999/xlink" xmlns:lucid="lucid" width="2039.17" height="1575.72"><g transform="translate(0 0)" lucid:page-tab-id="0_0"><path d="M0 0h2039.17v1575.72H0z" fill="#fff"/><path d="M1279 286.37h594.5v220H1279z" stroke="#000" stroke-width="2" fill="#fff"/><path d="M60.67 31.08h848v60h-848z" fill="none"/><use xlink:href="#a" transform="matrix(1,0,0,1,60.66666666666674,31.0757374435291) translate(0 37.2091711695751)"/><use xlink:href="#b" transform="matrix(1,0,0,1,60.66666666666674,31.0757374435291) translate(239.60481401101697 37.2091711695751)"/><use xlink:href="#c" transform="matrix(1,0,0,1,60.66666666666674,31.0757374435291) translate(405.41575091124434 37.2091711695751)"/><use xlink:href="#d" transform="matrix(1,0,0,1,60.66666666666674,31.0757374435291) translate(600.463881999193 37.2091711695751)"/><path d="M60 85.08h1908.5" stroke="#999" stroke-width="2" fill="none"/><path d="M1279 31.08h688v60h-688z" fill="none"/><use xlink:href="#e" transform="matrix(1,0,0,1,1279,31.0757374435291) translate(420.3023046853213 35.14940797826793)"/><use xlink:href="#f" transform="matrix(1,0,0,1,1279,31.0757374435291) translate(521.216397148322 35.14940797826793)"/><use xlink:href="#g" transform="matrix(1,0,0,1,1279,31.0757374435291) translate(549.3235823630345 35.14940797826793)"/><use xlink:href="#h" transform="matrix(1,0,0,1,1279,31.0757374435291) translate(602.1765336955345 35.14940797826793)"/><use xlink:href="#i" transform="matrix(1,0,0,1,1279,31.0757374435291) translate(630.784355797023 35.14940797826793)"/><path d="M166 614h-40V260h40" fill="#fff"/><path d="M166 614h-40V260h40zM166 614h1748V260H166M166 614V260" stroke="#000" stroke-width="2" fill="none"/><use xlink:href="#j" transform="matrix(6.123233995736766e-17,-1,1,6.123233995736766e-17,125.99999999999989,614) translate(103.125 23.6)"/><use xlink:href="#k" transform="matrix(6.123233995736766e-17,-1,1,6.123233995736766e-17,125.99999999999989,614) translate(180.97500000000002 23.6)"/><path d="M165.58 860h-40V614.36h40" fill="#fff"/><path d="M165.58 860h-40V614.36h40z" stroke="#000" stroke-width="2" fill="none"/><path d="M165.58 860h1748V614.36h-1748M165.58 860V614.36" stroke="#000" stroke-width="2" fill="none"/><use xlink:href="#l" transform="matrix(6.123233995736766e-17,-1,1,6.123233995736766e-17,125.5827796970504,860.0000000000002) translate(64.1 23.6)"/><use xlink:href="#m" transform="matrix(6.123233995736766e-17,-1,1,6.123233995736766e-17,125.5827796970504,860.0000000000002) translate(106.05 23.6)"/><path d="M166 1363h-40V863h40" fill="#fff"/><path d="M166 1363h-40V863h40zM166 1363h1748V863H166M166 1363V863" stroke="#000" stroke-width="2" fill="none"/><use xlink:href="#n" transform="matrix(6.123233995736766e-17,-1,1,6.123233995736766e-17,125.99999999999994,1362.9992980540642) translate(150.175 23.6)"/><use xlink:href="#o" transform="matrix(6.123233995736766e-17,-1,1,6.123233995736766e-17,125.99999999999994,1362.9992980540642) translate(225.025 23.6)"/><use xlink:href="#p" transform="matrix(6.123233995736766e-17,-1,1,6.123233995736766e-17,125.99999999999994,1362.9992980540642) translate(266.975 23.6)"/><path d="M414 321.88c0-2.76 2.24-5 5-5h183c2.76 0 5 2.24 5 5v104.96c0 2.76-2.24 5-5 5H419c-2.76 0-5-2.24-5-5z" stroke="#999" stroke-width="2" fill="#fff"/><use xlink:href="#q" transform="matrix(1,0,0,1,418.9999999999999,321.8827732506155) translate(12.19911713467387 44.26094723477131)"/><use xlink:href="#r" transform="matrix(1,0,0,1,418.9999999999999,321.8827732506155) translate(68.15601716518538 44.26094723477131)"/><use xlink:href="#s" transform="matrix(1,0,0,1,418.9999999999999,321.8827732506155) translate(98.938033746387 44.26094723477131)"/><use xlink:href="#t" transform="matrix(1,0,0,1,418.9999999999999,321.8827732506155) translate(57.828593386548036 68.97810553045738)"/><use xlink:href="#u" transform="matrix(1,0,0,1,418.9999999999999,321.8827732506155) translate(82.88904554745196 68.97810553045738)"/><path d="M194 314.36h160v120c-26.72-20.04-43.36-20.04-53.44-20.04-16 0-37.28 20.04-53.28 20.04-9.92 0-26.72 0-53.28-20.04z" stroke="#999" stroke-width="2" fill="#fff"/><use xlink:href="#v" transform="matrix(1,0,0,1,198.9999999999999,319.3616464900522) translate(27.625446599935046 36.76094723477131)"/><use xlink:href="#w" transform="matrix(1,0,0,1,198.9999999999999,319.3616464900522) translate(97.31410123916103 36.76094723477131)"/><use xlink:href="#x" transform="matrix(1,0,0,1,198.9999999999999,319.3616464900522) translate(41.929357650679286 61.478105530457384)"/><path d="M355 374.36h39.76" stroke="#000" stroke-width="2" fill="none"/><path d="M355 375.36h-1v-2h1zM409.76 374.36L395.5 379v-9.27z"/><path d="M413 374.36l-18.5 6v-12zm-16.5 3.26l10.03-3.26-10.03-3.26z"/><path d="M860 642.92h260v150H860z" stroke="#000" stroke-width="2" fill="#fff"/><use xlink:href="#y" transform="matrix(1,0,0,1,865,647.9242625564709) translate(14.274999999999991 62.8)"/><use xlink:href="#z" transform="matrix(1,0,0,1,865,647.9242625564709) translate(63.175 62.8)"/><use xlink:href="#A" transform="matrix(1,0,0,1,865,647.9242625564709) translate(115.075 62.8)"/><use xlink:href="#B" transform="matrix(1,0,0,1,865,647.9242625564709) translate(176.925 62.8)"/><use xlink:href="#C" transform="matrix(1,0,0,1,865,647.9242625564709) translate(218.825 62.8)"/><use xlink:href="#D" transform="matrix(1,0,0,1,865,647.9242625564709) translate(11.199999999999989 84.4)"/><use xlink:href="#E" transform="matrix(1,0,0,1,865,647.9242625564709) translate(43.099999999999994 84.4)"/><use xlink:href="#F" transform="matrix(1,0,0,1,865,647.9242625564709) translate(125.9 84.4)"/><use xlink:href="#G" transform="matrix(1,0,0,1,865,647.9242625564709) translate(155.9 84.4)"/><use xlink:href="#H" transform="matrix(1,0,0,1,865,647.9242625564709) translate(208.8 84.4)"/><path d="M650.88 957.96l183.2 106.68-183.2 106.68-183.2-106.68z" stroke="#000" stroke-width="2" fill="#fff"/><use xlink:href="#I" transform="matrix(1,0,0,1,472.6665029391343,962.9561263937494) translate(31.275000000000006 94.80000000000001)"/><use xlink:href="#J" transform="matrix(1,0,0,1,472.6665029391343,962.9561263937494) translate(88.22500000000001 94.80000000000001)"/><use xlink:href="#K" transform="matrix(1,0,0,1,472.6665029391343,962.9561263937494) translate(124.12500000000001 94.80000000000001)"/><use xlink:href="#L" transform="matrix(1,0,0,1,472.6665029391343,962.9561263937494) translate(224.92500000000004 94.80000000000001)"/><use xlink:href="#M" transform="matrix(1,0,0,1,472.6665029391343,962.9561263937494) translate(254.87500000000003 94.80000000000001)"/><use xlink:href="#N" transform="matrix(1,0,0,1,472.6665029391343,962.9561263937494) translate(288.775 94.80000000000001)"/><use xlink:href="#O" transform="matrix(1,0,0,1,472.6665029391343,962.9561263937494) translate(147.55 116.4)"/><path d="M651.88 1211h21.45v2h-23.45v-40.53h2zm92.13 0v2H700.3v-2zM651.88 1172.47h-2v-1.73l1 .58 1-.58zM759 1212l-14.25 4.63v-9.27z"/><path d="M762.25 1212l-18.5 6v-12zm-16.5 3.26l10.03-3.26-10.03-3.26z"/><use xlink:href="#P" transform="matrix(1,0,0,1,673.325064101476,1201.198596128828) translate(0 14.4)"/><path d="M893.26 1063.96h20.77v2h-22.77V917.8H806v-2h87.26zM770 917.8H651.87v39h-2v-41h120.1zM651.88 958.54l-1-.58-1 .58v-1.74h2zM929.03 1064.96l-14.27 4.63v-9.28z"/><path d="M932.26 1064.96l-18.5 6v-12.02zm-16.5 3.26l10.03-3.26-10.04-3.26z"/><use xlink:href="#Q" transform="matrix(1,0,0,1,769.985997326605,905.998947481952) translate(0 14.4)"/><path d="M654 324.4c0-2.76 2.24-5 5-5h253c2.76 0 5 2.24 5 5v104.96c0 2.76-2.24 5-5 5H659c-2.76 0-5-2.24-5-5z" stroke="#999" stroke-width="2" fill="#fff"/><use xlink:href="#R" transform="matrix(1,0,0,1,658.9999999999999,324.40390001117885) translate(29.43365960964951 31.902368086928274)"/><use xlink:href="#S" transform="matrix(1,0,0,1,658.9999999999999,324.40390001117885) translate(132.25017224239917 31.902368086928274)"/><use xlink:href="#T" transform="matrix(1,0,0,1,658.9999999999999,324.40390001117885) translate(182.485507852613 31.902368086928274)"/><use xlink:href="#U" transform="matrix(1,0,0,1,658.9999999999999,324.40390001117885) translate(11.811241195132595 56.61952638261434)"/><use xlink:href="#V" transform="matrix(1,0,0,1,658.9999999999999,324.40390001117885) translate(90.59718326263193 56.61952638261434)"/><use xlink:href="#W" transform="matrix(1,0,0,1,658.9999999999999,324.40390001117885) translate(185.34629006276185 56.61952638261434)"/><use xlink:href="#X" transform="matrix(1,0,0,1,658.9999999999999,324.40390001117885) translate(216.12830664396347 56.61952638261434)"/><use xlink:href="#Y" transform="matrix(1,0,0,1,658.9999999999999,324.40390001117885) translate(66.56661269738159 81.33668467830041)"/><use xlink:href="#Z" transform="matrix(1,0,0,1,658.9999999999999,324.40390001117885) translate(121.32198419963058 81.33668467830041)"/><path d="M608 374.36h26.76" stroke="#000" stroke-width="2" fill="none"/><path d="M608 373.36v2h-1v-2zM649.76 374.37L635.5 379v-9.27z"/><path d="M653 374.37l-18.5 6v-12.02zm-16.5 3.25l10.03-3.25-10.03-3.26z"/><path d="M918 376.88l32.76.3" stroke="#000" stroke-width="2" fill="none"/><path d="M918 375.88v2h-1v-2zM965.76 377.33l-14.3 4.5.08-9.27z"/><path d="M969 377.36l-18.56 5.84.12-12.02zm-16.53 3.1l10.06-3.16-10-3.35z"/><path d="M970 324.88c0-2.76 2.24-5 5-5h253c2.76 0 5 2.24 5 5v104.96c0 2.76-2.24 5-5 5H975c-2.76 0-5-2.24-5-5z" stroke="#999" stroke-width="2" fill="#fff"/><g><use xlink:href="#aa" transform="matrix(1,0,0,1,975,324.8827732506155) translate(17.93331512485112 44.26094723477131)"/><use xlink:href="#ab" transform="matrix(1,0,0,1,975,324.8827732506155) translate(63.5341835546238 44.26094723477131)"/><use xlink:href="#ac" transform="matrix(1,0,0,1,975,324.8827732506155) translate(174.58974895260218 44.26094723477131)"/><use xlink:href="#ad" transform="matrix(1,0,0,1,975,324.8827732506155) translate(28.86150316761973 68.97810553045738)"/><use xlink:href="#t" transform="matrix(1,0,0,1,975,324.8827732506155) translate(68.91245410970365 68.97810553045738)"/><use xlink:href="#ae" transform="matrix(1,0,0,1,975,324.8827732506155) translate(93.97290627060757 68.97810553045738)"/><use xlink:href="#af" transform="matrix(1,0,0,1,975,324.8827732506155) translate(143.12114464096481 68.97810553045738)"/><use xlink:href="#ag" transform="matrix(1,0,0,1,975,324.8827732506155) translate(179.62472564246414 68.97810553045738)"/></g><path d="M1874.5 396.37l5.7 10.4 4.6 9.2 3.66 8.27 2.95 7.45 2.37 6.77 1.87 6.22 1.47 5.72 1.14 5.3.84 4.97.58 4.64.37 4.38.17 4.15v3.95l-.16 3.77-.3 3.6-.45 3.48-.58 3.37-.7 3.26-.8 3.18-.95 3.1-1.06 3.05-1.18 3-1.3 2.93-1.46 2.92-1.6 2.9-1.75 2.88-1.9 2.88-2.1 2.9-2.3 2.88-2.53 2.92-2.77 2.95-3.06 2.98-3.38 3.04-3.74 3.1-4.17 3.15-4.66 3.23-5.25 3.32-5.92 3.4-6.73 3.52-7.7 3.6-8.9 3.74-10.36 3.84-12.18 3.94-14.47 4.02-17.44 4.06-21.27 4.03-26.4 3.86-33.42 3.46-43.2 2.64-57.45 1.1-79-1.8-114.26-7.42-133.04-13.57-73.3-7.15-42.66-2.35-27.67-.35-19.3.56-14.2 1.02-10.88 1.24-8.6 1.34-6.96 1.4-5.77 1.4-4.88 1.4-4.17 1.4-3.62 1.4-3.2 1.37-2.82 1.36-2.53 1.35-2.3 1.36-2.1 1.37-1.95 1.37-1.8 1.4-1.68 1.4-1.58 1.47-1.5 1.5-1.44 1.57-1.4 1.64-1.35 1.75-1.33 1.88-1.34 2.06-1.37 2.3-1.45 2.7-1.64 3.4-2.24 5.2-5.22 12.8" stroke="#000" stroke-width="2" fill="none"/><path d="M1875.38 395.9l-1.76.95-.12-.23v-3.1l.46-.26zM1001.92 628.3l-10.48 10.72 2.18-14.84z"/><path d="M1003.6 628L990 641.93l2.83-19.24zm-10.73 8.12l7.38-7.54-5.84-2.9z"/><path d="M1320 365c0-2.76 2.24-5 5-5h238c2.76 0 5 2.24 5 5v90c0 2.76-2.24 5-5 5h-238c-2.76 0-5-2.24-5-5z" fill="#fff"/><path d="M1322.84 360.68l.58-.43 1.58-.25h2.97m3.97 0h5.95m3.96 0h5.95m3.98 0h5.94m3.97 0h5.94m3.97 0h5.96m3.96 0h5.95m3.97 0h5.95m3.96 0h5.95m3.97 0h5.95m3.97 0h5.94m3.97 0h5.96m3.96 0h5.95m3.97 0h5.95m3.96 0h5.95m3.97 0h5.95m3.97 0h5.94m3.97 0h5.96m3.96 0h5.95m3.97 0h5.95m3.96 0h5.95m3.97 0h5.95m3.97 0h5.94m3.97 0h5.96m3.96 0h2.98l2.2.72m2.12 2.12l.43.58.25 1.58v3m0 4v6m0 4v6m0 4v6m0 4v6m0 4v6m0 4v6m0 4v6m0 4v6m0 4v3l-.72 2.2m-2.12 2.12l-.58.43-1.58.25h-2.97m-3.97 0h-5.95m-3.96 0h-5.95m-3.97 0h-5.95m-3.97 0h-5.94m-3.97 0h-5.96m-3.96 0h-5.95m-3.97 0h-5.95m-3.96 0h-5.95m-3.97 0h-5.95m-3.97 0h-5.94m-3.97 0h-5.96m-3.96 0h-5.95m-3.97 0h-5.95m-3.96 0h-5.95m-3.97 0h-5.95m-3.97 0h-5.94m-3.97 0h-5.96m-3.96 0h-5.95m-3.97 0h-5.95m-3.96 0h-5.95m-3.97 0h-5.95m-3.97 0h-5.94m-3.97 0h-5.96m-3.96 0H1325l-2.2-.72m-2.12-2.12l-.43-.58-.25-1.58v-3m0-4v-6m0-4v-6m0-4v-6m0-4v-6m0-4v-6m0-4v-6m0-4v-6m0-4v-6m0-4v-3l.72-2.2" stroke="#999" stroke-width="2" fill="none"/><g><use xlink:href="#ah" transform="matrix(1,0,0,1,1325,365.00000000000006) translate(33.376788450244916 24.402368086928274)"/><use xlink:href="#ai" transform="matrix(1,0,0,1,1325,365.00000000000006) translate(180.6498566287077 24.402368086928274)"/><use xlink:href="#aj" transform="matrix(1,0,0,1,1325,365.00000000000006) translate(11.119902855286853 49.11952638261434)"/><use xlink:href="#af" transform="matrix(1,0,0,1,1325,365.00000000000006) translate(145.8627449532977 49.11952638261434)"/><use xlink:href="#ak" transform="matrix(1,0,0,1,1325,365.00000000000006) translate(182.36632595479702 49.11952638261434)"/><use xlink:href="#al" transform="matrix(1,0,0,1,1325,365.00000000000006) translate(41.90191943648847 73.83668467830041)"/><use xlink:href="#am" transform="matrix(1,0,0,1,1325,365.00000000000006) translate(120.74507714819079 73.83668467830041)"/></g><path d="M1234 377.36l27.26 11.78" stroke="#000" stroke-width="2" fill="none"/><path d="M1234.4 376.44l-.8 1.84-.6-.26v-2.18zM1275.03 395.08l-14.94-1.4 3.67-8.5z"/><path d="M1278 396.37l-19.37-1.82 4.77-11.04zm-16.44-3.56l10.5 1-7.92-6.97z"/><path d="M1600 365c0-2.76 2.24-5 5-5h232c2.76 0 5 2.24 5 5v90c0 2.76-2.24 5-5 5h-232c-2.76 0-5-2.24-5-5z" fill="#fff"/><path d="M1602.84 360.68l.58-.43 1.58-.25h3.03m4.03 0h6.05m4.05 0h6.05m4.03 0h6.06m4.02 0h6.05m4.04 0h6.06m4.04 0h6.05m4.03 0h6.05m4.04 0h6.05m4.04 0h6.05m4.04 0h6.06m4.03 0h6.05m4.04 0h6.05m4.03 0h6.06m4.03 0h6.04m4.04 0h6.05m4.04 0h6.05m4.03 0h6.05m4.04 0h6.05m4.03 0h6.05m4.03 0h6.07m4.03 0h6.05m4.04 0h6.04m4.03 0h3.03l2.2.72m2.12 2.12l.43.58.25 1.58v3m0 4v6m0 4v6m0 4v6m0 4v6m0 4v6m0 4v6m0 4v6m0 4v6m0 4v3l-.72 2.2m-2.12 2.12l-.58.43-1.58.25h-3.03m-4.03 0h-6.05m-4.05 0h-6.05m-4.03 0h-6.06m-4.02 0h-6.05m-4.04 0h-6.06m-4.04 0h-6.05m-4.03 0h-6.05m-4.04 0h-6.05m-4.04 0h-6.05m-4.04 0h-6.06m-4.03 0h-6.05m-4.04 0h-6.05m-4.03 0h-6.06m-4.03 0h-6.04m-4.04 0h-6.05m-4.04 0h-6.05m-4.03 0h-6.05m-4.04 0h-6.05m-4.03 0h-6.05m-4.03 0h-6.07m-4.03 0h-6.05m-4.04 0h-6.04m-4.03 0H1605l-2.2-.72m-2.12-2.12l-.43-.58-.25-1.58v-3m0-4v-6m0-4v-6m0-4v-6m0-4v-6m0-4v-6m0-4v-6m0-4v-6m0-4v-6m0-4v-3l.72-2.2" stroke="#999" stroke-width="2" fill="none"/><g><use xlink:href="#an" transform="matrix(1,0,0,1,1605,365.00000000000006) translate(72.02977743001216 49.61952638261435)"/></g><path d="M1410.25 1172c17.67 0 32 17.9 32 40s-14.33 40-32 40h-96c-17.67 0-32-17.9-32-40s14.33-40 32-40z" stroke="#000" stroke-width="2" fill="#fff"/><g><use xlink:href="#ao" transform="matrix(1,0,0,1,1287.2492826361845,1176.998596128828) translate(56.05 38.6)"/></g><path d="M1118.46 1211.67h88.02v2h-90.02v-40.88h2zm144.58 0v2h-29.6v-2z"/><path d="M1118.46 1172.8h-2v-1.75l1 .6 1-.6zM1278.04 1212.67l-14.27 4.63v-9.27z"/><path d="M1281.27 1212.67l-18.5 6v-12zm-16.5 3.26l10.03-3.26-10.03-3.26z"/><g><use xlink:href="#P" transform="matrix(1,0,0,1,1206.4762951317703,1201.8680834550876) translate(0 14.4)"/></g><path d="M1282.25 884h200v120h-200z" stroke="#000" stroke-width="2" fill="#fff"/><g><use xlink:href="#ap" transform="matrix(1,0,0,1,1287.2492826361845,888.998596128828) translate(2.0999999999999943 47.8)"/><use xlink:href="#aq" transform="matrix(1,0,0,1,1287.2492826361845,888.998596128828) translate(34.099999999999994 47.8)"/><use xlink:href="#ar" transform="matrix(1,0,0,1,1287.2492826361845,888.998596128828) translate(64.1 47.8)"/><use xlink:href="#as" transform="matrix(1,0,0,1,1287.2492826361845,888.998596128828) translate(130 47.8)"/><use xlink:href="#at" transform="matrix(1,0,0,1,1287.2492826361845,888.998596128828) translate(159.95000000000002 47.8)"/><use xlink:href="#au" transform="matrix(1,0,0,1,1287.2492826361845,888.998596128828) translate(32.099999999999994 69.4)"/><use xlink:href="#av" transform="matrix(1,0,0,1,1287.2492826361845,888.998596128828) translate(71 69.4)"/><use xlink:href="#aw" transform="matrix(1,0,0,1,1287.2492826361845,888.998596128828) translate(91 69.4)"/></g><path d="M1174.8 945h-56.34v12.12h-2V943h58.33zm88.2 0h-52.2v-2h52.2z"/><path d="M1118.45 957.26l-.2 1.47-.8-.45-1.28.74.3-2.04zM1278 944l-14.25 4.63v-9.27z"/><path d="M1281.25 944l-18.5 6v-12zm-16.5 3.26l10.03-3.26-10.03-3.26z"/><g><use xlink:href="#Q" transform="matrix(1,0,0,1,1174.793823657873,933.1985961288281) translate(0 14.4)"/></g><path d="M1483.25 944H1535" stroke="#000" stroke-width="2" fill="none"/><path d="M1483.25 945h-1v-2h1zM1550 944l-14.25 4.63v-9.27z"/><path d="M1553.25 944l-18.5 6v-12zm-16.5 3.26l10.03-3.26-10.03-3.26z"/><path d="M1682.25 904c17.67 0 32 17.9 32 40s-14.33 40-32 40h-96c-17.67 0-32-17.9-32-40s14.33-40 32-40z" stroke="#000" stroke-width="2" fill="#fff"/><g><use xlink:href="#ax" transform="matrix(1,0,0,1,1559.2492826361845,908.998596128828) translate(5.125 27.799999999999997)"/><use xlink:href="#as" transform="matrix(1,0,0,1,1559.2492826361845,908.998596128828) translate(48.075 27.799999999999997)"/><use xlink:href="#ay" transform="matrix(1,0,0,1,1559.2492826361845,908.998596128828) translate(78.025 27.799999999999997)"/><use xlink:href="#az" transform="matrix(1,0,0,1,1559.2492826361845,908.998596128828) translate(110.97500000000001 27.799999999999997)"/><use xlink:href="#aA" transform="matrix(1,0,0,1,1559.2492826361845,908.998596128828) translate(43.05 49.4)"/></g><path d="M891.25 1172c17.67 0 32 17.9 32 40s-14.33 40-32 40h-96c-17.67 0-32-17.9-32-40s14.33-40 32-40z" stroke="#000" stroke-width="2" fill="#fff"/><g><use xlink:href="#ax" transform="matrix(1,0,0,1,768.2492826361845,1176.998596128828) translate(5.125 27.799999999999997)"/><use xlink:href="#as" transform="matrix(1,0,0,1,768.2492826361845,1176.998596128828) translate(48.075 27.799999999999997)"/><use xlink:href="#ay" transform="matrix(1,0,0,1,768.2492826361845,1176.998596128828) translate(78.025 27.799999999999997)"/><use xlink:href="#az" transform="matrix(1,0,0,1,768.2492826361845,1176.998596128828) translate(110.97500000000001 27.799999999999997)"/><use xlink:href="#aA" transform="matrix(1,0,0,1,768.2492826361845,1176.998596128828) translate(43.05 49.4)"/></g><path d="M1117.46 958.28l183.2 106.68-183.2 106.68-183.2-106.68z" stroke="#000" stroke-width="2" fill="#fff"/><g><use xlink:href="#aB" transform="matrix(1,0,0,1,939.2492826361843,963.2753031487232) translate(3.8027583594977727 105.60458558478754)"/><use xlink:href="#aC" transform="matrix(1,0,0,1,939.2492826361843,963.2753031487232) translate(60.82529976328974 105.60458558478754)"/><use xlink:href="#aD" transform="matrix(1,0,0,1,939.2492826361843,963.2753031487232) translate(96.77102823381006 105.60458558478754)"/><use xlink:href="#aE" transform="matrix(1,0,0,1,939.2492826361843,963.2753031487232) translate(126.75917775169538 105.60458558478754)"/><use xlink:href="#aF" transform="matrix(1,0,0,1,939.2492826361843,963.2753031487232) translate(160.7023586751115 105.60458558478754)"/><use xlink:href="#aG" transform="matrix(1,0,0,1,939.2492826361843,963.2753031487232) translate(202.705793475622 105.60458558478754)"/><use xlink:href="#aH" transform="matrix(1,0,0,1,939.2492826361843,963.2753031487232) translate(234.7465542292891 105.60458558478754)"/><use xlink:href="#aI" transform="matrix(1,0,0,1,939.2492826361843,963.2753031487232) translate(250.26629771934662 105.60458558478754)"/><use xlink:href="#aJ" transform="matrix(1,0,0,1,939.2492826361843,963.2753031487232) translate(294.2222163782837 105.60458558478754)"/><use xlink:href="#aK" transform="matrix(1,0,0,1,939.2492826361843,963.2753031487232) translate(326.1628497545956 105.60458558478754)"/></g><path d="M1456 300h240v60h-240z" stroke="#000" stroke-opacity="0" stroke-width="2" fill="#fff" fill-opacity="0"/><g><use xlink:href="#aL" transform="matrix(1,0,0,1,1461,305.00000000000006) translate(14.557936601673845 29.119526382614346)"/><use xlink:href="#aM" transform="matrix(1,0,0,1,1461,305.00000000000006) translate(89.91094001699456 29.119526382614346)"/><use xlink:href="#aN" transform="matrix(1,0,0,1,1461,305.00000000000006) translate(126.4145210184939 29.119526382614346)"/></g><path d="M1142.55 726.83l14.06 7.26 9.84 5.6 7.14 4.5 5.33 3.66 4.1 3.08 3.2 2.62 2.55 2.27 2.05 2 1.68 1.77 1.38 1.58 1.15 1.44.97 1.32.8 1.2.7 1.13.58 1.04.5 1 .4.92.36.88.3.84.25.8.2.77.16.75.13.72.1.7.06.7.02.66v.66l-.03.64-.06.65-.08.63-.1.64-.13.63-.17.64-.2.64-.2.65-.27.66-.3.65-.34.68-.37.7-.44.7-.5.74-.53.76-.63.8-.7.82-.8.86-.93.92-1.06.97-1.23 1-1.44 1.1-1.7 1.2-2 1.3-2.44 1.4-2.97 1.56-3.67 1.74-4.63 1.96-5.96 2.24-7.92 2.6-10.85 3.05-15.6 3.7-24 4.63-41.3 6.16-98.27 10.28L703.7 858.8l-37.67 5.6-23.1 4.47-22.28 5.3-21.4 6.02-20.37 6.67-19.3 7.23-18.1 7.66-16.84 7.98-15.5 8.14-14.08 8.18-12.7 8.1-11.28 7.88-9.95 7.6-8.67 7.2-7.5 6.8-6.44 6.32-5.5 5.87-4.64 5.4-3.93 5-3.3 4.56-2.77 4.17-2.3 3.84-1.93 3.53-1.6 3.24-1.32 2.98-1.08 2.75-.88 2.55-.7 2.36-.57 2.2-.43 2.06-.32 1.92-.22 1.8-.14 1.7-.08 1.62v1.52l.07 1.45.1 1.4.18 1.3.22 1.28.26 1.22.3 1.18.36 1.14.38 1.1.43 1.07.47 1.05.52 1.02.55 1 .6 1 .65.96.7.96.76.95.8.95.9.93.94.92 1.03.92 1.1.92 1.22.9 1.32.92 1.42.9 1.58.9 1.73.9 1.9.9 2.13.88 2.35.87 2.64.86 2.95.8 3.32.78 3.78.7 3.14.46-.3 1.98-3.17-.46-3.86-.72-3.4-.8-3.03-.83-2.7-.87-2.44-.9-2.2-.9-1.98-.94-1.8-.93-1.66-.95-1.52-.95-1.38-.96-1.28-.96-1.18-.96-1.1-.98-1-.98-.93-1-.86-1-.8-1-.76-1.03-.7-1.04-.64-1.05-.6-1.08-.54-1.1-.5-1.12-.47-1.16-.4-1.2-.4-1.2-.3-1.27-.3-1.3-.23-1.35-.18-1.4-.12-1.48-.07-1.53v-1.6l.06-1.7.14-1.78.23-1.9.33-2 .45-2.14.58-2.28.73-2.45.9-2.62 1.12-2.82 1.36-3.06 1.63-3.3 1.97-3.6 2.35-3.9 2.8-4.27 3.36-4.64 3.98-5.03 4.7-5.48 5.55-5.94 6.48-6.4 7.57-6.83 8.74-7.26 10-7.64 11.36-7.94 12.76-8.15 14.17-8.22 15.55-8.18 16.9-8 18.2-7.7 19.36-7.27 20.48-6.7 21.47-6.06 22.36-5.3 23.2-4.5 37.77-5.6L968.53 833l98.23-10.27 41.2-6.15 23.9-4.6 15.53-3.68 10.77-3.04 7.83-2.57 5.9-2.2 4.54-1.93 3.6-1.7 2.88-1.52 2.36-1.37 1.94-1.24 1.63-1.14 1.37-1.05 1.17-.97 1-.9.86-.86.75-.8.66-.77.57-.72.5-.7.44-.66.38-.64.34-.62.3-.6.25-.58.22-.58.2-.57.17-.56.14-.55.1-.55.1-.56.07-.55.05-.57.02-.57v-.58l-.03-.6-.06-.6-.08-.6-.1-.64-.16-.67-.18-.7-.22-.7-.26-.77-.33-.8-.37-.85-.45-.9-.54-.97-.64-1.05-.77-1.14-.9-1.26-1.1-1.37-1.34-1.53-1.62-1.7-2-1.94-2.48-2.22-3.13-2.57-4.02-3-5.27-3.64-7.06-4.44-9.76-5.57-14-7.23-21.07-9.8.83-1.8z"/><path d="M1121.43 717.02l-.84 1.8-.6-.26v-2.2zM462.45 1064.43l-14.53 3.73.58-9.25z"/><path d="M465.68 1064.64l-18.84 4.83.75-12zm-16.67 2.2l10.22-2.6-9.8-3.9z"/><defs><path fill="#999" d="M136-208V0H84v-208H4v-40h212v40h-80" id="aO"/><path fill="#999" d="M24 0v-248h195v40H76v63h132v40H76v65h150V0H24" id="aP"/><path fill="#999" d="M240-174c0 40-23 61-54 70L253 0h-59l-57-94H76V0H24v-248c93 4 217-23 216 74zM76-134c48-2 112 12 112-38 0-48-66-32-112-35v73" id="aQ"/><path fill="#999" d="M199 0l-22-63H83L61 0H9l90-248h61L250 0h-51zm-33-102l-36-108c-10 38-24 72-36 108h72" id="aR"/><path fill="#999" d="M76-208v77h127v40H76V0H24v-248h183v40H76" id="aS"/><path fill="#999" d="M140-251c80 0 125 45 125 126S219 4 139 4C58 4 15-44 15-125s44-126 125-126zm-1 214c52 0 73-35 73-88 0-50-21-86-72-86-52 0-73 35-73 86s22 88 72 88" id="aT"/><path fill="#999" d="M230 0l2-204L168 0h-37L68-204 70 0H24v-248h70l56 185 57-185h69V0h-46" id="aU"/><g id="a"><use transform="matrix(0.10012737735520977,0,0,0.10012737735520977,0,0)" xlink:href="#aO"/><use transform="matrix(0.10012737735520977,0,0,0.10012737735520977,21.92789564079094,0)" xlink:href="#aP"/><use transform="matrix(0.10012737735520977,0,0,0.10012737735520977,45.95846620604128,0)" xlink:href="#aQ"/><use transform="matrix(0.10012737735520977,0,0,0.10012737735520977,71.89145694104062,0)" xlink:href="#aQ"/><use transform="matrix(0.10012737735520977,0,0,0.10012737735520977,97.82444767603994,0)" xlink:href="#aR"/><use transform="matrix(0.10012737735520977,0,0,0.10012737735520977,123.75743841103925,0)" xlink:href="#aS"/><use transform="matrix(0.10012737735520977,0,0,0.10012737735520977,145.6853340518302,0)" xlink:href="#aT"/><use transform="matrix(0.10012737735520977,0,0,0.10012737735520977,173.72099971128895,0)" xlink:href="#aQ"/><use transform="matrix(0.10012737735520977,0,0,0.10012737735520977,199.65399044628828,0)" xlink:href="#aU"/></g><path fill="#999" d="M24-248c120-7 223 5 221 122C244-46 201 0 124 0H24v-248zM76-40c74 7 117-18 117-86 0-67-45-88-117-82v168" id="aV"/><path fill="#999" d="M238-95c0 69-44 99-111 99C63 4 22-25 22-93v-155h51v151c-1 38 19 59 55 60 90 1 49-130 58-211h52v153" id="aW"/><path fill="#999" d="M24 0v-248h52v208h133V0H24" id="aX"/><g id="b"><use transform="matrix(0.10012737735520977,0,0,0.10012737735520977,0,0)" xlink:href="#aU"/><use transform="matrix(0.10012737735520977,0,0,0.10012737735520977,29.938085829207722,0)" xlink:href="#aT"/><use transform="matrix(0.10012737735520977,0,0,0.10012737735520977,57.97375148866646,0)" xlink:href="#aV"/><use transform="matrix(0.10012737735520977,0,0,0.10012737735520977,83.90674222366579,0)" xlink:href="#aW"/><use transform="matrix(0.10012737735520977,0,0,0.10012737735520977,109.83973295866511,0)" xlink:href="#aX"/><use transform="matrix(0.10012737735520977,0,0,0.10012737735520977,131.76762859945606,0)" xlink:href="#aP"/></g><path fill="#999" d="M67-125c0 53 21 87 73 88 37 1 54-22 65-47l45 17C233-25 199 4 140 4 58 4 20-42 15-125 8-235 124-281 211-232c18 10 29 29 36 50l-46 12c-8-25-30-41-62-41-52 0-71 34-72 86" id="aY"/><path fill="#999" d="M24 0v-248h52V0H24" id="aZ"/><path fill="#999" d="M175 0L67-191c6 58 2 128 3 191H24v-248h59L193-55c-6-58-2-129-3-193h46V0h-61" id="ba"/><g id="c"><use transform="matrix(0.10012737735520977,0,0,0.10012737735520977,0,0)" xlink:href="#aY"/><use transform="matrix(0.10012737735520977,0,0,0.10012737735520977,25.93299073499933,0)" xlink:href="#aQ"/><use transform="matrix(0.10012737735520977,0,0,0.10012737735520977,51.86598146999866,0)" xlink:href="#aP"/><use transform="matrix(0.10012737735520977,0,0,0.10012737735520977,75.896552035249,0)" xlink:href="#aR"/><use transform="matrix(0.10012737735520977,0,0,0.10012737735520977,99.12610358165767,0)" xlink:href="#aO"/><use transform="matrix(0.10012737735520977,0,0,0.10012737735520977,121.05399922244861,0)" xlink:href="#aZ"/><use transform="matrix(0.10012737735520977,0,0,0.10012737735520977,131.0667369579696,0)" xlink:href="#aT"/><use transform="matrix(0.10012737735520977,0,0,0.10012737735520977,159.10240261742834,0)" xlink:href="#ba"/></g><path fill="#999" d="M275 0h-61l-44-196L126 0H64L0-248h53L97-49l45-199h58l43 199 44-199h52" id="bb"/><path fill="#999" d="M195 0l-88-114-31 24V0H24v-248h52v113l112-113h60L142-143 257 0h-62" id="bc"/><g id="d"><use transform="matrix(0.10012737735520977,0,0,0.10012737735520977,0,0)" xlink:href="#bb"/><use transform="matrix(0.10012737735520977,0,0,0.10012737735520977,33.94318092341611,0)" xlink:href="#aT"/><use transform="matrix(0.10012737735520977,0,0,0.10012737735520977,61.978846582874844,0)" xlink:href="#aQ"/><use transform="matrix(0.10012737735520977,0,0,0.10012737735520977,87.91183731787417,0)" xlink:href="#bc"/><use transform="matrix(0.10012737735520977,0,0,0.10012737735520977,113.84482805287351,0)" xlink:href="#aS"/><use transform="matrix(0.10012737735520977,0,0,0.10012737735520977,135.77272369366446,0)" xlink:href="#aX"/><use transform="matrix(0.10012737735520977,0,0,0.10012737735520977,157.7006193344554,0)" xlink:href="#aT"/><use transform="matrix(0.10012737735520977,0,0,0.10012737735520977,185.73628499391415,0)" xlink:href="#bb"/></g><path fill="#999" d="M30-248c87 1 191-15 191 75 0 78-77 80-158 76V0H30v-248zm33 125c57 0 124 11 124-50 0-59-68-47-124-48v98" id="bd"/><path fill="#999" d="M24 0v-261h32V0H24" id="be"/><path fill="#999" d="M84 4C-5 8 30-112 23-190h32v120c0 31 7 50 39 49 72-2 45-101 50-169h31l1 190h-30c-1-10 1-25-2-33-11 22-28 36-60 37" id="bf"/><path fill="#999" d="M135-143c-3-34-86-38-87 0 15 53 115 12 119 90S17 21 10-45l28-5c4 36 97 45 98 0-10-56-113-15-118-90-4-57 82-63 122-42 12 7 21 19 24 35" id="bg"/><path fill="#999" d="M126-127c33 6 58 20 58 59 0 88-139 92-164 29-3-8-5-16-6-25l32-3c6 27 21 44 54 44 32 0 52-15 52-46 0-38-36-46-79-43v-28c39 1 72-4 72-42 0-27-17-43-46-43-28 0-47 15-49 41l-32-3c6-42 35-63 81-64 48-1 79 21 79 65 0 36-21 52-52 59" id="bh"/><path fill="#999" d="M33 0v-248h34V0H33" id="bi"/><path fill="#999" d="M127-220V0H93v-220H8v-28h204v28h-85" id="bj"/><g id="e"><use transform="matrix(0.07151955525372126,0,0,0.07151955525372126,0,0)" xlink:href="#bd"/><use transform="matrix(0.07151955525372126,0,0,0.07151955525372126,17.164693260893102,0)" xlink:href="#be"/><use transform="matrix(0.07151955525372126,0,0,0.07151955525372126,22.814738125937083,0)" xlink:href="#bf"/><use transform="matrix(0.07151955525372126,0,0,0.07151955525372126,37.11864917668134,0)" xlink:href="#bg"/><use transform="matrix(0.07151955525372126,0,0,0.07151955525372126,49.992169122351164,0)" xlink:href="#bh"/><use transform="matrix(0.07151955525372126,0,0,0.07151955525372126,64.29608017309542,0)" xlink:href="#bi"/><use transform="matrix(0.07151955525372126,0,0,0.07151955525372126,71.44803569846755,0)" xlink:href="#bj"/></g><path fill="#999" d="M32 76v-337h29V76H32" id="bk"/><use transform="matrix(0.07151955525372126,0,0,0.07151955525372126,0,0)" xlink:href="#bk" id="f"/><path fill="#999" d="M153-248C145-148 188 4 80 4 36 3 13-21 6-62l32-5c4 25 16 42 43 43 27 0 39-20 39-49v-147H72v-28h81" id="bl"/><path fill="#999" d="M179-190L93 31C79 59 56 82 12 73V49c39 6 53-20 64-50L1-190h34L92-34l54-156h33" id="bm"/><g id="g"><use transform="matrix(0.07151955525372126,0,0,0.07151955525372126,0,0)" xlink:href="#bl"/><use transform="matrix(0.07151955525372126,0,0,0.07151955525372126,12.873519945669827,0)" xlink:href="#bf"/><use transform="matrix(0.07151955525372126,0,0,0.07151955525372126,27.17743099641408,0)" xlink:href="#be"/><use transform="matrix(0.07151955525372126,0,0,0.07151955525372126,32.82747586145806,0)" xlink:href="#bm"/></g><path fill="#999" d="M68-38c1 34 0 65-14 84H32c9-13 17-26 17-46H33v-38h35" id="bn"/><g id="h"><use transform="matrix(0.07151955525372126,0,0,0.07151955525372126,0,0)" xlink:href="#bh"/><use transform="matrix(0.07151955525372126,0,0,0.07151955525372126,14.303911050744253,0)" xlink:href="#bn"/></g><path fill="#999" d="M101-251c82-7 93 87 43 132L82-64C71-53 59-42 53-27h129V0H18c2-99 128-94 128-182 0-28-16-43-45-43s-46 15-49 41l-32-3c6-41 34-60 81-64" id="bo"/><path fill="#999" d="M101-251c68 0 85 55 85 127S166 4 100 4C33 4 14-52 14-124c0-73 17-127 87-127zm-1 229c47 0 54-49 54-102s-4-102-53-102c-51 0-55 48-55 102 0 53 5 102 54 102" id="bp"/><path fill="#999" d="M27 0v-27h64v-190l-56 39v-29l58-41h29v221h61V0H27" id="bq"/><path fill="#999" d="M134-131c28 9 52 24 51 62-1 50-34 73-85 73S17-19 16-69c0-36 21-54 49-61-75-25-45-126 34-121 46 3 78 18 79 63 0 33-17 51-44 57zm-34-11c31 1 46-15 46-44 0-28-17-43-47-42-29 0-46 13-45 42 1 28 16 44 46 44zm1 122c35 0 51-18 51-52 0-30-18-46-53-46-33 0-51 17-51 47 0 34 19 51 53 51" id="br"/><g id="i"><use transform="matrix(0.07151955525372126,0,0,0.07151955525372126,0,0)" xlink:href="#bo"/><use transform="matrix(0.07151955525372126,0,0,0.07151955525372126,14.303911050744253,0)" xlink:href="#bp"/><use transform="matrix(0.07151955525372126,0,0,0.07151955525372126,28.607822101488505,0)" xlink:href="#bq"/><use transform="matrix(0.07151955525372126,0,0,0.07151955525372126,42.911733152232756,0)" xlink:href="#br"/></g><path d="M127-220V0H93v-220H8v-28h204v28h-85" id="bs"/><path d="M100-194c63 0 86 42 84 106H49c0 40 14 67 53 68 26 1 43-12 49-29l28 8c-11 28-37 45-77 45C44 4 14-33 15-96c1-61 26-98 85-98zm52 81c6-60-76-77-97-28-3 7-6 17-6 28h103" id="bt"/><path d="M210-169c-67 3-38 105-44 169h-31v-121c0-29-5-50-35-48C34-165 62-65 56 0H25l-1-190h30c1 10-1 24 2 32 10-44 99-50 107 0 11-21 27-35 58-36 85-2 47 119 55 194h-31v-121c0-29-5-49-35-48" id="bu"/><path d="M115-194c55 1 70 41 70 98S169 2 115 4C84 4 66-9 55-30l1 105H24l-1-265h31l2 30c10-21 28-34 59-34zm-8 174c40 0 45-34 45-75s-6-73-45-74c-42 0-51 32-51 76 0 43 10 73 51 73" id="bv"/><path d="M24 0v-261h32V0H24" id="bw"/><path d="M141-36C126-15 110 5 73 4 37 3 15-17 15-53c-1-64 63-63 125-63 3-35-9-54-41-54-24 1-41 7-42 31l-33-3c5-37 33-52 76-52 45 0 72 20 72 64v82c-1 20 7 32 28 27v20c-31 9-61-2-59-35zM48-53c0 20 12 33 32 33 41-3 63-29 60-74-43 2-92-5-92 41" id="bx"/><path d="M59-47c-2 24 18 29 38 22v24C64 9 27 4 27-40v-127H5v-23h24l9-43h21v43h35v23H59v120" id="by"/><g id="j"><use transform="matrix(0.05,0,0,0.05,0,0)" xlink:href="#bs"/><use transform="matrix(0.05,0,0,0.05,8.950000000000001,0)" xlink:href="#bt"/><use transform="matrix(0.05,0,0,0.05,18.950000000000003,0)" xlink:href="#bu"/><use transform="matrix(0.05,0,0,0.05,33.900000000000006,0)" xlink:href="#bv"/><use transform="matrix(0.05,0,0,0.05,43.900000000000006,0)" xlink:href="#bw"/><use transform="matrix(0.05,0,0,0.05,47.85000000000001,0)" xlink:href="#bx"/><use transform="matrix(0.05,0,0,0.05,57.85,0)" xlink:href="#by"/><use transform="matrix(0.05,0,0,0.05,62.85,0)" xlink:href="#bt"/></g><path d="M240 0l2-218c-23 76-54 145-80 218h-23L58-218 59 0H30v-248h44l77 211c21-75 51-140 76-211h43V0h-30" id="bz"/><path d="M117-194c89-4 53 116 60 194h-32v-121c0-31-8-49-39-48C34-167 62-67 57 0H25l-1-190h30c1 10-1 24 2 32 11-22 29-35 61-36" id="bA"/><path d="M177-190C167-65 218 103 67 71c-23-6-38-20-44-43l32-5c15 47 100 32 89-28v-30C133-14 115 1 83 1 29 1 15-40 15-95c0-56 16-97 71-98 29-1 48 16 59 35 1-10 0-23 2-32h30zM94-22c36 0 50-32 50-73 0-42-14-75-50-75-39 0-46 34-46 75s6 73 46 73" id="bB"/><path d="M114-163C36-179 61-72 57 0H25l-1-190h30c1 12-1 29 2 39 6-27 23-49 58-41v29" id="bC"/><g id="k"><use transform="matrix(0.05,0,0,0.05,0,0)" xlink:href="#bz"/><use transform="matrix(0.05,0,0,0.05,14.950000000000001,0)" xlink:href="#bx"/><use transform="matrix(0.05,0,0,0.05,24.950000000000003,0)" xlink:href="#bA"/><use transform="matrix(0.05,0,0,0.05,34.95,0)" xlink:href="#bx"/><use transform="matrix(0.05,0,0,0.05,44.95,0)" xlink:href="#bB"/><use transform="matrix(0.05,0,0,0.05,54.95,0)" xlink:href="#bt"/><use transform="matrix(0.05,0,0,0.05,64.95,0)" xlink:href="#bC"/></g><path d="M137 0h-34L2-248h35l83 218 83-218h36" id="bD"/><path d="M212-179c-10-28-35-45-73-45-59 0-87 40-87 99 0 60 29 101 89 101 43 0 62-24 78-52l27 14C228-24 195 4 139 4 59 4 22-46 18-125c-6-104 99-153 187-111 19 9 31 26 39 46" id="bE"/><path d="M185-189c-5-48-123-54-124 2 14 75 158 14 163 119 3 78-121 87-175 55-17-10-28-26-33-46l33-7c5 56 141 63 141-1 0-78-155-14-162-118-5-82 145-84 179-34 5 7 8 16 11 25" id="bF"/><g id="l"><use transform="matrix(0.05,0,0,0.05,0,0)" xlink:href="#bD"/><use transform="matrix(0.05,0,0,0.05,12,0)" xlink:href="#bE"/><use transform="matrix(0.05,0,0,0.05,24.950000000000003,0)" xlink:href="#bF"/></g><path d="M87 75C49 33 22-17 22-94c0-76 28-126 65-167h31c-38 41-64 92-64 168S80 34 118 75H87" id="bG"/><path d="M143 4C61 4 22-44 18-125c-5-107 100-154 193-111 17 8 29 25 37 43l-32 9c-13-25-37-40-76-40-61 0-88 39-88 99 0 61 29 100 91 101 35 0 62-11 79-27v-45h-74v-28h105v86C228-13 192 4 143 4" id="bH"/><path d="M33 0v-248h34V0H33" id="bI"/><path d="M30 0v-248h33v221h125V0H30" id="bJ"/><path d="M205 0l-28-72H64L36 0H1l101-248h38L239 0h-34zm-38-99l-47-123c-12 45-31 82-46 123h93" id="bK"/><path d="M160-131c35 5 61 23 61 61C221 17 115-2 30 0v-248c76 3 177-17 177 60 0 33-19 50-47 57zm-97-11c50-1 110 9 110-42 0-47-63-36-110-37v79zm0 115c55-2 124 14 124-45 0-56-70-42-124-44v89" id="bL"/><path d="M33-261c38 41 65 92 65 168S71 34 33 75H2C39 34 66-17 66-93S39-220 2-261h31" id="bM"/><g id="m"><use transform="matrix(0.05,0,0,0.05,0,0)" xlink:href="#bG"/><use transform="matrix(0.05,0,0,0.05,5.95,0)" xlink:href="#bH"/><use transform="matrix(0.05,0,0,0.05,19.95,0)" xlink:href="#bI"/><use transform="matrix(0.05,0,0,0.05,24.95,0)" xlink:href="#bs"/><use transform="matrix(0.05,0,0,0.05,35.9,0)" xlink:href="#bJ"/><use transform="matrix(0.05,0,0,0.05,45.9,0)" xlink:href="#bK"/><use transform="matrix(0.05,0,0,0.05,57.900000000000006,0)" xlink:href="#bL"/><use transform="matrix(0.05,0,0,0.05,69.9,0)" xlink:href="#bM"/></g><path d="M96-169c-40 0-48 33-48 73s9 75 48 75c24 0 41-14 43-38l32 2c-6 37-31 61-74 61-59 0-76-41-82-99-10-93 101-131 147-64 4 7 5 14 7 22l-32 3c-4-21-16-35-41-35" id="bN"/><path d="M24-231v-30h32v30H24zM24 0v-190h32V0H24" id="bO"/><g id="n"><use transform="matrix(0.05,0,0,0.05,0,0)" xlink:href="#bF"/><use transform="matrix(0.05,0,0,0.05,12,0)" xlink:href="#bN"/><use transform="matrix(0.05,0,0,0.05,21,0)" xlink:href="#bC"/><use transform="matrix(0.05,0,0,0.05,26.950000000000003,0)" xlink:href="#bO"/><use transform="matrix(0.05,0,0,0.05,30.899999999999995,0)" xlink:href="#bv"/><use transform="matrix(0.05,0,0,0.05,40.9,0)" xlink:href="#by"/><use transform="matrix(0.05,0,0,0.05,45.9,0)" xlink:href="#bO"/><use transform="matrix(0.05,0,0,0.05,49.85,0)" xlink:href="#bA"/><use transform="matrix(0.05,0,0,0.05,59.85,0)" xlink:href="#bB"/></g><path d="M197 0v-115H63V0H30v-248h33v105h134v-105h34V0h-34" id="bP"/><path d="M100-194c62-1 85 37 85 99 1 63-27 99-86 99S16-35 15-95c0-66 28-99 85-99zM99-20c44 1 53-31 53-75 0-43-8-75-51-75s-53 32-53 75 10 74 51 75" id="bQ"/><path d="M135-143c-3-34-86-38-87 0 15 53 115 12 119 90S17 21 10-45l28-5c4 36 97 45 98 0-10-56-113-15-118-90-4-57 82-63 122-42 12 7 21 19 24 35" id="bR"/><g id="o"><use transform="matrix(0.05,0,0,0.05,0,0)" xlink:href="#bP"/><use transform="matrix(0.05,0,0,0.05,12.950000000000001,0)" xlink:href="#bQ"/><use transform="matrix(0.05,0,0,0.05,22.950000000000003,0)" xlink:href="#bR"/><use transform="matrix(0.05,0,0,0.05,31.950000000000003,0)" xlink:href="#by"/></g><path d="M206 0h-36l-40-164L89 0H53L-1-190h32L70-26l43-164h34l41 164 42-164h31" id="bS"/><path d="M115-194c53 0 69 39 70 98 0 66-23 100-70 100C84 3 66-7 56-30L54 0H23l1-261h32v101c10-23 28-34 59-34zm-8 174c40 0 45-34 45-75 0-40-5-75-45-74-42 0-51 32-51 76 0 43 10 73 51 73" id="bT"/><path d="M106-169C34-169 62-67 57 0H25v-261h32l-1 103c12-21 28-36 61-36 89 0 53 116 60 194h-32v-121c2-32-8-49-39-48" id="bU"/><path d="M143 0L79-87 56-68V0H24v-261h32v163l83-92h37l-77 82L181 0h-38" id="bV"/><g id="p"><use transform="matrix(0.05,0,0,0.05,0,0)" xlink:href="#bG"/><use transform="matrix(0.05,0,0,0.05,5.95,0)" xlink:href="#bS"/><use transform="matrix(0.05,0,0,0.05,18.900000000000002,0)" xlink:href="#bt"/><use transform="matrix(0.05,0,0,0.05,28.900000000000002,0)" xlink:href="#bT"/><use transform="matrix(0.05,0,0,0.05,38.900000000000006,0)" xlink:href="#bU"/><use transform="matrix(0.05,0,0,0.05,48.900000000000006,0)" xlink:href="#bQ"/><use transform="matrix(0.05,0,0,0.05,58.900000000000006,0)" xlink:href="#bQ"/><use transform="matrix(0.05,0,0,0.05,68.9,0)" xlink:href="#bV"/><use transform="matrix(0.05,0,0,0.05,77.9,0)" xlink:href="#bM"/></g><path fill="#333" d="M24-248c93 1 206-16 204 79-1 75-69 88-152 82V0H24v-248zm52 121c47 0 100 7 100-41 0-47-54-39-100-39v80" id="bW"/><path fill="#333" d="M85 4C-2 5 27-109 22-190h50c7 57-23 150 33 157 60-5 35-97 40-157h50l1 190h-47c-2-12 1-28-3-38-12 25-28 42-61 42" id="bX"/><path fill="#333" d="M137-138c1-29-70-34-71-4 15 46 118 7 119 86 1 83-164 76-172 9l43-7c4 19 20 25 44 25 33 8 57-30 24-41C81-84 22-81 20-136c-2-80 154-74 161-7" id="bY"/><path fill="#333" d="M114-157C55-157 80-60 75 0H25v-261h50l-1 109c12-26 28-41 61-42 86-1 58 113 63 194h-50c-7-57 23-157-34-157" id="bZ"/><g id="q"><use transform="matrix(0.057215644202977006,0,0,0.057215644202977006,0,0)" xlink:href="#bW"/><use transform="matrix(0.057215644202977006,0,0,0.057215644202977006,13.731754608714482,0)" xlink:href="#bX"/><use transform="matrix(0.057215644202977006,0,0,0.057215644202977006,26.261980689166446,0)" xlink:href="#bY"/><use transform="matrix(0.057215644202977006,0,0,0.057215644202977006,37.70510952976185,0)" xlink:href="#bZ"/></g><path fill="#333" d="M136-208V0H84v-208H4v-40h212v40h-80" id="ca"/><path fill="#333" d="M76-208v77h127v40H76V0H24v-248h183v40H76" id="cb"/><g id="r"><use transform="matrix(0.057215644202977006,0,0,0.057215644202977006,0,0)" xlink:href="#ca"/><use transform="matrix(0.057215644202977006,0,0,0.057215644202977006,12.530226080451964,0)" xlink:href="#cb"/></g><path fill="#333" d="M230 0l2-204L168 0h-37L68-204 70 0H24v-248h70l56 185 57-185h69V0h-46" id="cc"/><path fill="#333" d="M110-194c64 0 96 36 96 99 0 64-35 99-97 99-61 0-95-36-95-99 0-62 34-99 96-99zm-1 164c35 0 45-28 45-65 0-40-10-65-43-65-34 0-45 26-45 65 0 36 10 65 43 65" id="cd"/><path fill="#333" d="M88-194c31-1 46 15 58 34l-1-101h50l1 261h-48c-2-10 0-23-3-31C134-8 116 4 84 4 32 4 16-41 15-95c0-56 19-97 73-99zm17 164c33 0 40-30 41-66 1-37-9-64-41-64s-38 30-39 65c0 43 13 65 39 65" id="ce"/><path fill="#333" d="M25 0v-261h50V0H25" id="cf"/><path fill="#333" d="M185-48c-13 30-37 53-82 52C43 2 14-33 14-96s30-98 90-98c62 0 83 45 84 108H66c0 31 8 55 39 56 18 0 30-7 34-22zm-45-69c5-46-57-63-70-21-2 6-4 13-4 21h74" id="cg"/><g id="s"><use transform="matrix(0.057215644202977006,0,0,0.057215644202977006,0,0)" xlink:href="#cc"/><use transform="matrix(0.057215644202977006,0,0,0.057215644202977006,17.107477616690126,0)" xlink:href="#cd"/><use transform="matrix(0.057215644202977006,0,0,0.057215644202977006,29.63770369714209,0)" xlink:href="#ce"/><use transform="matrix(0.057215644202977006,0,0,0.057215644202977006,42.167929777594054,0)" xlink:href="#bX"/><use transform="matrix(0.057215644202977006,0,0,0.057215644202977006,54.69815585804602,0)" xlink:href="#cf"/><use transform="matrix(0.057215644202977006,0,0,0.057215644202977006,60.41972027834372,0)" xlink:href="#cg"/></g><path fill="#333" d="M115-3C79 11 28 4 28-45v-112H4v-33h27l15-45h31v45h36v33H77v99c-1 23 16 31 38 25v30" id="ch"/><g id="t"><use transform="matrix(0.057215644202977006,0,0,0.057215644202977006,0,0)" xlink:href="#ch"/><use transform="matrix(0.057215644202977006,0,0,0.057215644202977006,6.8086616601542636,0)" xlink:href="#cd"/></g><path fill="#333" d="M147 0H94L2-248h55l64 206c17-72 42-137 63-206h54" id="ci"/><path fill="#333" d="M67-125c0 53 21 87 73 88 37 1 54-22 65-47l45 17C233-25 199 4 140 4 58 4 20-42 15-125 8-235 124-281 211-232c18 10 29 29 36 50l-46 12c-8-25-30-41-62-41-52 0-71 34-72 86" id="cj"/><path fill="#333" d="M169-182c-1-43-94-46-97-3 18 66 151 10 154 114 3 95-165 93-204 36-6-8-10-19-12-30l50-8c3 46 112 56 116 5-17-69-150-10-154-114-4-87 153-88 188-35 5 8 8 18 10 28" id="ck"/><g id="u"><use transform="matrix(0.057215644202977006,0,0,0.057215644202977006,0,0)" xlink:href="#ci"/><use transform="matrix(0.057215644202977006,0,0,0.057215644202977006,13.731754608714482,0)" xlink:href="#cj"/><use transform="matrix(0.057215644202977006,0,0,0.057215644202977006,28.550606457285525,0)" xlink:href="#ck"/></g><path d="M67-125c0 53 21 87 73 88 37 1 54-22 65-47l45 17C233-25 199 4 140 4 58 4 20-42 15-125 8-235 124-281 211-232c18 10 29 29 36 50l-46 12c-8-25-30-41-62-41-52 0-71 34-72 86" id="cl"/><path d="M135-150c-39-12-60 13-60 57V0H25l-1-190h47c2 13-1 29 3 40 6-28 27-53 61-41v41" id="cm"/><path d="M185-48c-13 30-37 53-82 52C43 2 14-33 14-96s30-98 90-98c62 0 83 45 84 108H66c0 31 8 55 39 56 18 0 30-7 34-22zm-45-69c5-46-57-63-70-21-2 6-4 13-4 21h74" id="cn"/><path d="M133-34C117-15 103 5 69 4 32 3 11-16 11-54c-1-60 55-63 116-61 1-26-3-47-28-47-18 1-26 9-28 27l-52-2c7-38 36-58 82-57s74 22 75 68l1 82c-1 14 12 18 25 15v27c-30 8-71 5-69-32zm-48 3c29 0 43-24 42-57-32 0-66-3-65 30 0 17 8 27 23 27" id="co"/><path d="M115-3C79 11 28 4 28-45v-112H4v-33h27l15-45h31v45h36v33H77v99c-1 23 16 31 38 25v30" id="cp"/><g id="v"><use transform="matrix(0.057215644202977006,0,0,0.057215644202977006,0,0)" xlink:href="#cl"/><use transform="matrix(0.057215644202977006,0,0,0.057215644202977006,14.818851848571045,0)" xlink:href="#cm"/><use transform="matrix(0.057215644202977006,0,0,0.057215644202977006,22.829042036987826,0)" xlink:href="#cn"/><use transform="matrix(0.057215644202977006,0,0,0.057215644202977006,34.27217087758323,0)" xlink:href="#co"/><use transform="matrix(0.057215644202977006,0,0,0.057215644202977006,45.71529971817863,0)" xlink:href="#cp"/><use transform="matrix(0.057215644202977006,0,0,0.057215644202977006,52.52396137833289,0)" xlink:href="#cn"/></g><path d="M136-208V0H84v-208H4v-40h212v40h-80" id="cq"/><path d="M76-208v77h127v40H76V0H24v-248h183v40H76" id="cr"/><g id="w"><use transform="matrix(0.057215644202977006,0,0,0.057215644202977006,0,0)" xlink:href="#cq"/><use transform="matrix(0.057215644202977006,0,0,0.057215644202977006,12.530226080451964,0)" xlink:href="#cr"/></g><path d="M230 0l2-204L168 0h-37L68-204 70 0H24v-248h70l56 185 57-185h69V0h-46" id="cs"/><path d="M110-194c64 0 96 36 96 99 0 64-35 99-97 99-61 0-95-36-95-99 0-62 34-99 96-99zm-1 164c35 0 45-28 45-65 0-40-10-65-43-65-34 0-45 26-45 65 0 36 10 65 43 65" id="ct"/><path d="M88-194c31-1 46 15 58 34l-1-101h50l1 261h-48c-2-10 0-23-3-31C134-8 116 4 84 4 32 4 16-41 15-95c0-56 19-97 73-99zm17 164c33 0 40-30 41-66 1-37-9-64-41-64s-38 30-39 65c0 43 13 65 39 65" id="cu"/><path d="M85 4C-2 5 27-109 22-190h50c7 57-23 150 33 157 60-5 35-97 40-157h50l1 190h-47c-2-12 1-28-3-38-12 25-28 42-61 42" id="cv"/><g id="x"><use transform="matrix(0.057215644202977006,0,0,0.057215644202977006,0,0)" xlink:href="#cs"/><use transform="matrix(0.057215644202977006,0,0,0.057215644202977006,17.107477616690126,0)" xlink:href="#ct"/><use transform="matrix(0.057215644202977006,0,0,0.057215644202977006,29.63770369714209,0)" xlink:href="#cu"/><use transform="matrix(0.057215644202977006,0,0,0.057215644202977006,42.167929777594054,0)" xlink:href="#cv"/><use transform="matrix(0.057215644202977006,0,0,0.057215644202977006,54.69815585804602,0)" xlink:href="#cn"/></g><path d="M169-182c-1-43-94-46-97-3 18 66 151 10 154 114 3 95-165 93-204 36-6-8-10-19-12-30l50-8c3 46 112 56 116 5-17-69-150-10-154-114-4-87 153-88 188-35 5 8 8 18 10 28" id="cw"/><path d="M135-194c87-1 58 113 63 194h-50c-7-57 23-157-34-157-59 0-34 97-39 157H25l-1-190h47c2 12-1 28 3 38 12-26 28-41 61-42" id="cx"/><g id="y"><use transform="matrix(0.05,0,0,0.05,0,0)" xlink:href="#cw"/><use transform="matrix(0.05,0,0,0.05,12,0)" xlink:href="#cn"/><use transform="matrix(0.05,0,0,0.05,22,0)" xlink:href="#cx"/><use transform="matrix(0.05,0,0,0.05,32.95,0)" xlink:href="#cu"/></g><path d="M128 0H69L1-190h53L99-40l48-150h52" id="cy"/><g id="z"><use transform="matrix(0.05,0,0,0.05,0,0)" xlink:href="#cn"/><use transform="matrix(0.05,0,0,0.05,10,0)" xlink:href="#cy"/><use transform="matrix(0.05,0,0,0.05,20,0)" xlink:href="#cn"/><use transform="matrix(0.05,0,0,0.05,30,0)" xlink:href="#cx"/><use transform="matrix(0.05,0,0,0.05,40.95,0)" xlink:href="#cp"/></g><path d="M25-224v-37h50v37H25zM25 0v-190h50V0H25" id="cz"/><path d="M195-6C206 82 75 100 31 46c-4-6-6-13-8-21l49-6c3 16 16 24 34 25 40 0 42-37 40-79-11 22-30 35-61 35-53 0-70-43-70-97 0-56 18-96 73-97 30 0 46 14 59 34l2-30h47zm-90-29c32 0 41-27 41-63 0-35-9-62-40-62-32 0-39 29-40 63 0 36 9 62 39 62" id="cA"/><g id="A"><use transform="matrix(0.05,0,0,0.05,0,0)" xlink:href="#cp"/><use transform="matrix(0.05,0,0,0.05,5.95,0)" xlink:href="#cm"/><use transform="matrix(0.05,0,0,0.05,12.949999999999998,0)" xlink:href="#cz"/><use transform="matrix(0.05,0,0,0.05,17.95,0)" xlink:href="#cA"/><use transform="matrix(0.05,0,0,0.05,28.899999999999995,0)" xlink:href="#cA"/><use transform="matrix(0.05,0,0,0.05,39.85,0)" xlink:href="#cn"/><use transform="matrix(0.05,0,0,0.05,49.85,0)" xlink:href="#cm"/></g><g id="B"><use transform="matrix(0.05,0,0,0.05,0,0)" xlink:href="#cu"/><use transform="matrix(0.05,0,0,0.05,10.950000000000001,0)" xlink:href="#co"/><use transform="matrix(0.05,0,0,0.05,20.950000000000003,0)" xlink:href="#cp"/><use transform="matrix(0.05,0,0,0.05,26.900000000000002,0)" xlink:href="#co"/></g><g id="C"><use transform="matrix(0.05,0,0,0.05,0,0)" xlink:href="#cp"/><use transform="matrix(0.05,0,0,0.05,5.95,0)" xlink:href="#ct"/></g><path d="M114-157C55-157 80-60 75 0H25v-261h50l-1 109c12-26 28-41 61-42 86-1 58 113 63 194h-50c-7-57 23-157-34-157" id="cB"/><g id="D"><use transform="matrix(0.05,0,0,0.05,0,0)" xlink:href="#cp"/><use transform="matrix(0.05,0,0,0.05,5.95,0)" xlink:href="#cB"/><use transform="matrix(0.05,0,0,0.05,16.900000000000002,0)" xlink:href="#cn"/></g><path d="M231 0h-52l-39-155L100 0H48L-1-190h46L77-45c9-52 24-97 36-145h53l37 145 32-145h46" id="cC"/><path d="M135-194c52 0 70 43 70 98 0 56-19 99-73 100-30 1-46-15-58-35L72 0H24l1-261h50v104c11-23 29-37 60-37zM114-30c31 0 40-27 40-66 0-37-7-63-39-63s-41 28-41 65c0 36 8 64 40 64" id="cD"/><path d="M147 0L96-86 75-71V0H25v-261h50v150l67-79h53l-66 74L201 0h-54" id="cE"/><g id="E"><use transform="matrix(0.05,0,0,0.05,0,0)" xlink:href="#cC"/><use transform="matrix(0.05,0,0,0.05,14,0)" xlink:href="#cn"/><use transform="matrix(0.05,0,0,0.05,24,0)" xlink:href="#cD"/><use transform="matrix(0.05,0,0,0.05,34.95,0)" xlink:href="#cB"/><use transform="matrix(0.05,0,0,0.05,45.900000000000006,0)" xlink:href="#ct"/><use transform="matrix(0.05,0,0,0.05,56.85,0)" xlink:href="#ct"/><use transform="matrix(0.05,0,0,0.05,67.80000000000001,0)" xlink:href="#cE"/></g><g id="F"><use transform="matrix(0.05,0,0,0.05,0,0)" xlink:href="#cy"/><use transform="matrix(0.05,0,0,0.05,10,0)" xlink:href="#cz"/><use transform="matrix(0.05,0,0,0.05,15,0)" xlink:href="#co"/></g><path d="M240-174c0 40-23 61-54 70L253 0h-59l-57-94H76V0H24v-248c93 4 217-23 216 74zM76-134c48-2 112 12 112-38 0-48-66-32-112-35v73" id="cF"/><path d="M24 0v-248h195v40H76v63h132v40H76v65h150V0H24" id="cG"/><g id="G"><use transform="matrix(0.05,0,0,0.05,0,0)" xlink:href="#cF"/><use transform="matrix(0.05,0,0,0.05,12.950000000000001,0)" xlink:href="#cG"/><use transform="matrix(0.05,0,0,0.05,24.950000000000003,0)" xlink:href="#cw"/><use transform="matrix(0.05,0,0,0.05,36.95,0)" xlink:href="#cq"/></g><path d="M190-63c-7 42-38 67-86 67-59 0-84-38-90-98-12-110 154-137 174-36l-49 2c-2-19-15-32-35-32-30 0-35 28-38 64-6 74 65 87 74 30" id="cH"/><path d="M25 0v-261h50V0H25" id="cI"/><g id="H"><use transform="matrix(0.05,0,0,0.05,0,0)" xlink:href="#cH"/><use transform="matrix(0.05,0,0,0.05,10,0)" xlink:href="#co"/><use transform="matrix(0.05,0,0,0.05,20,0)" xlink:href="#cI"/><use transform="matrix(0.05,0,0,0.05,25,0)" xlink:href="#cI"/></g><path d="M140-251c80 0 125 45 125 126 0 70-33 111-92 124 6 28 34 38 68 31l-1 36C177 83 129 55 120 2 51-6 15-50 15-125c0-81 44-126 125-126zm-1 214c52 0 73-35 73-88 0-50-21-86-72-86-52 0-73 35-73 86s22 88 72 88" id="cJ"/><path d="M123 10C108 53 80 86 19 72V37c35 8 53-11 59-39L3-190h52l48 148c12-52 28-100 44-148h51" id="cK"/><g id="I"><use transform="matrix(0.05,0,0,0.05,0,0)" xlink:href="#cJ"/><use transform="matrix(0.05,0,0,0.05,14,0)" xlink:href="#cv"/><use transform="matrix(0.05,0,0,0.05,24.950000000000003,0)" xlink:href="#cn"/><use transform="matrix(0.05,0,0,0.05,34.95,0)" xlink:href="#cm"/><use transform="matrix(0.05,0,0,0.05,41.95,0)" xlink:href="#cK"/></g><path d="M175 0L67-191c6 58 2 128 3 191H24v-248h59L193-55c-6-58-2-129-3-193h46V0h-61" id="cL"/><path d="M35-132v-50h50v50H35zM35 0v-49h50V0H35" id="cM"/><g id="J"><use transform="matrix(0.05,0,0,0.05,0,0)" xlink:href="#cw"/><use transform="matrix(0.05,0,0,0.05,12,0)" xlink:href="#cL"/><use transform="matrix(0.05,0,0,0.05,24.950000000000003,0)" xlink:href="#cM"/></g><path d="M199 0l-22-63H83L61 0H9l90-248h61L250 0h-51zm-33-102l-36-108c-10 38-24 72-36 108h72" id="cN"/><path d="M137-138c1-29-70-34-71-4 15 46 118 7 119 86 1 83-164 76-172 9l43-7c4 19 20 25 44 25 33 8 57-30 24-41C81-84 22-81 20-136c-2-80 154-74 161-7" id="cO"/><g id="K"><use transform="matrix(0.05,0,0,0.05,0,0)" xlink:href="#cN"/><use transform="matrix(0.05,0,0,0.05,12.950000000000001,0)" xlink:href="#cO"/><use transform="matrix(0.05,0,0,0.05,22.950000000000003,0)" xlink:href="#cO"/><use transform="matrix(0.05,0,0,0.05,32.95,0)" xlink:href="#ct"/><use transform="matrix(0.05,0,0,0.05,43.900000000000006,0)" xlink:href="#cH"/><use transform="matrix(0.05,0,0,0.05,53.900000000000006,0)" xlink:href="#cz"/><use transform="matrix(0.05,0,0,0.05,58.900000000000006,0)" xlink:href="#co"/><use transform="matrix(0.05,0,0,0.05,68.9,0)" xlink:href="#cp"/><use transform="matrix(0.05,0,0,0.05,74.85000000000001,0)" xlink:href="#cn"/><use transform="matrix(0.05,0,0,0.05,84.85000000000001,0)" xlink:href="#cu"/></g><g id="L"><use transform="matrix(0.05,0,0,0.05,0,0)" xlink:href="#cw"/><use transform="matrix(0.05,0,0,0.05,12,0)" xlink:href="#cL"/></g><g id="M"><use transform="matrix(0.05,0,0,0.05,0,0)" xlink:href="#cl"/><use transform="matrix(0.05,0,0,0.05,12.950000000000001,0)" xlink:href="#co"/><use transform="matrix(0.05,0,0,0.05,22.950000000000003,0)" xlink:href="#cp"/></g><path d="M220-157c-53 9-28 100-34 157h-49v-107c1-27-5-49-29-50C55-147 81-57 75 0H25l-1-190h47c2 12-1 28 3 38 10-53 101-56 108 0 13-22 24-43 59-42 82 1 51 116 57 194h-49v-107c-1-25-5-48-29-50" id="cP"/><g id="N"><use transform="matrix(0.05,0,0,0.05,0,0)" xlink:href="#cz"/><use transform="matrix(0.05,0,0,0.05,5,0)" xlink:href="#cp"/><use transform="matrix(0.05,0,0,0.05,10.95,0)" xlink:href="#cn"/><use transform="matrix(0.05,0,0,0.05,20.95,0)" xlink:href="#cP"/></g><path d="M144 0l-44-69L55 0H2l70-98-66-92h53l41 62 40-62h54l-67 91 71 99h-54" id="cQ"/><path d="M110-251c83-7 118 89 53 130-17 10-36 21-38 46H78c2-56 65-53 71-103 2-21-15-35-38-34-25 1-41 14-44 38l-50-2c6-48 39-70 93-75zM77 0v-47h51V0H77" id="cR"/><g id="O"><use transform="matrix(0.05,0,0,0.05,0,0)" xlink:href="#cn"/><use transform="matrix(0.05,0,0,0.05,10,0)" xlink:href="#cQ"/><use transform="matrix(0.05,0,0,0.05,20,0)" xlink:href="#cz"/><use transform="matrix(0.05,0,0,0.05,25,0)" xlink:href="#cO"/><use transform="matrix(0.05,0,0,0.05,35,0)" xlink:href="#cp"/><use transform="matrix(0.05,0,0,0.05,40.95,0)" xlink:href="#cO"/><use transform="matrix(0.05,0,0,0.05,50.95,0)" xlink:href="#cR"/></g><path d="M190 0L58-211 59 0H30v-248h39L202-35l-2-213h31V0h-41" id="cS"/><path d="M140-251c81 0 123 46 123 126C263-46 219 4 140 4 59 4 17-45 17-125s42-126 123-126zm0 227c63 0 89-41 89-101s-29-99-89-99c-61 0-89 39-89 99S79-25 140-24" id="cT"/><g id="P"><use transform="matrix(0.05,0,0,0.05,0,0)" xlink:href="#cS"/><use transform="matrix(0.05,0,0,0.05,12.950000000000001,0)" xlink:href="#cT"/></g><path d="M137-103V0h-34v-103L8-248h37l75 118 75-118h37" id="cU"/><path d="M30 0v-248h187v28H63v79h144v27H63v87h162V0H30" id="cV"/><g id="Q"><use transform="matrix(0.05,0,0,0.05,0,0)" xlink:href="#cU"/><use transform="matrix(0.05,0,0,0.05,12,0)" xlink:href="#cV"/><use transform="matrix(0.05,0,0,0.05,24,0)" xlink:href="#bF"/></g><path fill="#333" d="M199 0l-22-63H83L61 0H9l90-248h61L250 0h-51zm-33-102l-36-108c-10 38-24 72-36 108h72" id="cW"/><path fill="#333" d="M190-63c-7 42-38 67-86 67-59 0-84-38-90-98-12-110 154-137 174-36l-49 2c-2-19-15-32-35-32-30 0-35 28-38 64-6 74 65 87 74 30" id="cX"/><path fill="#333" d="M25-224v-37h50v37H25zM25 0v-190h50V0H25" id="cY"/><path fill="#333" d="M133-34C117-15 103 5 69 4 32 3 11-16 11-54c-1-60 55-63 116-61 1-26-3-47-28-47-18 1-26 9-28 27l-52-2c7-38 36-58 82-57s74 22 75 68l1 82c-1 14 12 18 25 15v27c-30 8-71 5-69-32zm-48 3c29 0 43-24 42-57-32 0-66-3-65 30 0 17 8 27 23 27" id="cZ"/><g id="R"><use transform="matrix(0.057215644202977006,0,0,0.057215644202977006,0,0)" xlink:href="#cW"/><use transform="matrix(0.057215644202977006,0,0,0.057215644202977006,14.818851848571045,0)" xlink:href="#bY"/><use transform="matrix(0.057215644202977006,0,0,0.057215644202977006,26.261980689166446,0)" xlink:href="#bY"/><use transform="matrix(0.057215644202977006,0,0,0.057215644202977006,37.70510952976185,0)" xlink:href="#cd"/><use transform="matrix(0.057215644202977006,0,0,0.057215644202977006,50.23533561021381,0)" xlink:href="#cX"/><use transform="matrix(0.057215644202977006,0,0,0.057215644202977006,61.678464450809216,0)" xlink:href="#cY"/><use transform="matrix(0.057215644202977006,0,0,0.057215644202977006,67.40002887110691,0)" xlink:href="#cZ"/><use transform="matrix(0.057215644202977006,0,0,0.057215644202977006,78.84315771170232,0)" xlink:href="#ch"/><use transform="matrix(0.057215644202977006,0,0,0.057215644202977006,85.65181937185658,0)" xlink:href="#cg"/></g><path fill="#333" d="M135-150c-39-12-60 13-60 57V0H25l-1-190h47c2 13-1 29 3 40 6-28 27-53 61-41v41" id="da"/><path fill="#333" d="M135-194c53 0 70 44 70 98 0 56-19 98-73 100-31 1-45-17-59-34 3 33 2 69 2 105H25l-1-265h48c2 10 0 23 3 31 11-24 29-35 60-35zM114-30c33 0 39-31 40-66 0-38-9-64-40-64-56 0-55 130 0 130" id="db"/><g id="S"><use transform="matrix(0.057215644202977006,0,0,0.057215644202977006,0,0)" xlink:href="#da"/><use transform="matrix(0.057215644202977006,0,0,0.057215644202977006,8.01019018841678,0)" xlink:href="#cg"/><use transform="matrix(0.057215644202977006,0,0,0.057215644202977006,19.45331902901218,0)" xlink:href="#db"/><use transform="matrix(0.057215644202977006,0,0,0.057215644202977006,31.983545109464146,0)" xlink:href="#cd"/></g><path fill="#333" d="M231 0h-52l-39-155L100 0H48L-1-190h46L77-45c9-52 24-97 36-145h53l37 145 32-145h46" id="dc"/><g id="T"><use transform="matrix(0.057215644202977006,0,0,0.057215644202977006,0,0)" xlink:href="#dc"/><use transform="matrix(0.057215644202977006,0,0,0.057215644202977006,16.02038037683356,0)" xlink:href="#cY"/><use transform="matrix(0.057215644202977006,0,0,0.057215644202977006,21.74194479713126,0)" xlink:href="#ch"/><use transform="matrix(0.057215644202977006,0,0,0.057215644202977006,28.550606457285525,0)" xlink:href="#bZ"/></g><path fill="#333" d="M220-157c-53 9-28 100-34 157h-49v-107c1-27-5-49-29-50C55-147 81-57 75 0H25l-1-190h47c2 12-1 28 3 38 10-53 101-56 108 0 13-22 24-43 59-42 82 1 51 116 57 194h-49v-107c-1-25-5-48-29-50" id="dd"/><g id="U"><use transform="matrix(0.057215644202977006,0,0,0.057215644202977006,0,0)" xlink:href="#cX"/><use transform="matrix(0.057215644202977006,0,0,0.057215644202977006,11.443128840595401,0)" xlink:href="#bX"/><use transform="matrix(0.057215644202977006,0,0,0.057215644202977006,23.973354921047367,0)" xlink:href="#bY"/><use transform="matrix(0.057215644202977006,0,0,0.057215644202977006,35.416483761642766,0)" xlink:href="#ch"/><use transform="matrix(0.057215644202977006,0,0,0.057215644202977006,42.22514542179703,0)" xlink:href="#cd"/><use transform="matrix(0.057215644202977006,0,0,0.057215644202977006,54.75537150224899,0)" xlink:href="#dd"/></g><path fill="#333" d="M135-194c52 0 70 43 70 98 0 56-19 99-73 100-30 1-46-15-58-35L72 0H24l1-261h50v104c11-23 29-37 60-37zM114-30c31 0 40-27 40-66 0-37-7-63-39-63s-41 28-41 65c0 36 8 64 40 64" id="de"/><path fill="#333" d="M147 0L96-86 75-71V0H25v-261h50v150l67-79h53l-66 74L201 0h-54" id="df"/><g id="V"><use transform="matrix(0.057215644202977006,0,0,0.057215644202977006,0,0)" xlink:href="#dc"/><use transform="matrix(0.057215644202977006,0,0,0.057215644202977006,16.02038037683356,0)" xlink:href="#cg"/><use transform="matrix(0.057215644202977006,0,0,0.057215644202977006,27.463509217428964,0)" xlink:href="#de"/><use transform="matrix(0.057215644202977006,0,0,0.057215644202977006,39.99373529788093,0)" xlink:href="#bZ"/><use transform="matrix(0.057215644202977006,0,0,0.057215644202977006,52.5239613783329,0)" xlink:href="#cd"/><use transform="matrix(0.057215644202977006,0,0,0.057215644202977006,65.05418745878487,0)" xlink:href="#cd"/><use transform="matrix(0.057215644202977006,0,0,0.057215644202977006,77.58441353923683,0)" xlink:href="#df"/></g><path fill="#333" d="M135-194c87-1 58 113 63 194h-50c-7-57 23-157-34-157-59 0-34 97-39 157H25l-1-190h47c2 12-1 28 3 38 12-26 28-41 61-42" id="dg"/><g id="W"><use transform="matrix(0.057215644202977006,0,0,0.057215644202977006,0,0)" xlink:href="#cd"/><use transform="matrix(0.057215644202977006,0,0,0.057215644202977006,12.530226080451964,0)" xlink:href="#dg"/></g><path fill="#333" d="M45-171c29-32 103-29 114 14 2-11 5-23 8-33h47L176-2c-3 70-92 96-155 64C9 56 1 42-1 25l50-5c2 28 48 27 63 11 13-13 20-45 21-66-13 20-30 35-62 36-87 3-60-134-26-172zM94-35c41-3 55-43 55-86 0-24-12-39-35-39-43 0-51 48-51 90 0 22 9 37 31 35" id="dh"/><path fill="#333" d="M50-224l7-37h49l-7 37H50zM6 0l37-190h49L55 0H6" id="di"/><path fill="#333" d="M72-63c-8 23 5 39 32 30L98-1C54 14 12-6 23-64l18-93H15l7-33h28l24-45h31l-8 45h35l-6 33H90" id="dj"/><g id="X"><use transform="matrix(0.057215644202977006,0,0,0.057215644202977006,0,0)" xlink:href="#dh"/><use transform="matrix(0.057215644202977006,0,0,0.057215644202977006,12.530226080451964,0)" xlink:href="#di"/><use transform="matrix(0.057215644202977006,0,0,0.057215644202977006,18.251790500749664,0)" xlink:href="#dj"/></g><path fill="#333" d="M156-122c2-23-7-37-28-37-47 0-58 44-58 89 0 24 12 40 36 40 43 0 47-49 50-92zM-8 75l50-265h48c0 10-3 24-3 30 22-50 127-45 121 29-6 73-21 135-92 135-29 0-46-14-55-35L41 75H-8" id="dk"/><path fill="#333" d="M69 3c-96 0-34-126-28-193h49L65-57c6 42 62 18 71-6 14-38 17-86 28-127h50L178 0h-47c0-11 4-26 3-33-14 20-30 37-65 36" id="dl"/><path fill="#333" d="M144-137c-1-29-70-35-71-2 16 41 103 10 103 80C176 9 79 16 32-9 18-17 9-31 4-48l44-6c3 32 80 36 82 1-15-42-103-11-103-82 0-77 157-79 161-8" id="dm"/><path fill="#333" d="M150-105c8-23 8-54-22-51-68 7-54 98-72 156H6l50-261h50L85-158c15-20 33-36 66-36 95 0 34 128 28 194h-49" id="dn"/><g id="Y"><use transform="matrix(0.057215644202977006,0,0,0.057215644202977006,0,0)" xlink:href="#dk"/><use transform="matrix(0.057215644202977006,0,0,0.057215644202977006,12.530226080451964,0)" xlink:href="#dl"/><use transform="matrix(0.057215644202977006,0,0,0.057215644202977006,25.060452160903928,0)" xlink:href="#dm"/><use transform="matrix(0.057215644202977006,0,0,0.057215644202977006,36.50358100149933,0)" xlink:href="#dn"/></g><path fill="#333" d="M128 0H69L1-190h53L99-40l48-150h52" id="do"/><g id="Z"><use transform="matrix(0.057215644202977006,0,0,0.057215644202977006,0,0)" xlink:href="#cg"/><use transform="matrix(0.057215644202977006,0,0,0.057215644202977006,11.443128840595401,0)" xlink:href="#do"/><use transform="matrix(0.057215644202977006,0,0,0.057215644202977006,22.886257681190802,0)" xlink:href="#cg"/><use transform="matrix(0.057215644202977006,0,0,0.057215644202977006,34.329386521786205,0)" xlink:href="#dg"/><use transform="matrix(0.057215644202977006,0,0,0.057215644202977006,46.85961260223817,0)" xlink:href="#ch"/><use transform="matrix(0.057215644202977006,0,0,0.057215644202977006,53.66827426239244,0)" xlink:href="#bY"/></g><g id="aa"><use transform="matrix(0.057215644202977006,0,0,0.057215644202977006,0,0)" xlink:href="#cW"/><use transform="matrix(0.057215644202977006,0,0,0.057215644202977006,14.818851848571045,0)" xlink:href="#ce"/><use transform="matrix(0.057215644202977006,0,0,0.057215644202977006,27.34907792902301,0)" xlink:href="#ce"/></g><path fill="#333" d="M62-158H24l-5-90h48" id="dp"/><g id="ab"><use transform="matrix(0.057215644202977006,0,0,0.057215644202977006,0,0)" xlink:href="#dc"/><use transform="matrix(0.057215644202977006,0,0,0.057215644202977006,16.02038037683356,0)" xlink:href="#cg"/><use transform="matrix(0.057215644202977006,0,0,0.057215644202977006,27.463509217428964,0)" xlink:href="#de"/><use transform="matrix(0.057215644202977006,0,0,0.057215644202977006,39.99373529788093,0)" xlink:href="#bZ"/><use transform="matrix(0.057215644202977006,0,0,0.057215644202977006,52.5239613783329,0)" xlink:href="#cd"/><use transform="matrix(0.057215644202977006,0,0,0.057215644202977006,65.05418745878487,0)" xlink:href="#cd"/><use transform="matrix(0.057215644202977006,0,0,0.057215644202977006,77.58441353923683,0)" xlink:href="#df"/><use transform="matrix(0.057215644202977006,0,0,0.057215644202977006,89.02754237983224,0)" xlink:href="#dp"/><use transform="matrix(0.057215644202977006,0,0,0.057215644202977006,93.89087213708528,0)" xlink:href="#bY"/></g><g id="ac"><use transform="matrix(0.057215644202977006,0,0,0.057215644202977006,0,0)" xlink:href="#db"/><use transform="matrix(0.057215644202977006,0,0,0.057215644202977006,12.530226080451964,0)" xlink:href="#bX"/><use transform="matrix(0.057215644202977006,0,0,0.057215644202977006,25.060452160903928,0)" xlink:href="#de"/><use transform="matrix(0.057215644202977006,0,0,0.057215644202977006,37.59067824135589,0)" xlink:href="#cf"/><use transform="matrix(0.057215644202977006,0,0,0.057215644202977006,43.31224266165359,0)" xlink:href="#cY"/><use transform="matrix(0.057215644202977006,0,0,0.057215644202977006,49.033807081951295,0)" xlink:href="#cX"/></g><path fill="#333" d="M123 10C108 53 80 86 19 72V37c35 8 53-11 59-39L3-190h52l48 148c12-52 28-100 44-148h51" id="dq"/><g id="ad"><use transform="matrix(0.057215644202977006,0,0,0.057215644202977006,0,0)" xlink:href="#df"/><use transform="matrix(0.057215644202977006,0,0,0.057215644202977006,11.443128840595401,0)" xlink:href="#cg"/><use transform="matrix(0.057215644202977006,0,0,0.057215644202977006,22.886257681190802,0)" xlink:href="#dq"/></g><g id="ae"><use transform="matrix(0.057215644202977006,0,0,0.057215644202977006,0,0)" xlink:href="#da"/><use transform="matrix(0.057215644202977006,0,0,0.057215644202977006,8.01019018841678,0)" xlink:href="#cg"/><use transform="matrix(0.057215644202977006,0,0,0.057215644202977006,19.45331902901218,0)" xlink:href="#cZ"/><use transform="matrix(0.057215644202977006,0,0,0.057215644202977006,30.896447869607584,0)" xlink:href="#ce"/></g><g id="af"><use transform="matrix(0.057215644202977006,0,0,0.057215644202977006,0,0)" xlink:href="#ch"/><use transform="matrix(0.057215644202977006,0,0,0.057215644202977006,6.8086616601542636,0)" xlink:href="#bZ"/><use transform="matrix(0.057215644202977006,0,0,0.057215644202977006,19.33888774060623,0)" xlink:href="#cg"/></g><g id="ag"><use transform="matrix(0.057215644202977006,0,0,0.057215644202977006,0,0)" xlink:href="#da"/><use transform="matrix(0.057215644202977006,0,0,0.057215644202977006,8.01019018841678,0)" xlink:href="#cg"/><use transform="matrix(0.057215644202977006,0,0,0.057215644202977006,19.45331902901218,0)" xlink:href="#db"/><use transform="matrix(0.057215644202977006,0,0,0.057215644202977006,31.983545109464146,0)" xlink:href="#cd"/></g><path fill="#333" d="M35-132v-50h50v50H35zM35 0v-49h50V0H35" id="dr"/><g id="ah"><use transform="matrix(0.057215644202977006,0,0,0.057215644202977006,0,0)" xlink:href="#cW"/><use transform="matrix(0.057215644202977006,0,0,0.057215644202977006,14.818851848571045,0)" xlink:href="#bX"/><use transform="matrix(0.057215644202977006,0,0,0.057215644202977006,27.34907792902301,0)" xlink:href="#ch"/><use transform="matrix(0.057215644202977006,0,0,0.057215644202977006,34.157739589177275,0)" xlink:href="#cd"/><use transform="matrix(0.057215644202977006,0,0,0.057215644202977006,46.687965669629236,0)" xlink:href="#dd"/><use transform="matrix(0.057215644202977006,0,0,0.057215644202977006,64.99697181458188,0)" xlink:href="#cZ"/><use transform="matrix(0.057215644202977006,0,0,0.057215644202977006,76.44010065517729,0)" xlink:href="#ch"/><use transform="matrix(0.057215644202977006,0,0,0.057215644202977006,83.24876231533155,0)" xlink:href="#cY"/><use transform="matrix(0.057215644202977006,0,0,0.057215644202977006,88.97032673562924,0)" xlink:href="#cX"/><use transform="matrix(0.057215644202977006,0,0,0.057215644202977006,100.41345557622465,0)" xlink:href="#cZ"/><use transform="matrix(0.057215644202977006,0,0,0.057215644202977006,111.85658441682006,0)" xlink:href="#cf"/><use transform="matrix(0.057215644202977006,0,0,0.057215644202977006,117.57814883711775,0)" xlink:href="#cf"/><use transform="matrix(0.057215644202977006,0,0,0.057215644202977006,123.29971325741545,0)" xlink:href="#dq"/><use transform="matrix(0.057215644202977006,0,0,0.057215644202977006,134.74284209801084,0)" xlink:href="#dr"/></g><g id="ai"><use transform="matrix(0.057215644202977006,0,0,0.057215644202977006,0,0)" xlink:href="#de"/><use transform="matrix(0.057215644202977006,0,0,0.057215644202977006,12.530226080451964,0)" xlink:href="#dq"/></g><path fill="#333" d="M195-6C206 82 75 100 31 46c-4-6-6-13-8-21l49-6c3 16 16 24 34 25 40 0 42-37 40-79-11 22-30 35-61 35-53 0-70-43-70-97 0-56 18-96 73-97 30 0 46 14 59 34l2-30h47zm-90-29c32 0 41-27 41-63 0-35-9-62-40-62-32 0-39 29-40 63 0 36 9 62 39 62" id="ds"/><g id="aj"><use transform="matrix(0.057215644202977006,0,0,0.057215644202977006,0,0)" xlink:href="#cY"/><use transform="matrix(0.057215644202977006,0,0,0.057215644202977006,5.7215644202977005,0)" xlink:href="#dg"/><use transform="matrix(0.057215644202977006,0,0,0.057215644202977006,18.251790500749664,0)" xlink:href="#cX"/><use transform="matrix(0.057215644202977006,0,0,0.057215644202977006,29.69491934134506,0)" xlink:href="#da"/><use transform="matrix(0.057215644202977006,0,0,0.057215644202977006,37.70510952976184,0)" xlink:href="#cg"/><use transform="matrix(0.057215644202977006,0,0,0.057215644202977006,49.14823837035724,0)" xlink:href="#dd"/><use transform="matrix(0.057215644202977006,0,0,0.057215644202977006,67.45724451530988,0)" xlink:href="#cg"/><use transform="matrix(0.057215644202977006,0,0,0.057215644202977006,78.90037335590529,0)" xlink:href="#dg"/><use transform="matrix(0.057215644202977006,0,0,0.057215644202977006,91.43059943635726,0)" xlink:href="#ch"/><use transform="matrix(0.057215644202977006,0,0,0.057215644202977006,98.23926109651151,0)" xlink:href="#cY"/><use transform="matrix(0.057215644202977006,0,0,0.057215644202977006,103.96082551680921,0)" xlink:href="#dg"/><use transform="matrix(0.057215644202977006,0,0,0.057215644202977006,116.49105159726118,0)" xlink:href="#ds"/></g><g id="ak"><use transform="matrix(0.057215644202977006,0,0,0.057215644202977006,0,0)" xlink:href="#da"/><use transform="matrix(0.057215644202977006,0,0,0.057215644202977006,8.01019018841678,0)" xlink:href="#cg"/><use transform="matrix(0.057215644202977006,0,0,0.057215644202977006,19.45331902901218,0)" xlink:href="#db"/><use transform="matrix(0.057215644202977006,0,0,0.057215644202977006,31.983545109464146,0)" xlink:href="#cd"/></g><g id="al"><use transform="matrix(0.057215644202977006,0,0,0.057215644202977006,0,0)" xlink:href="#do"/><use transform="matrix(0.057215644202977006,0,0,0.057215644202977006,11.443128840595401,0)" xlink:href="#cg"/><use transform="matrix(0.057215644202977006,0,0,0.057215644202977006,22.886257681190802,0)" xlink:href="#da"/><use transform="matrix(0.057215644202977006,0,0,0.057215644202977006,30.896447869607584,0)" xlink:href="#bY"/><use transform="matrix(0.057215644202977006,0,0,0.057215644202977006,42.339576710202984,0)" xlink:href="#cY"/><use transform="matrix(0.057215644202977006,0,0,0.057215644202977006,48.06114113050069,0)" xlink:href="#cd"/><use transform="matrix(0.057215644202977006,0,0,0.057215644202977006,60.59136721095265,0)" xlink:href="#dg"/></g><g id="am"><use transform="matrix(0.057215644202977006,0,0,0.057215644202977006,0,0)" xlink:href="#dg"/><use transform="matrix(0.057215644202977006,0,0,0.057215644202977006,12.530226080451964,0)" xlink:href="#bX"/><use transform="matrix(0.057215644202977006,0,0,0.057215644202977006,25.060452160903928,0)" xlink:href="#dd"/><use transform="matrix(0.057215644202977006,0,0,0.057215644202977006,43.36945830585657,0)" xlink:href="#de"/><use transform="matrix(0.057215644202977006,0,0,0.057215644202977006,55.899684386308536,0)" xlink:href="#cg"/><use transform="matrix(0.057215644202977006,0,0,0.057215644202977006,67.34281322690394,0)" xlink:href="#da"/></g><g id="an"><use transform="matrix(0.057215644202977006,0,0,0.057215644202977006,0,0)" xlink:href="#cc"/><use transform="matrix(0.057215644202977006,0,0,0.057215644202977006,17.107477616690126,0)" xlink:href="#cZ"/><use transform="matrix(0.057215644202977006,0,0,0.057215644202977006,28.550606457285525,0)" xlink:href="#dg"/><use transform="matrix(0.057215644202977006,0,0,0.057215644202977006,41.08083253773749,0)" xlink:href="#bX"/><use transform="matrix(0.057215644202977006,0,0,0.057215644202977006,53.61105861818946,0)" xlink:href="#cZ"/><use transform="matrix(0.057215644202977006,0,0,0.057215644202977006,65.05418745878487,0)" xlink:href="#cf"/><use transform="matrix(0.057215644202977006,0,0,0.057215644202977006,70.77575187908256,0)" xlink:href="#cf"/><use transform="matrix(0.057215644202977006,0,0,0.057215644202977006,76.49731629938026,0)" xlink:href="#dq"/></g><path d="M30-248c118-7 216 8 213 122C240-48 200 0 122 0H30v-248zM63-27c89 8 146-16 146-99s-60-101-146-95v194" id="dt"/><g id="ao"><use transform="matrix(0.05,0,0,0.05,0,0)" xlink:href="#cV"/><use transform="matrix(0.05,0,0,0.05,12,0)" xlink:href="#cS"/><use transform="matrix(0.05,0,0,0.05,24.950000000000003,0)" xlink:href="#dt"/></g><g id="ap"><use transform="matrix(0.05,0,0,0.05,0,0)" xlink:href="#bF"/><use transform="matrix(0.05,0,0,0.05,12,0)" xlink:href="#bt"/><use transform="matrix(0.05,0,0,0.05,22,0)" xlink:href="#by"/></g><g id="aq"><use transform="matrix(0.05,0,0,0.05,0,0)" xlink:href="#by"/><use transform="matrix(0.05,0,0,0.05,5,0)" xlink:href="#bU"/><use transform="matrix(0.05,0,0,0.05,15,0)" xlink:href="#bt"/></g><path d="M141 0L90-78 38 0H4l68-98-65-92h35l48 74 47-74h35l-64 92 68 98h-35" id="du"/><g id="ar"><use transform="matrix(0.05,0,0,0.05,0,0)" xlink:href="#bt"/><use transform="matrix(0.05,0,0,0.05,10,0)" xlink:href="#du"/><use transform="matrix(0.05,0,0,0.05,19,0)" xlink:href="#bO"/><use transform="matrix(0.05,0,0,0.05,22.95,0)" xlink:href="#bR"/><use transform="matrix(0.05,0,0,0.05,31.950000000000003,0)" xlink:href="#by"/><use transform="matrix(0.05,0,0,0.05,36.95,0)" xlink:href="#bO"/><use transform="matrix(0.05,0,0,0.05,40.900000000000006,0)" xlink:href="#bA"/><use transform="matrix(0.05,0,0,0.05,50.900000000000006,0)" xlink:href="#bB"/></g><g id="as"><use transform="matrix(0.05,0,0,0.05,0,0)" xlink:href="#bF"/><use transform="matrix(0.05,0,0,0.05,12,0)" xlink:href="#cS"/></g><g id="at"><use transform="matrix(0.05,0,0,0.05,0,0)" xlink:href="#bE"/><use transform="matrix(0.05,0,0,0.05,12.950000000000001,0)" xlink:href="#bx"/><use transform="matrix(0.05,0,0,0.05,22.950000000000003,0)" xlink:href="#by"/></g><g id="au"><use transform="matrix(0.05,0,0,0.05,0,0)" xlink:href="#bO"/><use transform="matrix(0.05,0,0,0.05,3.95,0)" xlink:href="#by"/><use transform="matrix(0.05,0,0,0.05,8.95,0)" xlink:href="#bt"/><use transform="matrix(0.05,0,0,0.05,18.95,0)" xlink:href="#bu"/></g><g id="av"><use transform="matrix(0.05,0,0,0.05,0,0)" xlink:href="#by"/><use transform="matrix(0.05,0,0,0.05,5,0)" xlink:href="#bQ"/></g><path d="M85-194c31 0 48 13 60 33l-1-100h32l1 261h-30c-2-10 0-23-3-31C134-8 116 4 85 4 32 4 16-35 15-94c0-66 23-100 70-100zm9 24c-40 0-46 34-46 75 0 40 6 74 45 74 42 0 51-32 51-76 0-42-9-74-50-73" id="dv"/><g id="aw"><use transform="matrix(0.05,0,0,0.05,0,0)" xlink:href="#dv"/><use transform="matrix(0.05,0,0,0.05,10,0)" xlink:href="#bO"/><use transform="matrix(0.05,0,0,0.05,13.949999999999998,0)" xlink:href="#bR"/><use transform="matrix(0.05,0,0,0.05,22.95,0)" xlink:href="#bx"/><use transform="matrix(0.05,0,0,0.05,32.95,0)" xlink:href="#bT"/><use transform="matrix(0.05,0,0,0.05,42.95,0)" xlink:href="#bw"/><use transform="matrix(0.05,0,0,0.05,46.900000000000006,0)" xlink:href="#bt"/><use transform="matrix(0.05,0,0,0.05,56.900000000000006,0)" xlink:href="#dv"/></g><g id="ax"><use transform="matrix(0.05,0,0,0.05,0,0)" xlink:href="#bF"/><use transform="matrix(0.05,0,0,0.05,12,0)" xlink:href="#by"/><use transform="matrix(0.05,0,0,0.05,17,0)" xlink:href="#bx"/><use transform="matrix(0.05,0,0,0.05,27,0)" xlink:href="#bC"/><use transform="matrix(0.05,0,0,0.05,32.95,0)" xlink:href="#by"/></g><g id="ay"><use transform="matrix(0.05,0,0,0.05,0,0)" xlink:href="#bE"/><use transform="matrix(0.05,0,0,0.05,12.950000000000001,0)" xlink:href="#bx"/><use transform="matrix(0.05,0,0,0.05,22.950000000000003,0)" xlink:href="#by"/></g><g id="az"><use transform="matrix(0.05,0,0,0.05,0,0)" xlink:href="#bO"/><use transform="matrix(0.05,0,0,0.05,3.95,0)" xlink:href="#by"/><use transform="matrix(0.05,0,0,0.05,8.95,0)" xlink:href="#bt"/><use transform="matrix(0.05,0,0,0.05,18.95,0)" xlink:href="#bu"/></g><g id="aA"><use transform="matrix(0.05,0,0,0.05,0,0)" xlink:href="#bN"/><use transform="matrix(0.05,0,0,0.05,9,0)" xlink:href="#bC"/><use transform="matrix(0.05,0,0,0.05,14.949999999999998,0)" xlink:href="#bt"/><use transform="matrix(0.05,0,0,0.05,24.95,0)" xlink:href="#bx"/><use transform="matrix(0.05,0,0,0.05,34.95,0)" xlink:href="#by"/><use transform="matrix(0.05,0,0,0.05,39.95,0)" xlink:href="#bO"/><use transform="matrix(0.05,0,0,0.05,43.900000000000006,0)" xlink:href="#bQ"/><use transform="matrix(0.05,0,0,0.05,53.900000000000006,0)" xlink:href="#bA"/></g><g id="aB"><use transform="matrix(0.050063688677604884,0,0,0.050063688677604884,0,0)" xlink:href="#cJ"/><use transform="matrix(0.050063688677604884,0,0,0.050063688677604884,14.017832829729368,0)" xlink:href="#cv"/><use transform="matrix(0.050063688677604884,0,0,0.050063688677604884,24.98178065012484,0)" xlink:href="#cn"/><use transform="matrix(0.050063688677604884,0,0,0.050063688677604884,34.99451838564582,0)" xlink:href="#cm"/><use transform="matrix(0.050063688677604884,0,0,0.050063688677604884,42.003434800510504,0)" xlink:href="#cK"/></g><g id="aC"><use transform="matrix(0.050063688677604884,0,0,0.050063688677604884,0,0)" xlink:href="#cw"/><use transform="matrix(0.050063688677604884,0,0,0.050063688677604884,12.015285282625172,0)" xlink:href="#cL"/><use transform="matrix(0.050063688677604884,0,0,0.050063688677604884,24.981780650124836,0)" xlink:href="#cM"/></g><g id="aD"><use transform="matrix(0.050063688677604884,0,0,0.050063688677604884,0,0)" xlink:href="#cw"/><use transform="matrix(0.050063688677604884,0,0,0.050063688677604884,12.015285282625172,0)" xlink:href="#cL"/></g><g id="aE"><use transform="matrix(0.050063688677604884,0,0,0.050063688677604884,0,0)" xlink:href="#cl"/><use transform="matrix(0.050063688677604884,0,0,0.050063688677604884,12.966495367499665,0)" xlink:href="#co"/><use transform="matrix(0.050063688677604884,0,0,0.050063688677604884,22.97923310302064,0)" xlink:href="#cp"/></g><g id="aF"><use transform="matrix(0.050063688677604884,0,0,0.050063688677604884,0,0)" xlink:href="#cz"/><use transform="matrix(0.050063688677604884,0,0,0.050063688677604884,5.0063688677604885,0)" xlink:href="#cp"/><use transform="matrix(0.050063688677604884,0,0,0.050063688677604884,10.96394782039547,0)" xlink:href="#cn"/><use transform="matrix(0.050063688677604884,0,0,0.050063688677604884,20.976685555916447,0)" xlink:href="#cP"/></g><g id="aG"><use transform="matrix(0.050063688677604884,0,0,0.050063688677604884,0,0)" xlink:href="#cy"/><use transform="matrix(0.050063688677604884,0,0,0.050063688677604884,10.012737735520977,0)" xlink:href="#cn"/><use transform="matrix(0.050063688677604884,0,0,0.050063688677604884,20.025475471041954,0)" xlink:href="#cm"/></g><path d="M15-91v-56l181-69v40L49-119l147 57v40" id="dw"/><use transform="matrix(0.050063688677604884,0,0,0.050063688677604884,0,0)" xlink:href="#dw" id="aH"/><path d="M135-194c53 0 70 44 70 98 0 56-19 98-73 100-31 1-45-17-59-34 3 33 2 69 2 105H25l-1-265h48c2 10 0 23 3 31 11-24 29-35 60-35zM114-30c33 0 39-31 40-66 0-38-9-64-40-64-56 0-55 130 0 130" id="dx"/><g id="aI"><use transform="matrix(0.050063688677604884,0,0,0.050063688677604884,0,0)" xlink:href="#cm"/><use transform="matrix(0.050063688677604884,0,0,0.050063688677604884,7.008916414864684,0)" xlink:href="#cn"/><use transform="matrix(0.050063688677604884,0,0,0.050063688677604884,17.02165415038566,0)" xlink:href="#dx"/><use transform="matrix(0.050063688677604884,0,0,0.050063688677604884,27.98560197078113,0)" xlink:href="#ct"/></g><g id="aJ"><use transform="matrix(0.050063688677604884,0,0,0.050063688677604884,0,0)" xlink:href="#cp"/><use transform="matrix(0.050063688677604884,0,0,0.050063688677604884,5.957578952634981,0)" xlink:href="#co"/><use transform="matrix(0.050063688677604884,0,0,0.050063688677604884,15.970316688155958,0)" xlink:href="#cA"/></g><g id="aK"><use transform="matrix(0.050063688677604884,0,0,0.050063688677604884,0,0)" xlink:href="#cy"/><use transform="matrix(0.050063688677604884,0,0,0.050063688677604884,10.012737735520977,0)" xlink:href="#cn"/><use transform="matrix(0.050063688677604884,0,0,0.050063688677604884,20.025475471041954,0)" xlink:href="#cm"/></g><g id="aL"><use transform="matrix(0.057215644202977006,0,0,0.057215644202977006,0,0)" xlink:href="#ca"/><use transform="matrix(0.057215644202977006,0,0,0.057215644202977006,11.385913196392424,0)" xlink:href="#da"/><use transform="matrix(0.057215644202977006,0,0,0.057215644202977006,19.396103384809205,0)" xlink:href="#cY"/><use transform="matrix(0.057215644202977006,0,0,0.057215644202977006,25.117667805106905,0)" xlink:href="#ds"/><use transform="matrix(0.057215644202977006,0,0,0.057215644202977006,37.64789388555887,0)" xlink:href="#ds"/><use transform="matrix(0.057215644202977006,0,0,0.057215644202977006,50.17811996601084,0)" xlink:href="#cg"/><use transform="matrix(0.057215644202977006,0,0,0.057215644202977006,61.62124880660624,0)" xlink:href="#da"/></g><g id="aM"><use transform="matrix(0.057215644202977006,0,0,0.057215644202977006,0,0)" xlink:href="#ch"/><use transform="matrix(0.057215644202977006,0,0,0.057215644202977006,6.8086616601542636,0)" xlink:href="#bZ"/><use transform="matrix(0.057215644202977006,0,0,0.057215644202977006,19.33888774060623,0)" xlink:href="#cg"/></g><g id="aN"><use transform="matrix(0.057215644202977006,0,0,0.057215644202977006,0,0)" xlink:href="#dc"/><use transform="matrix(0.057215644202977006,0,0,0.057215644202977006,16.02038037683356,0)" xlink:href="#cg"/><use transform="matrix(0.057215644202977006,0,0,0.057215644202977006,27.463509217428964,0)" xlink:href="#de"/><use transform="matrix(0.057215644202977006,0,0,0.057215644202977006,39.99373529788093,0)" xlink:href="#bZ"/><use transform="matrix(0.057215644202977006,0,0,0.057215644202977006,52.5239613783329,0)" xlink:href="#cd"/><use transform="matrix(0.057215644202977006,0,0,0.057215644202977006,65.05418745878487,0)" xlink:href="#cd"/><use transform="matrix(0.057215644202977006,0,0,0.057215644202977006,77.58441353923683,0)" xlink:href="#df"/></g></defs></g></svg>